  0
SECTION
  2
ENTITIES
  0
POLYLINE
  8
2
 62
     3
 66
     1
 10
0.0
 20
0.0
 30
0.0
 70
     1
  0
VERTEX
  8
2
 10
100.000
 20
100.000
 30
0.0
  0
VERTEX
  8
2
 10
2100.000
 20
100.000
 30
0.0
  0
VERTEX
  8
2
 10
2100.000
 20
1300.000
 30
0.0
  0
VERTEX
  8
2
 10
100.000
 20
1300.000
 30
0.0
  0
SEQEND
  8
2
  0
POLYLINE
  8
2
 62
     3
 66
     1
 10
0.0
 20
0.0
 30
0.0
 70
     1
  0
VERTEX
  8
2
 10
120.000
 20
120.000
 30
0.0
  0
VERTEX
  8
2
 10
2080.000
 20
120.000
 30
0.0
  0
VERTEX
  8
2
 10
2080.000
 20
1280.000
 30
0.0
  0
VERTEX
  8
2
 10
120.000
 20
1280.000
 30
0.0
  0
SEQEND
  8
2
  0
LINE
  8
2
  62
     3
 10
245.591
 20
1300.000
 30
0.0
 11
245.591
 21
1290.000
 31
0.0
  0
LINE
  8
2
  62
     3
 10
316.772
 20
1300.000
 30
0.0
 11
316.772
 21
1290.000
 31
0.0
  0
LINE
  8
2
  62
     3
 10
405.154
 20
1300.000
 30
0.0
 11
405.154
 21
1290.000
 31
0.0
  0
LINE
  8
2
  62
     3
 10
470.738
 20
1300.000
 30
0.0
 11
470.738
 21
1290.000
 31
0.0
  0
LINE
  8
2
  62
     3
 10
553.732
 20
1300.000
 30
0.0
 11
553.732
 21
1290.000
 31
0.0
  0
LINE
  8
2
  62
     3
 10
614.136
 20
1300.000
 30
0.0
 11
614.136
 21
1290.000
 31
0.0
  0
LINE
  8
2
  62
     3
 10
692.141
 20
1300.000
 30
0.0
 11
692.141
 21
1290.000
 31
0.0
  0
LINE
  8
2
  62
     3
 10
747.749
 20
1300.000
 30
0.0
 11
747.749
 21
1290.000
 31
0.0
  0
LINE
  8
2
  62
     3
 10
821.137
 20
1300.000
 30
0.0
 11
821.137
 21
1290.000
 31
0.0
  0
LINE
  8
2
  62
     3
 10
872.304
 20
1300.000
 30
0.0
 11
872.304
 21
1290.000
 31
0.0
  0
LINE
  8
2
  62
     3
 10
940.665
 20
1300.000
 30
0.0
 11
940.665
 21
1290.000
 31
0.0
  0
LINE
  8
2
  62
     3
 10
986.220
 20
1300.000
 30
0.0
 11
986.220
 21
1290.000
 31
0.0
  0
LINE
  8
2
  62
     3
 10
1046.943
 20
1300.000
 30
0.0
 11
1046.943
 21
1290.000
 31
0.0
  0
LINE
  8
2
  62
     3
 10
1082.833
 20
1300.000
 30
0.0
 11
1082.833
 21
1290.000
 31
0.0
  0
LINE
  8
2
  62
     3
 10
1136.118
 20
1300.000
 30
0.0
 11
1136.118
 21
1290.000
 31
0.0
  0
LINE
  8
2
  62
     3
 10
1166.799
 20
1300.000
 30
0.0
 11
1166.799
 21
1290.000
 31
0.0
  0
LINE
  8
2
  62
     3
 10
1215.038
 20
1300.000
 30
0.0
 11
1215.038
 21
1290.000
 31
0.0
  0
LINE
  8
2
  62
     3
 10
1240.836
 20
1300.000
 30
0.0
 11
1240.836
 21
1290.000
 31
0.0
  0
LINE
  8
2
  62
     3
 10
1284.321
 20
1300.000
 30
0.0
 11
1284.321
 21
1290.000
 31
0.0
  0
LINE
  8
2
  62
     3
 10
1305.493
 20
1300.000
 30
0.0
 11
1305.493
 21
1290.000
 31
0.0
  0
LINE
  8
2
  62
     3
 10
1344.445
 20
1300.000
 30
0.0
 11
1344.445
 21
1290.000
 31
0.0
  0
LINE
  8
2
  62
     3
 10
1361.174
 20
1300.000
 30
0.0
 11
1361.174
 21
1290.000
 31
0.0
  0
LINE
  8
2
  62
     3
 10
1395.724
 20
1300.000
 30
0.0
 11
1395.724
 21
1290.000
 31
0.0
  0
LINE
  8
2
  62
     3
 10
1408.095
 20
1300.000
 30
0.0
 11
1408.095
 21
1290.000
 31
0.0
  0
LINE
  8
2
  62
     3
 10
1439.280
 20
1300.000
 30
0.0
 11
1439.280
 21
1290.000
 31
0.0
  0
LINE
  8
2
  62
     3
 10
1449.280
 20
1300.000
 30
0.0
 11
1449.280
 21
1290.000
 31
0.0
  0
LINE
  8
2
  62
     3
 10
1479.280
 20
1300.000
 30
0.0
 11
1479.280
 21
1290.000
 31
0.0
  0
LINE
  8
2
  62
     3
 10
1489.280
 20
1300.000
 30
0.0
 11
1489.280
 21
1290.000
 31
0.0
  0
LINE
  8
2
  62
     3
 10
1519.280
 20
1300.000
 30
0.0
 11
1519.280
 21
1290.000
 31
0.0
  0
LINE
  8
2
  62
     3
 10
1529.280
 20
1300.000
 30
0.0
 11
1529.280
 21
1290.000
 31
0.0
  0
LINE
  8
2
  62
     3
 10
1559.280
 20
1300.000
 30
0.0
 11
1559.280
 21
1290.000
 31
0.0
  0
LINE
  8
2
  62
     3
 10
1569.280
 20
1300.000
 30
0.0
 11
1569.280
 21
1290.000
 31
0.0
  0
LINE
  8
2
  62
     3
 10
1599.280
 20
1300.000
 30
0.0
 11
1599.280
 21
1290.000
 31
0.0
  0
LINE
  8
2
  62
     3
 10
1609.280
 20
1300.000
 30
0.0
 11
1609.280
 21
1290.000
 31
0.0
  0
LINE
  8
2
  62
     3
 10
1639.280
 20
1300.000
 30
0.0
 11
1639.280
 21
1290.000
 31
0.0
  0
LINE
  8
2
  62
     3
 10
1649.280
 20
1300.000
 30
0.0
 11
1649.280
 21
1290.000
 31
0.0
  0
LINE
  8
2
  62
     3
 10
1679.280
 20
1300.000
 30
0.0
 11
1679.280
 21
1290.000
 31
0.0
  0
LINE
  8
2
  62
     3
 10
1689.280
 20
1300.000
 30
0.0
 11
1689.280
 21
1290.000
 31
0.0
  0
LINE
  8
2
  62
     3
 10
1719.280
 20
1300.000
 30
0.0
 11
1719.280
 21
1290.000
 31
0.0
  0
LINE
  8
2
  62
     3
 10
1729.280
 20
1300.000
 30
0.0
 11
1729.280
 21
1290.000
 31
0.0
  0
LINE
  8
2
  62
     3
 10
1759.280
 20
1300.000
 30
0.0
 11
1759.280
 21
1290.000
 31
0.0
  0
LINE
  8
2
  62
     3
 10
1769.280
 20
1300.000
 30
0.0
 11
1769.280
 21
1290.000
 31
0.0
  0
LINE
  8
2
  62
     3
 10
1799.280
 20
1300.000
 30
0.0
 11
1799.280
 21
1290.000
 31
0.0
  0
LINE
  8
2
  62
     3
 10
1809.280
 20
1300.000
 30
0.0
 11
1809.280
 21
1290.000
 31
0.0
  0
LINE
  8
2
  62
     3
 10
1839.280
 20
1300.000
 30
0.0
 11
1839.280
 21
1290.000
 31
0.0
  0
LINE
  8
2
  62
     3
 10
1849.280
 20
1300.000
 30
0.0
 11
1849.280
 21
1290.000
 31
0.0
  0
LINE
  8
2
  62
     3
 10
1879.280
 20
1300.000
 30
0.0
 11
1879.280
 21
1290.000
 31
0.0
  0
LINE
  8
2
  62
     3
 10
1889.280
 20
1300.000
 30
0.0
 11
1889.280
 21
1290.000
 31
0.0
  0
LINE
  8
2
  62
     3
 10
1919.280
 20
1300.000
 30
0.0
 11
1919.280
 21
1290.000
 31
0.0
  0
LINE
  8
2
  62
     3
 10
1929.280
 20
1300.000
 30
0.0
 11
1929.280
 21
1290.000
 31
0.0
  0
LINE
  8
2
  62
     3
 10
1959.280
 20
1300.000
 30
0.0
 11
1959.280
 21
1290.000
 31
0.0
  0
LINE
  8
2
  62
     3
 10
1969.280
 20
1300.000
 30
0.0
 11
1969.280
 21
1290.000
 31
0.0
  0
LINE
  8
2
  62
     3
 10
1999.280
 20
1300.000
 30
0.0
 11
1999.280
 21
1290.000
 31
0.0
  0
LINE
  8
2
  62
     3
 10
2009.280
 20
1300.000
 30
0.0
 11
2009.280
 21
1290.000
 31
0.0
  0
LINE
  8
2
  62
     3
 10
2039.280
 20
1300.000
 30
0.0
 11
2039.280
 21
1290.000
 31
0.0
  0
LINE
  8
5
  62
     4
 10
200.000
 20
100.000
 30
0.0
 11
200.000
 21
1300.000
 31
0.0
  0
LINE
  8
5
  62
     8
 10
362.362
 20
100.000
 30
0.0
 11
362.362
 21
1300.000
 31
0.0
  0
LINE
  8
5
  62
     8
 10
513.531
 20
100.000
 30
0.0
 11
513.531
 21
1300.000
 31
0.0
  0
LINE
  8
5
  62
     8
 10
654.338
 20
100.000
 30
0.0
 11
654.338
 21
1300.000
 31
0.0
  0
LINE
  8
5
  62
     8
 10
785.553
 20
100.000
 30
0.0
 11
785.553
 21
1300.000
 31
0.0
  0
LINE
  8
5
  62
     8
 10
907.888
 20
100.000
 30
0.0
 11
907.888
 21
1300.000
 31
0.0
  0
LINE
  8
5
  62
     4
 10
1018.998
 20
100.000
 30
0.0
 11
1018.998
 21
1300.000
 31
0.0
  0
LINE
  8
5
  62
     8
 10
1110.778
 20
100.000
 30
0.0
 11
1110.778
 21
1300.000
 31
0.0
  0
LINE
  8
5
  62
     8
 10
1192.139
 20
100.000
 30
0.0
 11
1192.139
 21
1300.000
 31
0.0
  0
LINE
  8
5
  62
     8
 10
1263.734
 20
100.000
 30
0.0
 11
1263.734
 21
1300.000
 31
0.0
  0
LINE
  8
5
  62
     8
 10
1326.080
 20
100.000
 30
0.0
 11
1326.080
 21
1300.000
 31
0.0
  0
LINE
  8
5
  62
     8
 10
1379.539
 20
100.000
 30
0.0
 11
1379.539
 21
1300.000
 31
0.0
  0
LINE
  8
5
  62
     4
 10
1424.280
 20
100.000
 30
0.0
 11
1424.280
 21
1300.000
 31
0.0
  0
LINE
  8
5
  62
     8
 10
1464.280
 20
100.000
 30
0.0
 11
1464.280
 21
1300.000
 31
0.0
  0
LINE
  8
5
  62
     8
 10
1504.280
 20
100.000
 30
0.0
 11
1504.280
 21
1300.000
 31
0.0
  0
LINE
  8
5
  62
     8
 10
1544.280
 20
100.000
 30
0.0
 11
1544.280
 21
1300.000
 31
0.0
  0
LINE
  8
5
  62
     8
 10
1584.280
 20
100.000
 30
0.0
 11
1584.280
 21
1300.000
 31
0.0
  0
LINE
  8
5
  62
     8
 10
1624.280
 20
100.000
 30
0.0
 11
1624.280
 21
1300.000
 31
0.0
  0
LINE
  8
5
  62
     4
 10
1664.280
 20
100.000
 30
0.0
 11
1664.280
 21
1300.000
 31
0.0
  0
LINE
  8
5
  62
     8
 10
1704.280
 20
100.000
 30
0.0
 11
1704.280
 21
1300.000
 31
0.0
  0
LINE
  8
5
  62
     8
 10
1744.280
 20
100.000
 30
0.0
 11
1744.280
 21
1300.000
 31
0.0
  0
LINE
  8
5
  62
     8
 10
1784.280
 20
100.000
 30
0.0
 11
1784.280
 21
1300.000
 31
0.0
  0
LINE
  8
5
  62
     8
 10
1824.280
 20
100.000
 30
0.0
 11
1824.280
 21
1300.000
 31
0.0
  0
LINE
  8
5
  62
     8
 10
1864.280
 20
100.000
 30
0.0
 11
1864.280
 21
1300.000
 31
0.0
  0
LINE
  8
5
  62
     4
 10
1904.280
 20
100.000
 30
0.0
 11
1904.280
 21
1300.000
 31
0.0
  0
LINE
  8
5
  62
     8
 10
1944.280
 20
100.000
 30
0.0
 11
1944.280
 21
1300.000
 31
0.0
  0
LINE
  8
5
  62
     8
 10
1984.280
 20
100.000
 30
0.0
 11
1984.280
 21
1300.000
 31
0.0
  0
LINE
  8
5
  62
     8
 10
2024.280
 20
100.000
 30
0.0
 11
2024.280
 21
1300.000
 31
0.0
  0
LINE
  8
5
  62
     4
 10
281.181
 20
100.000
 30
0.0
 11
281.181
 21
1300.000
 31
0.0
  0
LINE
  8
5
  62
     8
 10
437.946
 20
100.000
 30
0.0
 11
437.946
 21
1300.000
 31
0.0
  0
LINE
  8
5
  62
     8
 10
583.934
 20
100.000
 30
0.0
 11
583.934
 21
1300.000
 31
0.0
  0
LINE
  8
5
  62
     8
 10
719.945
 20
100.000
 30
0.0
 11
719.945
 21
1300.000
 31
0.0
  0
LINE
  8
5
  62
     8
 10
846.720
 20
100.000
 30
0.0
 11
846.720
 21
1300.000
 31
0.0
  0
LINE
  8
5
  62
     8
 10
963.443
 20
100.000
 30
0.0
 11
963.443
 21
1300.000
 31
0.0
  0
LINE
  8
5
  62
     4
 10
1064.888
 20
100.000
 30
0.0
 11
1064.888
 21
1300.000
 31
0.0
  0
LINE
  8
5
  62
     8
 10
1151.459
 20
100.000
 30
0.0
 11
1151.459
 21
1300.000
 31
0.0
  0
LINE
  8
5
  62
     8
 10
1227.937
 20
100.000
 30
0.0
 11
1227.937
 21
1300.000
 31
0.0
  0
LINE
  8
5
  62
     8
 10
1294.907
 20
100.000
 30
0.0
 11
1294.907
 21
1300.000
 31
0.0
  0
LINE
  8
5
  62
     8
 10
1352.809
 20
100.000
 30
0.0
 11
1352.809
 21
1300.000
 31
0.0
  0
LINE
  8
5
  62
     8
 10
1401.909
 20
100.000
 30
0.0
 11
1401.909
 21
1300.000
 31
0.0
  0
LINE
  8
5
  62
     4
 10
1444.280
 20
100.000
 30
0.0
 11
1444.280
 21
1300.000
 31
0.0
  0
LINE
  8
5
  62
     8
 10
1484.280
 20
100.000
 30
0.0
 11
1484.280
 21
1300.000
 31
0.0
  0
LINE
  8
5
  62
     8
 10
1524.280
 20
100.000
 30
0.0
 11
1524.280
 21
1300.000
 31
0.0
  0
LINE
  8
5
  62
     8
 10
1564.280
 20
100.000
 30
0.0
 11
1564.280
 21
1300.000
 31
0.0
  0
LINE
  8
5
  62
     8
 10
1604.280
 20
100.000
 30
0.0
 11
1604.280
 21
1300.000
 31
0.0
  0
LINE
  8
5
  62
     8
 10
1644.280
 20
100.000
 30
0.0
 11
1644.280
 21
1300.000
 31
0.0
  0
LINE
  8
5
  62
     4
 10
1684.280
 20
100.000
 30
0.0
 11
1684.280
 21
1300.000
 31
0.0
  0
LINE
  8
5
  62
     8
 10
1724.280
 20
100.000
 30
0.0
 11
1724.280
 21
1300.000
 31
0.0
  0
LINE
  8
5
  62
     8
 10
1764.280
 20
100.000
 30
0.0
 11
1764.280
 21
1300.000
 31
0.0
  0
LINE
  8
5
  62
     8
 10
1804.280
 20
100.000
 30
0.0
 11
1804.280
 21
1300.000
 31
0.0
  0
LINE
  8
5
  62
     8
 10
1844.280
 20
100.000
 30
0.0
 11
1844.280
 21
1300.000
 31
0.0
  0
LINE
  8
5
  62
     8
 10
1884.280
 20
100.000
 30
0.0
 11
1884.280
 21
1300.000
 31
0.0
  0
LINE
  8
5
  62
     4
 10
1924.280
 20
100.000
 30
0.0
 11
1924.280
 21
1300.000
 31
0.0
  0
LINE
  8
5
  62
     8
 10
1964.280
 20
100.000
 30
0.0
 11
1964.280
 21
1300.000
 31
0.0
  0
LINE
  8
5
  62
     8
 10
2004.280
 20
100.000
 30
0.0
 11
2004.280
 21
1300.000
 31
0.0
  0
LINE
  8
5
  62
     8
 10
2044.280
 20
100.000
 30
0.0
 11
2044.280
 21
1300.000
 31
0.0
  0
LINE
  8
5
  62
     8
 10
100.000
 20
200.000
 30
0.0
 11
2100.000
 21
200.000
 31
0.0
  0
TEXT
  8
1
  62
     7
 10
2110.000
 20
190.000
 30
0.0
 40
20.000
  1
Principal 8
  7
STANDARD
  0
LINE
  8
5
  62
     8
 10
100.000
 20
226.000
 30
0.0
 11
2100.000
 21
226.000
 31
0.0
  0
LINE
  8
5
  62
     8
 10
100.000
 20
174.000
 30
0.0
 11
2100.000
 21
174.000
 31
0.0
  0
CIRCLE
  8
3
  62
     5
 10
200.000
 20
200.000
 30
0.0
 40
74.000
  0
LINE
  8
3
  62
     5
 10
198.939
 20
201.061
 30
0.0
 11
201.061
 21
198.939
 31
0.0
  0
LINE
  8
3
  62
     5
 10
198.939
 20
198.939
 30
0.0
 11
201.061
 21
201.061
 31
0.0
  0
CIRCLE
  8
3
  62
     5
 10
362.362
 20
200.000
 30
0.0
 40
68.362
  0
LINE
  8
3
  62
     5
 10
361.302
 20
201.061
 30
0.0
 11
363.423
 21
198.939
 31
0.0
  0
LINE
  8
3
  62
     5
 10
361.302
 20
198.939
 30
0.0
 11
363.423
 21
201.061
 31
0.0
  0
CIRCLE
  8
3
  62
     5
 10
513.531
 20
200.000
 30
0.0
 40
63.154
  0
LINE
  8
3
  62
     5
 10
512.470
 20
201.061
 30
0.0
 11
514.591
 21
198.939
 31
0.0
  0
LINE
  8
3
  62
     5
 10
512.470
 20
198.939
 30
0.0
 11
514.591
 21
201.061
 31
0.0
  0
CIRCLE
  8
3
  62
     5
 10
654.338
 20
200.000
 30
0.0
 40
58.343
  0
LINE
  8
3
  62
     5
 10
653.277
 20
201.061
 30
0.0
 11
655.398
 21
198.939
 31
0.0
  0
LINE
  8
3
  62
     5
 10
653.277
 20
198.939
 30
0.0
 11
655.398
 21
201.061
 31
0.0
  0
CIRCLE
  8
3
  62
     5
 10
785.553
 20
200.000
 30
0.0
 40
53.899
  0
LINE
  8
3
  62
     5
 10
784.492
 20
201.061
 30
0.0
 11
786.613
 21
198.939
 31
0.0
  0
LINE
  8
3
  62
     5
 10
784.492
 20
198.939
 30
0.0
 11
786.613
 21
201.061
 31
0.0
  0
CIRCLE
  8
3
  62
     5
 10
907.888
 20
200.000
 30
0.0
 40
49.793
  0
LINE
  8
3
  62
     5
 10
906.827
 20
201.061
 30
0.0
 11
908.948
 21
198.939
 31
0.0
  0
LINE
  8
3
  62
     5
 10
906.827
 20
198.939
 30
0.0
 11
908.948
 21
201.061
 31
0.0
  0
CIRCLE
  8
3
  62
     5
 10
1018.998
 20
174.000
 30
0.0
 40
46.000
  0
CIRCLE
  8
6
  62
     6
 10
1018.998
 20
174.000
 30
0.0
 40
24.000
  0
CIRCLE
  8
7
  62
     6
 10
1018.998
 20
196.000
 30
0.0
 40
37.000
  0
CIRCLE
  8
8
  62
     6
 10
1018.998
 20
196.000
 30
0.0
 40
21.000
  0
CIRCLE
  8
9
  62
     6
 10
1018.998
 20
196.000
 30
0.0
 40
21.000
  0
CIRCLE
  8
7
  62
     6
 10
1018.998
 20
152.000
 30
0.0
 40
37.000
  0
CIRCLE
  8
8
  62
     6
 10
1018.998
 20
152.000
 30
0.0
 40
21.000
  0
CIRCLE
  8
9
  62
     6
 10
1018.998
 20
152.000
 30
0.0
 40
21.000
  0
LINE
  8
3
  62
     5
 10
1017.937
 20
175.061
 30
0.0
 11
1020.059
 21
172.939
 31
0.0
  0
LINE
  8
3
  62
     5
 10
1017.937
 20
172.939
 30
0.0
 11
1020.059
 21
175.061
 31
0.0
  0
CIRCLE
  8
3
  62
     5
 10
1110.778
 20
226.000
 30
0.0
 40
41.487
  0
CIRCLE
  8
6
  62
     6
 10
1110.778
 20
226.000
 30
0.0
 40
24.000
  0
CIRCLE
  8
7
  62
     6
 10
1110.778
 20
248.000
 30
0.0
 40
37.000
  0
CIRCLE
  8
8
  62
     6
 10
1110.778
 20
248.000
 30
0.0
 40
21.000
  0
CIRCLE
  8
9
  62
     6
 10
1110.778
 20
248.000
 30
0.0
 40
21.000
  0
CIRCLE
  8
7
  62
     6
 10
1110.778
 20
204.000
 30
0.0
 40
37.000
  0
CIRCLE
  8
8
  62
     6
 10
1110.778
 20
204.000
 30
0.0
 40
21.000
  0
CIRCLE
  8
9
  62
     6
 10
1110.778
 20
204.000
 30
0.0
 40
21.000
  0
LINE
  8
3
  62
     5
 10
1109.717
 20
227.061
 30
0.0
 11
1111.839
 21
224.939
 31
0.0
  0
LINE
  8
3
  62
     5
 10
1109.717
 20
224.939
 30
0.0
 11
1111.839
 21
227.061
 31
0.0
  0
CIRCLE
  8
3
  62
     5
 10
1192.139
 20
174.000
 30
0.0
 40
37.422
  0
CIRCLE
  8
6
  62
     6
 10
1192.139
 20
174.000
 30
0.0
 40
22.000
  0
CIRCLE
  8
7
  62
     6
 10
1192.139
 20
196.000
 30
0.0
 40
37.000
  0
CIRCLE
  8
8
  62
     6
 10
1192.139
 20
196.000
 30
0.0
 40
21.000
  0
CIRCLE
  8
9
  62
     6
 10
1192.139
 20
196.000
 30
0.0
 40
21.000
  0
CIRCLE
  8
7
  62
     6
 10
1192.139
 20
152.000
 30
0.0
 40
37.000
  0
CIRCLE
  8
8
  62
     6
 10
1192.139
 20
152.000
 30
0.0
 40
21.000
  0
CIRCLE
  8
9
  62
     6
 10
1192.139
 20
152.000
 30
0.0
 40
21.000
  0
LINE
  8
3
  62
     5
 10
1191.079
 20
175.061
 30
0.0
 11
1193.200
 21
172.939
 31
0.0
  0
LINE
  8
3
  62
     5
 10
1191.079
 20
172.939
 30
0.0
 11
1193.200
 21
175.061
 31
0.0
  0
CIRCLE
  8
3
  62
     5
 10
1263.734
 20
226.000
 30
0.0
 40
33.758
  0
CIRCLE
  8
6
  62
     6
 10
1263.734
 20
226.000
 30
0.0
 40
22.000
  0
CIRCLE
  8
7
  62
     6
 10
1263.734
 20
248.000
 30
0.0
 40
37.000
  0
CIRCLE
  8
8
  62
     6
 10
1263.734
 20
248.000
 30
0.0
 40
21.000
  0
CIRCLE
  8
9
  62
     6
 10
1263.734
 20
248.000
 30
0.0
 40
21.000
  0
CIRCLE
  8
7
  62
     6
 10
1263.734
 20
204.000
 30
0.0
 40
37.000
  0
CIRCLE
  8
8
  62
     6
 10
1263.734
 20
204.000
 30
0.0
 40
21.000
  0
CIRCLE
  8
9
  62
     6
 10
1263.734
 20
204.000
 30
0.0
 40
21.000
  0
LINE
  8
3
  62
     5
 10
1262.674
 20
227.061
 30
0.0
 11
1264.795
 21
224.939
 31
0.0
  0
LINE
  8
3
  62
     5
 10
1262.674
 20
224.939
 30
0.0
 11
1264.795
 21
227.061
 31
0.0
  0
CIRCLE
  8
3
  62
     5
 10
1326.080
 20
174.000
 30
0.0
 40
30.456
  0
CIRCLE
  8
6
  62
     6
 10
1326.080
 20
174.000
 30
0.0
 40
20.000
  0
CIRCLE
  8
7
  62
     6
 10
1326.080
 20
174.000
 30
0.0
 40
37.000
  0
CIRCLE
  8
8
  62
     6
 10
1326.080
 20
174.000
 30
0.0
 40
21.000
  0
CIRCLE
  8
9
  62
     6
 10
1326.080
 20
174.000
 30
0.0
 40
21.000
  0
LINE
  8
3
  62
     5
 10
1325.019
 20
175.061
 30
0.0
 11
1327.140
 21
172.939
 31
0.0
  0
LINE
  8
3
  62
     5
 10
1325.019
 20
172.939
 30
0.0
 11
1327.140
 21
175.061
 31
0.0
  0
CIRCLE
  8
3
  62
     5
 10
1379.539
 20
226.000
 30
0.0
 40
27.481
  0
CIRCLE
  8
6
  62
     6
 10
1379.539
 20
226.000
 30
0.0
 40
20.000
  0
CIRCLE
  8
7
  62
     6
 10
1379.539
 20
226.000
 30
0.0
 40
37.000
  0
CIRCLE
  8
8
  62
     6
 10
1379.539
 20
226.000
 30
0.0
 40
21.000
  0
CIRCLE
  8
9
  62
     6
 10
1379.539
 20
226.000
 30
0.0
 40
21.000
  0
LINE
  8
3
  62
     5
 10
1378.478
 20
227.061
 30
0.0
 11
1380.600
 21
224.939
 31
0.0
  0
LINE
  8
3
  62
     5
 10
1378.478
 20
224.939
 30
0.0
 11
1380.600
 21
227.061
 31
0.0
  0
CIRCLE
  8
3
  62
     5
 10
1424.280
 20
174.000
 30
0.0
 40
24.800
  0
CIRCLE
  8
6
  62
     6
 10
1424.280
 20
174.000
 30
0.0
 40
17.000
  0
CIRCLE
  8
7
  62
     6
 10
1424.280
 20
174.000
 30
0.0
 40
30.000
  0
CIRCLE
  8
8
  62
     6
 10
1424.280
 20
174.000
 30
0.0
 40
17.000
  0
CIRCLE
  8
9
  62
     6
 10
1424.280
 20
174.000
 30
0.0
 40
17.000
  0
LINE
  8
3
  62
     5
 10
1423.219
 20
175.061
 30
0.0
 11
1425.341
 21
172.939
 31
0.0
  0
LINE
  8
3
  62
     5
 10
1423.219
 20
172.939
 30
0.0
 11
1425.341
 21
175.061
 31
0.0
  0
CIRCLE
  8
3
  62
     5
 10
1464.280
 20
226.000
 30
0.0
 40
22.588
  0
CIRCLE
  8
6
  62
     6
 10
1464.280
 20
226.000
 30
0.0
 40
17.000
  0
CIRCLE
  8
7
  62
     6
 10
1464.280
 20
226.000
 30
0.0
 40
30.000
  0
CIRCLE
  8
8
  62
     6
 10
1464.280
 20
226.000
 30
0.0
 40
17.000
  0
CIRCLE
  8
9
  62
     6
 10
1464.280
 20
226.000
 30
0.0
 40
17.000
  0
LINE
  8
3
  62
     5
 10
1463.219
 20
227.061
 30
0.0
 11
1465.341
 21
224.939
 31
0.0
  0
LINE
  8
3
  62
     5
 10
1463.219
 20
224.939
 30
0.0
 11
1465.341
 21
227.061
 31
0.0
  0
CIRCLE
  8
3
  62
     5
 10
1504.280
 20
174.000
 30
0.0
 40
20.577
  0
CIRCLE
  8
6
  62
     6
 10
1504.280
 20
174.000
 30
0.0
 40
14.000
  0
CIRCLE
  8
7
  62
     6
 10
1504.280
 20
174.000
 30
0.0
 40
30.000
  0
CIRCLE
  8
8
  62
     6
 10
1504.280
 20
174.000
 30
0.0
 40
17.000
  0
CIRCLE
  8
9
  62
     6
 10
1504.280
 20
174.000
 30
0.0
 40
17.000
  0
LINE
  8
3
  62
     5
 10
1503.219
 20
175.061
 30
0.0
 11
1505.341
 21
172.939
 31
0.0
  0
LINE
  8
3
  62
     5
 10
1503.219
 20
172.939
 30
0.0
 11
1505.341
 21
175.061
 31
0.0
  0
CIRCLE
  8
3
  62
     5
 10
1544.280
 20
226.000
 30
0.0
 40
18.748
  0
CIRCLE
  8
6
  62
     6
 10
1544.280
 20
226.000
 30
0.0
 40
14.000
  0
CIRCLE
  8
7
  62
     6
 10
1544.280
 20
226.000
 30
0.0
 40
30.000
  0
CIRCLE
  8
8
  62
     6
 10
1544.280
 20
226.000
 30
0.0
 40
17.000
  0
CIRCLE
  8
9
  62
     6
 10
1544.280
 20
226.000
 30
0.0
 40
17.000
  0
LINE
  8
3
  62
     5
 10
1543.219
 20
227.061
 30
0.0
 11
1545.341
 21
224.939
 31
0.0
  0
LINE
  8
3
  62
     5
 10
1543.219
 20
224.939
 30
0.0
 11
1545.341
 21
227.061
 31
0.0
  0
CIRCLE
  8
3
  62
     5
 10
1584.280
 20
174.000
 30
0.0
 40
17.086
  0
CIRCLE
  8
6
  62
     6
 10
1584.280
 20
174.000
 30
0.0
 40
13.000
  0
CIRCLE
  8
7
  62
     6
 10
1584.280
 20
174.000
 30
0.0
 40
30.000
  0
CIRCLE
  8
8
  62
     6
 10
1584.280
 20
174.000
 30
0.0
 40
17.000
  0
CIRCLE
  8
9
  62
     6
 10
1584.280
 20
174.000
 30
0.0
 40
17.000
  0
LINE
  8
3
  62
     5
 10
1583.219
 20
175.061
 30
0.0
 11
1585.341
 21
172.939
 31
0.0
  0
LINE
  8
3
  62
     5
 10
1583.219
 20
172.939
 30
0.0
 11
1585.341
 21
175.061
 31
0.0
  0
CIRCLE
  8
3
  62
     5
 10
1624.280
 20
226.000
 30
0.0
 40
15.574
  0
CIRCLE
  8
6
  62
     6
 10
1624.280
 20
226.000
 30
0.0
 40
13.000
  0
CIRCLE
  8
7
  62
     6
 10
1624.280
 20
226.000
 30
0.0
 40
30.000
  0
CIRCLE
  8
8
  62
     6
 10
1624.280
 20
226.000
 30
0.0
 40
17.000
  0
CIRCLE
  8
9
  62
     6
 10
1624.280
 20
226.000
 30
0.0
 40
17.000
  0
LINE
  8
3
  62
     5
 10
1623.219
 20
227.061
 30
0.0
 11
1625.341
 21
224.939
 31
0.0
  0
LINE
  8
3
  62
     5
 10
1623.219
 20
224.939
 30
0.0
 11
1625.341
 21
227.061
 31
0.0
  0
CIRCLE
  8
3
  62
     5
 10
1664.280
 20
174.000
 30
0.0
 40
14.200
  0
CIRCLE
  8
6
  62
     6
 10
1664.280
 20
174.000
 30
0.0
 40
11.000
  0
CIRCLE
  8
7
  62
     6
 10
1664.280
 20
174.000
 30
0.0
 40
26.000
  0
CIRCLE
  8
8
  62
     6
 10
1664.280
 20
174.000
 30
0.0
 40
12.000
  0
CIRCLE
  8
9
  62
     6
 10
1664.280
 20
174.000
 30
0.0
 40
12.000
  0
LINE
  8
3
  62
     5
 10
1663.219
 20
175.061
 30
0.0
 11
1665.341
 21
172.939
 31
0.0
  0
LINE
  8
3
  62
     5
 10
1663.219
 20
172.939
 30
0.0
 11
1665.341
 21
175.061
 31
0.0
  0
CIRCLE
  8
3
  62
     5
 10
1704.280
 20
226.000
 30
0.0
 40
13.414
  0
CIRCLE
  8
6
  62
     6
 10
1704.280
 20
226.000
 30
0.0
 40
11.000
  0
CIRCLE
  8
7
  62
     6
 10
1704.280
 20
226.000
 30
0.0
 40
26.000
  0
CIRCLE
  8
8
  62
     6
 10
1704.280
 20
226.000
 30
0.0
 40
12.000
  0
CIRCLE
  8
9
  62
     6
 10
1704.280
 20
226.000
 30
0.0
 40
12.000
  0
LINE
  8
3
  62
     5
 10
1703.219
 20
227.061
 30
0.0
 11
1705.341
 21
224.939
 31
0.0
  0
LINE
  8
3
  62
     5
 10
1703.219
 20
224.939
 30
0.0
 11
1705.341
 21
227.061
 31
0.0
  0
CIRCLE
  8
3
  62
     5
 10
1744.280
 20
174.000
 30
0.0
 40
12.673
  0
CIRCLE
  8
6
  62
     6
 10
1744.280
 20
174.000
 30
0.0
 40
10.000
  0
CIRCLE
  8
7
  62
     6
 10
1744.280
 20
174.000
 30
0.0
 40
26.000
  0
CIRCLE
  8
8
  62
     6
 10
1744.280
 20
174.000
 30
0.0
 40
12.000
  0
CIRCLE
  8
9
  62
     6
 10
1744.280
 20
174.000
 30
0.0
 40
12.000
  0
LINE
  8
3
  62
     5
 10
1743.219
 20
175.061
 30
0.0
 11
1745.341
 21
172.939
 31
0.0
  0
LINE
  8
3
  62
     5
 10
1743.219
 20
172.939
 30
0.0
 11
1745.341
 21
175.061
 31
0.0
  0
CIRCLE
  8
3
  62
     5
 10
1784.280
 20
226.000
 30
0.0
 40
11.973
  0
CIRCLE
  8
6
  62
     6
 10
1784.280
 20
226.000
 30
0.0
 40
10.000
  0
CIRCLE
  8
7
  62
     6
 10
1784.280
 20
226.000
 30
0.0
 40
26.000
  0
CIRCLE
  8
8
  62
     6
 10
1784.280
 20
226.000
 30
0.0
 40
12.000
  0
CIRCLE
  8
9
  62
     6
 10
1784.280
 20
226.000
 30
0.0
 40
12.000
  0
LINE
  8
3
  62
     5
 10
1783.219
 20
227.061
 30
0.0
 11
1785.341
 21
224.939
 31
0.0
  0
LINE
  8
3
  62
     5
 10
1783.219
 20
224.939
 30
0.0
 11
1785.341
 21
227.061
 31
0.0
  0
CIRCLE
  8
3
  62
     5
 10
1824.280
 20
174.000
 30
0.0
 40
11.312
  0
CIRCLE
  8
6
  62
     6
 10
1824.280
 20
174.000
 30
0.0
 40
10.000
  0
CIRCLE
  8
7
  62
     6
 10
1824.280
 20
174.000
 30
0.0
 40
26.000
  0
CIRCLE
  8
8
  62
     6
 10
1824.280
 20
174.000
 30
0.0
 40
12.000
  0
CIRCLE
  8
9
  62
     6
 10
1824.280
 20
174.000
 30
0.0
 40
12.000
  0
LINE
  8
3
  62
     5
 10
1823.219
 20
175.061
 30
0.0
 11
1825.341
 21
172.939
 31
0.0
  0
LINE
  8
3
  62
     5
 10
1823.219
 20
172.939
 30
0.0
 11
1825.341
 21
175.061
 31
0.0
  0
CIRCLE
  8
3
  62
     5
 10
1864.280
 20
226.000
 30
0.0
 40
10.689
  0
CIRCLE
  8
6
  62
     6
 10
1864.280
 20
226.000
 30
0.0
 40
10.000
  0
CIRCLE
  8
7
  62
     6
 10
1864.280
 20
226.000
 30
0.0
 40
26.000
  0
CIRCLE
  8
8
  62
     6
 10
1864.280
 20
226.000
 30
0.0
 40
12.000
  0
CIRCLE
  8
9
  62
     6
 10
1864.280
 20
226.000
 30
0.0
 40
12.000
  0
LINE
  8
3
  62
     5
 10
1863.219
 20
227.061
 30
0.0
 11
1865.341
 21
224.939
 31
0.0
  0
LINE
  8
3
  62
     5
 10
1863.219
 20
224.939
 30
0.0
 11
1865.341
 21
227.061
 31
0.0
  0
CIRCLE
  8
3
  62
     5
 10
1904.280
 20
174.000
 30
0.0
 40
10.100
  0
CIRCLE
  8
6
  62
     6
 10
1904.280
 20
174.000
 30
0.0
 40
8.000
  0
CIRCLE
  8
7
  62
     6
 10
1904.280
 20
174.000
 30
0.0
 40
22.000
  0
CIRCLE
  8
8
  62
     6
 10
1904.280
 20
174.000
 30
0.0
 40
10.000
  0
CIRCLE
  8
9
  62
     6
 10
1904.280
 20
174.000
 30
0.0
 40
10.000
  0
LINE
  8
3
  62
     5
 10
1903.219
 20
175.061
 30
0.0
 11
1905.341
 21
172.939
 31
0.0
  0
LINE
  8
3
  62
     5
 10
1903.219
 20
172.939
 30
0.0
 11
1905.341
 21
175.061
 31
0.0
  0
CIRCLE
  8
3
  62
     5
 10
1944.280
 20
226.000
 30
0.0
 40
9.382
  0
CIRCLE
  8
6
  62
     6
 10
1944.280
 20
226.000
 30
0.0
 40
8.000
  0
CIRCLE
  8
7
  62
     6
 10
1944.280
 20
226.000
 30
0.0
 40
22.000
  0
CIRCLE
  8
8
  62
     6
 10
1944.280
 20
226.000
 30
0.0
 40
10.000
  0
CIRCLE
  8
9
  62
     6
 10
1944.280
 20
226.000
 30
0.0
 40
10.000
  0
LINE
  8
3
  62
     5
 10
1943.219
 20
227.061
 30
0.0
 11
1945.341
 21
224.939
 31
0.0
  0
LINE
  8
3
  62
     5
 10
1943.219
 20
224.939
 30
0.0
 11
1945.341
 21
227.061
 31
0.0
  0
CIRCLE
  8
3
  62
     5
 10
1984.280
 20
174.000
 30
0.0
 40
8.715
  0
CIRCLE
  8
6
  62
     6
 10
1984.280
 20
174.000
 30
0.0
 40
8.000
  0
CIRCLE
  8
7
  62
     6
 10
1984.280
 20
174.000
 30
0.0
 40
22.000
  0
CIRCLE
  8
8
  62
     6
 10
1984.280
 20
174.000
 30
0.0
 40
10.000
  0
CIRCLE
  8
9
  62
     6
 10
1984.280
 20
174.000
 30
0.0
 40
10.000
  0
LINE
  8
3
  62
     5
 10
1983.219
 20
175.061
 30
0.0
 11
1985.341
 21
172.939
 31
0.0
  0
LINE
  8
3
  62
     5
 10
1983.219
 20
172.939
 30
0.0
 11
1985.341
 21
175.061
 31
0.0
  0
CIRCLE
  8
3
  62
     5
 10
2024.280
 20
226.000
 30
0.0
 40
8.098
  0
CIRCLE
  8
6
  62
     6
 10
2024.280
 20
226.000
 30
0.0
 40
8.000
  0
CIRCLE
  8
7
  62
     6
 10
2024.280
 20
226.000
 30
0.0
 40
22.000
  0
CIRCLE
  8
8
  62
     6
 10
2024.280
 20
226.000
 30
0.0
 40
10.000
  0
CIRCLE
  8
9
  62
     6
 10
2024.280
 20
226.000
 30
0.0
 40
10.000
  0
LINE
  8
3
  62
     5
 10
2023.219
 20
227.061
 30
0.0
 11
2025.341
 21
224.939
 31
0.0
  0
LINE
  8
3
  62
     5
 10
2023.219
 20
224.939
 30
0.0
 11
2025.341
 21
227.061
 31
0.0
  0
LINE
  8
5
  62
     8
 10
100.000
 20
400.000
 30
0.0
 11
2100.000
 21
400.000
 31
0.0
  0
TEXT
  8
1
  62
     7
 10
2110.000
 20
390.000
 30
0.0
 40
20.000
  1
Bourdun 8
  7
STANDARD
  0
LINE
  8
5
  62
     8
 10
100.000
 20
420.000
 30
0.0
 11
2100.000
 21
420.000
 31
0.0
  0
LINE
  8
5
  62
     8
 10
100.000
 20
380.000
 30
0.0
 11
2100.000
 21
380.000
 31
0.0
  0
CIRCLE
  8
3
  62
     5
 10
281.181
 20
400.000
 30
0.0
 40
59.000
  0
LINE
  8
3
  62
     5
 10
280.120
 20
401.061
 30
0.0
 11
282.242
 21
398.939
 31
0.0
  0
LINE
  8
3
  62
     5
 10
280.120
 20
398.939
 30
0.0
 11
282.242
 21
401.061
 31
0.0
  0
CIRCLE
  8
3
  62
     5
 10
437.946
 20
400.000
 30
0.0
 40
54.210
  0
LINE
  8
3
  62
     5
 10
436.886
 20
401.061
 30
0.0
 11
439.007
 21
398.939
 31
0.0
  0
LINE
  8
3
  62
     5
 10
436.886
 20
398.939
 30
0.0
 11
439.007
 21
401.061
 31
0.0
  0
CIRCLE
  8
3
  62
     5
 10
583.934
 20
400.000
 30
0.0
 40
49.809
  0
LINE
  8
3
  62
     5
 10
582.873
 20
401.061
 30
0.0
 11
584.995
 21
398.939
 31
0.0
  0
LINE
  8
3
  62
     5
 10
582.873
 20
398.939
 30
0.0
 11
584.995
 21
401.061
 31
0.0
  0
CIRCLE
  8
3
  62
     5
 10
719.945
 20
400.000
 30
0.0
 40
45.766
  0
LINE
  8
3
  62
     5
 10
718.884
 20
401.061
 30
0.0
 11
721.006
 21
398.939
 31
0.0
  0
LINE
  8
3
  62
     5
 10
718.884
 20
398.939
 30
0.0
 11
721.006
 21
401.061
 31
0.0
  0
CIRCLE
  8
3
  62
     5
 10
846.720
 20
400.000
 30
0.0
 40
42.050
  0
LINE
  8
3
  62
     5
 10
845.660
 20
401.061
 30
0.0
 11
847.781
 21
398.939
 31
0.0
  0
LINE
  8
3
  62
     5
 10
845.660
 20
398.939
 30
0.0
 11
847.781
 21
401.061
 31
0.0
  0
CIRCLE
  8
3
  62
     5
 10
963.443
 20
400.000
 30
0.0
 40
38.637
  0
LINE
  8
3
  62
     5
 10
962.382
 20
401.061
 30
0.0
 11
964.503
 21
398.939
 31
0.0
  0
LINE
  8
3
  62
     5
 10
962.382
 20
398.939
 30
0.0
 11
964.503
 21
401.061
 31
0.0
  0
CIRCLE
  8
3
  62
     5
 10
1064.888
 20
380.000
 30
0.0
 40
35.500
  0
LINE
  8
3
  62
     5
 10
1039.786
 20
354.898
 30
0.0
 11
1039.786
 21
309.898
 31
0.0
  0
LINE
  8
3
  62
     5
 10
1089.990
 20
354.898
 30
0.0
 11
1089.990
 21
309.898
 31
0.0
  0
CIRCLE
  8
6
  62
     6
 10
1064.888
 20
380.000
 30
0.0
 40
24.000
  0
CIRCLE
  8
7
  62
     6
 10
1064.888
 20
402.000
 30
0.0
 40
37.000
  0
CIRCLE
  8
8
  62
     6
 10
1064.888
 20
402.000
 30
0.0
 40
21.000
  0
CIRCLE
  8
9
  62
     6
 10
1064.888
 20
402.000
 30
0.0
 40
21.000
  0
CIRCLE
  8
7
  62
     6
 10
1064.888
 20
358.000
 30
0.0
 40
37.000
  0
CIRCLE
  8
8
  62
     6
 10
1064.888
 20
358.000
 30
0.0
 40
21.000
  0
CIRCLE
  8
9
  62
     6
 10
1064.888
 20
358.000
 30
0.0
 40
21.000
  0
LINE
  8
3
  62
     5
 10
1063.827
 20
381.061
 30
0.0
 11
1065.949
 21
378.939
 31
0.0
  0
LINE
  8
3
  62
     5
 10
1063.827
 20
378.939
 30
0.0
 11
1065.949
 21
381.061
 31
0.0
  0
CIRCLE
  8
3
  62
     5
 10
1151.459
 20
420.000
 30
0.0
 40
32.779
  0
LINE
  8
3
  62
     5
 10
1128.281
 20
396.822
 30
0.0
 11
1128.281
 21
354.762
 31
0.0
  0
LINE
  8
3
  62
     5
 10
1174.637
 20
396.822
 30
0.0
 11
1174.637
 21
354.762
 31
0.0
  0
CIRCLE
  8
6
  62
     6
 10
1151.459
 20
420.000
 30
0.0
 40
24.000
  0
CIRCLE
  8
7
  62
     6
 10
1151.459
 20
442.000
 30
0.0
 40
37.000
  0
CIRCLE
  8
8
  62
     6
 10
1151.459
 20
442.000
 30
0.0
 40
21.000
  0
CIRCLE
  8
9
  62
     6
 10
1151.459
 20
442.000
 30
0.0
 40
21.000
  0
CIRCLE
  8
7
  62
     6
 10
1151.459
 20
398.000
 30
0.0
 40
37.000
  0
CIRCLE
  8
8
  62
     6
 10
1151.459
 20
398.000
 30
0.0
 40
21.000
  0
CIRCLE
  8
9
  62
     6
 10
1151.459
 20
398.000
 30
0.0
 40
21.000
  0
LINE
  8
3
  62
     5
 10
1150.398
 20
421.061
 30
0.0
 11
1152.519
 21
418.939
 31
0.0
  0
LINE
  8
3
  62
     5
 10
1150.398
 20
418.939
 30
0.0
 11
1152.519
 21
421.061
 31
0.0
  0
CIRCLE
  8
3
  62
     5
 10
1227.937
 20
380.000
 30
0.0
 40
30.266
  0
LINE
  8
3
  62
     5
 10
1206.535
 20
358.598
 30
0.0
 11
1206.535
 21
319.287
 31
0.0
  0
LINE
  8
3
  62
     5
 10
1249.338
 20
358.598
 30
0.0
 11
1249.338
 21
319.287
 31
0.0
  0
CIRCLE
  8
6
  62
     6
 10
1227.937
 20
380.000
 30
0.0
 40
22.000
  0
CIRCLE
  8
7
  62
     6
 10
1227.937
 20
402.000
 30
0.0
 40
37.000
  0
CIRCLE
  8
8
  62
     6
 10
1227.937
 20
402.000
 30
0.0
 40
21.000
  0
CIRCLE
  8
9
  62
     6
 10
1227.937
 20
402.000
 30
0.0
 40
21.000
  0
CIRCLE
  8
7
  62
     6
 10
1227.937
 20
358.000
 30
0.0
 40
37.000
  0
CIRCLE
  8
8
  62
     6
 10
1227.937
 20
358.000
 30
0.0
 40
21.000
  0
CIRCLE
  8
9
  62
     6
 10
1227.937
 20
358.000
 30
0.0
 40
21.000
  0
LINE
  8
3
  62
     5
 10
1226.876
 20
381.061
 30
0.0
 11
1228.998
 21
378.939
 31
0.0
  0
LINE
  8
3
  62
     5
 10
1226.876
 20
378.939
 30
0.0
 11
1228.998
 21
381.061
 31
0.0
  0
CIRCLE
  8
3
  62
     5
 10
1294.907
 20
420.000
 30
0.0
 40
27.946
  0
LINE
  8
3
  62
     5
 10
1275.146
 20
400.239
 30
0.0
 11
1275.146
 21
363.497
 31
0.0
  0
LINE
  8
3
  62
     5
 10
1314.668
 20
400.239
 30
0.0
 11
1314.668
 21
363.497
 31
0.0
  0
CIRCLE
  8
6
  62
     6
 10
1294.907
 20
420.000
 30
0.0
 40
22.000
  0
CIRCLE
  8
7
  62
     6
 10
1294.907
 20
442.000
 30
0.0
 40
37.000
  0
CIRCLE
  8
8
  62
     6
 10
1294.907
 20
442.000
 30
0.0
 40
21.000
  0
CIRCLE
  8
9
  62
     6
 10
1294.907
 20
442.000
 30
0.0
 40
21.000
  0
CIRCLE
  8
7
  62
     6
 10
1294.907
 20
398.000
 30
0.0
 40
37.000
  0
CIRCLE
  8
8
  62
     6
 10
1294.907
 20
398.000
 30
0.0
 40
21.000
  0
CIRCLE
  8
9
  62
     6
 10
1294.907
 20
398.000
 30
0.0
 40
21.000
  0
LINE
  8
3
  62
     5
 10
1293.846
 20
421.061
 30
0.0
 11
1295.968
 21
418.939
 31
0.0
  0
LINE
  8
3
  62
     5
 10
1293.846
 20
418.939
 30
0.0
 11
1295.968
 21
421.061
 31
0.0
  0
CIRCLE
  8
3
  62
     5
 10
1352.809
 20
380.000
 30
0.0
 40
25.804
  0
LINE
  8
3
  62
     5
 10
1334.563
 20
361.754
 30
0.0
 11
1334.563
 21
327.412
 31
0.0
  0
LINE
  8
3
  62
     5
 10
1371.056
 20
361.754
 30
0.0
 11
1371.056
 21
327.412
 31
0.0
  0
CIRCLE
  8
6
  62
     6
 10
1352.809
 20
380.000
 30
0.0
 40
20.000
  0
CIRCLE
  8
7
  62
     6
 10
1352.809
 20
380.000
 30
0.0
 40
37.000
  0
CIRCLE
  8
8
  62
     6
 10
1352.809
 20
380.000
 30
0.0
 40
21.000
  0
CIRCLE
  8
9
  62
     6
 10
1352.809
 20
380.000
 30
0.0
 40
21.000
  0
LINE
  8
3
  62
     5
 10
1351.749
 20
381.061
 30
0.0
 11
1353.870
 21
378.939
 31
0.0
  0
LINE
  8
3
  62
     5
 10
1351.749
 20
378.939
 30
0.0
 11
1353.870
 21
381.061
 31
0.0
  0
CIRCLE
  8
3
  62
     5
 10
1401.909
 20
420.000
 30
0.0
 40
23.826
  0
LINE
  8
3
  62
     5
 10
1385.062
 20
403.152
 30
0.0
 11
1385.062
 21
371.055
 31
0.0
  0
LINE
  8
3
  62
     5
 10
1418.757
 20
403.152
 30
0.0
 11
1418.757
 21
371.055
 31
0.0
  0
CIRCLE
  8
6
  62
     6
 10
1401.909
 20
420.000
 30
0.0
 40
20.000
  0
CIRCLE
  8
7
  62
     6
 10
1401.909
 20
420.000
 30
0.0
 40
37.000
  0
CIRCLE
  8
8
  62
     6
 10
1401.909
 20
420.000
 30
0.0
 40
21.000
  0
CIRCLE
  8
9
  62
     6
 10
1401.909
 20
420.000
 30
0.0
 40
21.000
  0
LINE
  8
3
  62
     5
 10
1400.849
 20
421.061
 30
0.0
 11
1402.970
 21
418.939
 31
0.0
  0
LINE
  8
3
  62
     5
 10
1400.849
 20
418.939
 30
0.0
 11
1402.970
 21
421.061
 31
0.0
  0
CIRCLE
  8
3
  62
     5
 10
1444.280
 20
380.000
 30
0.0
 40
22.000
  0
LINE
  8
3
  62
     5
 10
1428.723
 20
364.444
 30
0.0
 11
1428.723
 21
334.444
 31
0.0
  0
LINE
  8
3
  62
     5
 10
1459.836
 20
364.444
 30
0.0
 11
1459.836
 21
334.444
 31
0.0
  0
CIRCLE
  8
6
  62
     6
 10
1444.280
 20
380.000
 30
0.0
 40
17.000
  0
CIRCLE
  8
7
  62
     6
 10
1444.280
 20
380.000
 30
0.0
 40
30.000
  0
CIRCLE
  8
8
  62
     6
 10
1444.280
 20
380.000
 30
0.0
 40
17.000
  0
CIRCLE
  8
9
  62
     6
 10
1444.280
 20
380.000
 30
0.0
 40
17.000
  0
LINE
  8
3
  62
     5
 10
1443.219
 20
381.061
 30
0.0
 11
1445.341
 21
378.939
 31
0.0
  0
LINE
  8
3
  62
     5
 10
1443.219
 20
378.939
 30
0.0
 11
1445.341
 21
381.061
 31
0.0
  0
CIRCLE
  8
3
  62
     5
 10
1484.280
 20
420.000
 30
0.0
 40
20.404
  0
LINE
  8
3
  62
     5
 10
1469.852
 20
405.572
 30
0.0
 11
1469.852
 21
376.470
 31
0.0
  0
LINE
  8
3
  62
     5
 10
1498.707
 20
405.572
 30
0.0
 11
1498.707
 21
376.470
 31
0.0
  0
CIRCLE
  8
6
  62
     6
 10
1484.280
 20
420.000
 30
0.0
 40
17.000
  0
CIRCLE
  8
7
  62
     6
 10
1484.280
 20
420.000
 30
0.0
 40
30.000
  0
CIRCLE
  8
8
  62
     6
 10
1484.280
 20
420.000
 30
0.0
 40
17.000
  0
CIRCLE
  8
9
  62
     6
 10
1484.280
 20
420.000
 30
0.0
 40
17.000
  0
LINE
  8
3
  62
     5
 10
1483.219
 20
421.061
 30
0.0
 11
1485.341
 21
418.939
 31
0.0
  0
LINE
  8
3
  62
     5
 10
1483.219
 20
418.939
 30
0.0
 11
1485.341
 21
421.061
 31
0.0
  0
CIRCLE
  8
3
  62
     5
 10
1524.280
 20
380.000
 30
0.0
 40
18.923
  0
LINE
  8
3
  62
     5
 10
1510.899
 20
366.619
 30
0.0
 11
1510.899
 21
338.388
 31
0.0
  0
LINE
  8
3
  62
     5
 10
1537.660
 20
366.619
 30
0.0
 11
1537.660
 21
338.388
 31
0.0
  0
CIRCLE
  8
6
  62
     6
 10
1524.280
 20
380.000
 30
0.0
 40
14.000
  0
CIRCLE
  8
7
  62
     6
 10
1524.280
 20
380.000
 30
0.0
 40
30.000
  0
CIRCLE
  8
8
  62
     6
 10
1524.280
 20
380.000
 30
0.0
 40
17.000
  0
CIRCLE
  8
9
  62
     6
 10
1524.280
 20
380.000
 30
0.0
 40
17.000
  0
LINE
  8
3
  62
     5
 10
1523.219
 20
381.061
 30
0.0
 11
1525.341
 21
378.939
 31
0.0
  0
LINE
  8
3
  62
     5
 10
1523.219
 20
378.939
 30
0.0
 11
1525.341
 21
381.061
 31
0.0
  0
CIRCLE
  8
3
  62
     5
 10
1564.280
 20
420.000
 30
0.0
 40
17.550
  0
LINE
  8
3
  62
     5
 10
1551.870
 20
407.590
 30
0.0
 11
1551.870
 21
380.204
 31
0.0
  0
LINE
  8
3
  62
     5
 10
1576.690
 20
407.590
 30
0.0
 11
1576.690
 21
380.204
 31
0.0
  0
CIRCLE
  8
6
  62
     6
 10
1564.280
 20
420.000
 30
0.0
 40
14.000
  0
CIRCLE
  8
7
  62
     6
 10
1564.280
 20
420.000
 30
0.0
 40
30.000
  0
CIRCLE
  8
8
  62
     6
 10
1564.280
 20
420.000
 30
0.0
 40
17.000
  0
CIRCLE
  8
9
  62
     6
 10
1564.280
 20
420.000
 30
0.0
 40
17.000
  0
LINE
  8
3
  62
     5
 10
1563.219
 20
421.061
 30
0.0
 11
1565.341
 21
418.939
 31
0.0
  0
LINE
  8
3
  62
     5
 10
1563.219
 20
418.939
 30
0.0
 11
1565.341
 21
421.061
 31
0.0
  0
CIRCLE
  8
3
  62
     5
 10
1604.280
 20
380.000
 30
0.0
 40
16.276
  0
LINE
  8
3
  62
     5
 10
1592.771
 20
368.491
 30
0.0
 11
1592.771
 21
341.924
 31
0.0
  0
LINE
  8
3
  62
     5
 10
1615.789
 20
368.491
 30
0.0
 11
1615.789
 21
341.924
 31
0.0
  0
CIRCLE
  8
6
  62
     6
 10
1604.280
 20
380.000
 30
0.0
 40
13.000
  0
CIRCLE
  8
7
  62
     6
 10
1604.280
 20
380.000
 30
0.0
 40
30.000
  0
CIRCLE
  8
8
  62
     6
 10
1604.280
 20
380.000
 30
0.0
 40
17.000
  0
CIRCLE
  8
9
  62
     6
 10
1604.280
 20
380.000
 30
0.0
 40
17.000
  0
LINE
  8
3
  62
     5
 10
1603.219
 20
381.061
 30
0.0
 11
1605.341
 21
378.939
 31
0.0
  0
LINE
  8
3
  62
     5
 10
1603.219
 20
378.939
 30
0.0
 11
1605.341
 21
381.061
 31
0.0
  0
CIRCLE
  8
3
  62
     5
 10
1644.280
 20
420.000
 30
0.0
 40
15.095
  0
LINE
  8
3
  62
     5
 10
1633.606
 20
409.326
 30
0.0
 11
1633.606
 21
383.555
 31
0.0
  0
LINE
  8
3
  62
     5
 10
1654.954
 20
409.326
 30
0.0
 11
1654.954
 21
383.555
 31
0.0
  0
CIRCLE
  8
6
  62
     6
 10
1644.280
 20
420.000
 30
0.0
 40
13.000
  0
CIRCLE
  8
7
  62
     6
 10
1644.280
 20
420.000
 30
0.0
 40
30.000
  0
CIRCLE
  8
8
  62
     6
 10
1644.280
 20
420.000
 30
0.0
 40
17.000
  0
CIRCLE
  8
9
  62
     6
 10
1644.280
 20
420.000
 30
0.0
 40
17.000
  0
LINE
  8
3
  62
     5
 10
1643.219
 20
421.061
 30
0.0
 11
1645.341
 21
418.939
 31
0.0
  0
LINE
  8
3
  62
     5
 10
1643.219
 20
418.939
 30
0.0
 11
1645.341
 21
421.061
 31
0.0
  0
CIRCLE
  8
3
  62
     5
 10
1684.280
 20
380.000
 30
0.0
 40
14.000
  0
LINE
  8
3
  62
     5
 10
1674.380
 20
370.101
 30
0.0
 11
1674.380
 21
345.101
 31
0.0
  0
LINE
  8
3
  62
     5
 10
1694.179
 20
370.101
 30
0.0
 11
1694.179
 21
345.101
 31
0.0
  0
CIRCLE
  8
6
  62
     6
 10
1684.280
 20
380.000
 30
0.0
 40
11.000
  0
CIRCLE
  8
7
  62
     6
 10
1684.280
 20
380.000
 30
0.0
 40
26.000
  0
CIRCLE
  8
8
  62
     6
 10
1684.280
 20
380.000
 30
0.0
 40
12.000
  0
CIRCLE
  8
9
  62
     6
 10
1684.280
 20
380.000
 30
0.0
 40
12.000
  0
LINE
  8
3
  62
     5
 10
1683.219
 20
381.061
 30
0.0
 11
1685.341
 21
378.939
 31
0.0
  0
LINE
  8
3
  62
     5
 10
1683.219
 20
378.939
 30
0.0
 11
1685.341
 21
381.061
 31
0.0
  0
CIRCLE
  8
3
  62
     5
 10
1724.280
 20
420.000
 30
0.0
 40
13.124
  0
LINE
  8
3
  62
     5
 10
1715.000
 20
410.720
 30
0.0
 11
1715.000
 21
385.720
 31
0.0
  0
LINE
  8
3
  62
     5
 10
1733.560
 20
410.720
 30
0.0
 11
1733.560
 21
385.720
 31
0.0
  0
CIRCLE
  8
6
  62
     6
 10
1724.280
 20
420.000
 30
0.0
 40
11.000
  0
CIRCLE
  8
7
  62
     6
 10
1724.280
 20
420.000
 30
0.0
 40
26.000
  0
CIRCLE
  8
8
  62
     6
 10
1724.280
 20
420.000
 30
0.0
 40
12.000
  0
CIRCLE
  8
9
  62
     6
 10
1724.280
 20
420.000
 30
0.0
 40
12.000
  0
LINE
  8
3
  62
     5
 10
1723.219
 20
421.061
 30
0.0
 11
1725.341
 21
418.939
 31
0.0
  0
LINE
  8
3
  62
     5
 10
1723.219
 20
418.939
 30
0.0
 11
1725.341
 21
421.061
 31
0.0
  0
CIRCLE
  8
3
  62
     5
 10
1764.280
 20
380.000
 30
0.0
 40
12.302
  0
LINE
  8
3
  62
     5
 10
1755.581
 20
371.301
 30
0.0
 11
1755.581
 21
346.301
 31
0.0
  0
LINE
  8
3
  62
     5
 10
1772.979
 20
371.301
 30
0.0
 11
1772.979
 21
346.301
 31
0.0
  0
CIRCLE
  8
6
  62
     6
 10
1764.280
 20
380.000
 30
0.0
 40
10.000
  0
CIRCLE
  8
7
  62
     6
 10
1764.280
 20
380.000
 30
0.0
 40
26.000
  0
CIRCLE
  8
8
  62
     6
 10
1764.280
 20
380.000
 30
0.0
 40
12.000
  0
CIRCLE
  8
9
  62
     6
 10
1764.280
 20
380.000
 30
0.0
 40
12.000
  0
LINE
  8
3
  62
     5
 10
1763.219
 20
381.061
 30
0.0
 11
1765.341
 21
378.939
 31
0.0
  0
LINE
  8
3
  62
     5
 10
1763.219
 20
378.939
 30
0.0
 11
1765.341
 21
381.061
 31
0.0
  0
CIRCLE
  8
3
  62
     5
 10
1804.280
 20
420.000
 30
0.0
 40
11.533
  0
LINE
  8
3
  62
     5
 10
1796.125
 20
411.845
 30
0.0
 11
1796.125
 21
386.845
 31
0.0
  0
LINE
  8
3
  62
     5
 10
1812.435
 20
411.845
 30
0.0
 11
1812.435
 21
386.845
 31
0.0
  0
CIRCLE
  8
6
  62
     6
 10
1804.280
 20
420.000
 30
0.0
 40
10.000
  0
CIRCLE
  8
7
  62
     6
 10
1804.280
 20
420.000
 30
0.0
 40
26.000
  0
CIRCLE
  8
8
  62
     6
 10
1804.280
 20
420.000
 30
0.0
 40
12.000
  0
CIRCLE
  8
9
  62
     6
 10
1804.280
 20
420.000
 30
0.0
 40
12.000
  0
LINE
  8
3
  62
     5
 10
1803.219
 20
421.061
 30
0.0
 11
1805.341
 21
418.939
 31
0.0
  0
LINE
  8
3
  62
     5
 10
1803.219
 20
418.939
 30
0.0
 11
1805.341
 21
421.061
 31
0.0
  0
CIRCLE
  8
3
  62
     5
 10
1844.280
 20
380.000
 30
0.0
 40
10.811
  0
LINE
  8
3
  62
     5
 10
1836.635
 20
372.356
 30
0.0
 11
1836.635
 21
347.356
 31
0.0
  0
LINE
  8
3
  62
     5
 10
1851.924
 20
372.356
 30
0.0
 11
1851.924
 21
347.356
 31
0.0
  0
CIRCLE
  8
6
  62
     6
 10
1844.280
 20
380.000
 30
0.0
 40
10.000
  0
CIRCLE
  8
7
  62
     6
 10
1844.280
 20
380.000
 30
0.0
 40
26.000
  0
CIRCLE
  8
8
  62
     6
 10
1844.280
 20
380.000
 30
0.0
 40
12.000
  0
CIRCLE
  8
9
  62
     6
 10
1844.280
 20
380.000
 30
0.0
 40
12.000
  0
LINE
  8
3
  62
     5
 10
1843.219
 20
381.061
 30
0.0
 11
1845.341
 21
378.939
 31
0.0
  0
LINE
  8
3
  62
     5
 10
1843.219
 20
378.939
 30
0.0
 11
1845.341
 21
381.061
 31
0.0
  0
CIRCLE
  8
3
  62
     5
 10
1884.280
 20
420.000
 30
0.0
 40
10.134
  0
LINE
  8
3
  62
     5
 10
1877.114
 20
412.834
 30
0.0
 11
1877.114
 21
387.834
 31
0.0
  0
LINE
  8
3
  62
     5
 10
1891.446
 20
412.834
 30
0.0
 11
1891.446
 21
387.834
 31
0.0
  0
CIRCLE
  8
6
  62
     6
 10
1884.280
 20
420.000
 30
0.0
 40
10.000
  0
CIRCLE
  8
7
  62
     6
 10
1884.280
 20
420.000
 30
0.0
 40
26.000
  0
CIRCLE
  8
8
  62
     6
 10
1884.280
 20
420.000
 30
0.0
 40
12.000
  0
CIRCLE
  8
9
  62
     6
 10
1884.280
 20
420.000
 30
0.0
 40
12.000
  0
LINE
  8
3
  62
     5
 10
1883.219
 20
421.061
 30
0.0
 11
1885.341
 21
418.939
 31
0.0
  0
LINE
  8
3
  62
     5
 10
1883.219
 20
418.939
 30
0.0
 11
1885.341
 21
421.061
 31
0.0
  0
CIRCLE
  8
3
  62
     5
 10
1924.280
 20
380.000
 30
0.0
 40
9.500
  0
LINE
  8
3
  62
     5
 10
1917.562
 20
373.282
 30
0.0
 11
1917.562
 21
348.282
 31
0.0
  0
LINE
  8
3
  62
     5
 10
1930.997
 20
373.282
 30
0.0
 11
1930.997
 21
348.282
 31
0.0
  0
CIRCLE
  8
6
  62
     6
 10
1924.280
 20
380.000
 30
0.0
 40
8.000
  0
CIRCLE
  8
7
  62
     6
 10
1924.280
 20
380.000
 30
0.0
 40
22.000
  0
CIRCLE
  8
8
  62
     6
 10
1924.280
 20
380.000
 30
0.0
 40
10.000
  0
CIRCLE
  8
9
  62
     6
 10
1924.280
 20
380.000
 30
0.0
 40
10.000
  0
LINE
  8
3
  62
     5
 10
1923.219
 20
381.061
 30
0.0
 11
1925.341
 21
378.939
 31
0.0
  0
LINE
  8
3
  62
     5
 10
1923.219
 20
378.939
 30
0.0
 11
1925.341
 21
381.061
 31
0.0
  0
CIRCLE
  8
3
  62
     5
 10
1964.280
 20
420.000
 30
0.0
 40
9.029
  0
LINE
  8
3
  62
     5
 10
1957.896
 20
413.616
 30
0.0
 11
1957.896
 21
388.616
 31
0.0
  0
LINE
  8
3
  62
     5
 10
1970.664
 20
413.616
 30
0.0
 11
1970.664
 21
388.616
 31
0.0
  0
CIRCLE
  8
6
  62
     6
 10
1964.280
 20
420.000
 30
0.0
 40
8.000
  0
CIRCLE
  8
7
  62
     6
 10
1964.280
 20
420.000
 30
0.0
 40
22.000
  0
CIRCLE
  8
8
  62
     6
 10
1964.280
 20
420.000
 30
0.0
 40
10.000
  0
CIRCLE
  8
9
  62
     6
 10
1964.280
 20
420.000
 30
0.0
 40
10.000
  0
LINE
  8
3
  62
     5
 10
1963.219
 20
421.061
 30
0.0
 11
1965.341
 21
418.939
 31
0.0
  0
LINE
  8
3
  62
     5
 10
1963.219
 20
418.939
 30
0.0
 11
1965.341
 21
421.061
 31
0.0
  0
CIRCLE
  8
3
  62
     5
 10
2004.280
 20
380.000
 30
0.0
 40
8.581
  0
LINE
  8
3
  62
     5
 10
1998.212
 20
373.933
 30
0.0
 11
1998.212
 21
348.933
 31
0.0
  0
LINE
  8
3
  62
     5
 10
2010.347
 20
373.933
 30
0.0
 11
2010.347
 21
348.933
 31
0.0
  0
CIRCLE
  8
6
  62
     6
 10
2004.280
 20
380.000
 30
0.0
 40
8.000
  0
CIRCLE
  8
7
  62
     6
 10
2004.280
 20
380.000
 30
0.0
 40
22.000
  0
CIRCLE
  8
8
  62
     6
 10
2004.280
 20
380.000
 30
0.0
 40
10.000
  0
CIRCLE
  8
9
  62
     6
 10
2004.280
 20
380.000
 30
0.0
 40
10.000
  0
LINE
  8
3
  62
     5
 10
2003.219
 20
381.061
 30
0.0
 11
2005.341
 21
378.939
 31
0.0
  0
LINE
  8
3
  62
     5
 10
2003.219
 20
378.939
 30
0.0
 11
2005.341
 21
381.061
 31
0.0
  0
CIRCLE
  8
3
  62
     5
 10
2044.280
 20
420.000
 30
0.0
 40
8.155
  0
LINE
  8
3
  62
     5
 10
2038.514
 20
414.234
 30
0.0
 11
2038.514
 21
389.234
 31
0.0
  0
LINE
  8
3
  62
     5
 10
2050.046
 20
414.234
 30
0.0
 11
2050.046
 21
389.234
 31
0.0
  0
CIRCLE
  8
6
  62
     6
 10
2044.280
 20
420.000
 30
0.0
 40
8.000
  0
CIRCLE
  8
7
  62
     6
 10
2044.280
 20
420.000
 30
0.0
 40
22.000
  0
CIRCLE
  8
8
  62
     6
 10
2044.280
 20
420.000
 30
0.0
 40
10.000
  0
CIRCLE
  8
9
  62
     6
 10
2044.280
 20
420.000
 30
0.0
 40
10.000
  0
LINE
  8
3
  62
     5
 10
2043.219
 20
421.061
 30
0.0
 11
2045.341
 21
418.939
 31
0.0
  0
LINE
  8
3
  62
     5
 10
2043.219
 20
418.939
 30
0.0
 11
2045.341
 21
421.061
 31
0.0
  0
LINE
  8
5
  62
     8
 10
100.000
 20
600.000
 30
0.0
 11
2100.000
 21
600.000
 31
0.0
  0
TEXT
  8
1
  62
     7
 10
2110.000
 20
590.000
 30
0.0
 40
20.000
  1
Bourdun 16
  7
STANDARD
  0
POLYLINE
  8
4
 62
     5
 66
     1
 10
0.0
 20
0.0
 30
0.0
 70
     1
  0
VERTEX
  8
4
 10
2615.500
 20
710.500
 30
0.0
  0
VERTEX
  8
4
 10
2784.500
 20
710.500
 30
0.0
  0
VERTEX
  8
4
 10
2784.500
 20
489.500
 30
0.0
  0
VERTEX
  8
4
 10
2615.500
 20
489.500
 30
0.0
  0
SEQEND
  8
4
  0
POLYLINE
  8
4
 62
     5
 66
     1
 10
0.0
 20
0.0
 30
0.0
 70
     1
  0
VERTEX
  8
4
 10
2633.500
 20
692.500
 30
0.0
  0
VERTEX
  8
4
 10
2766.500
 20
692.500
 30
0.0
  0
VERTEX
  8
4
 10
2766.500
 20
507.500
 30
0.0
  0
VERTEX
  8
4
 10
2633.500
 20
507.500
 30
0.0
  0
SEQEND
  8
4
  0
POLYLINE
  8
4
 62
     5
 66
     1
 10
0.0
 20
0.0
 30
0.0
 70
     1
  0
VERTEX
  8
4
 10
2615.500
 20
489.500
 30
0.0
  0
VERTEX
  8
4
 10
2784.500
 20
489.500
 30
0.0
  0
VERTEX
  8
4
 10
2784.500
 20
477.500
 30
0.0
  0
VERTEX
  8
4
 10
2615.500
 20
477.500
 30
0.0
  0
SEQEND
  8
4
  0
CIRCLE
  8
4
  62
     5
 10
2700.000
 20
600.000
 30
0.0
 40
1.000
  0
TEXT
  8
1
  62
     7
 10
2700.000
 20
459.500
 30
0.0
 40
5.000
  1
C
  7
STANDARD
  0
POLYLINE
  8
4
 62
     5
 66
     1
 10
0.0
 20
0.0
 30
0.0
 70
     1
  0
VERTEX
  8
4
 10
120.650
 20
702.033
 30
0.0
  0
VERTEX
  8
4
 10
279.350
 20
702.033
 30
0.0
  0
VERTEX
  8
4
 10
279.350
 20
497.967
 30
0.0
  0
VERTEX
  8
4
 10
120.650
 20
497.967
 30
0.0
  0
SEQEND
  8
4
  0
POLYLINE
  8
4
 62
     5
 66
     1
 10
0.0
 20
0.0
 30
0.0
 70
     1
  0
VERTEX
  8
4
 10
138.650
 20
684.033
 30
0.0
  0
VERTEX
  8
4
 10
261.350
 20
684.033
 30
0.0
  0
VERTEX
  8
4
 10
261.350
 20
515.967
 30
0.0
  0
VERTEX
  8
4
 10
138.650
 20
515.967
 30
0.0
  0
SEQEND
  8
4
  0
POLYLINE
  8
4
 62
     5
 66
     1
 10
0.0
 20
0.0
 30
0.0
 70
     1
  0
VERTEX
  8
4
 10
120.650
 20
497.967
 30
0.0
  0
VERTEX
  8
4
 10
279.350
 20
497.967
 30
0.0
  0
VERTEX
  8
4
 10
279.350
 20
487.967
 30
0.0
  0
VERTEX
  8
4
 10
120.650
 20
487.967
 30
0.0
  0
SEQEND
  8
4
  0
LINE
  8
4
  62
     5
 10
198.939
 20
601.061
 30
0.0
 11
201.061
 21
598.939
 31
0.0
  0
LINE
  8
4
  62
     5
 10
198.939
 20
598.939
 30
0.0
 11
201.061
 21
601.061
 31
0.0
  0
POLYLINE
  8
4
 62
     5
 66
     1
 10
0.0
 20
0.0
 30
0.0
 70
     1
  0
VERTEX
  8
4
 10
281.350
 20
702.033
 30
0.0
  0
VERTEX
  8
4
 10
426.548
 20
702.033
 30
0.0
  0
VERTEX
  8
4
 10
426.548
 20
517.350
 30
0.0
  0
VERTEX
  8
4
 10
281.350
 20
517.350
 30
0.0
  0
SEQEND
  8
4
  0
POLYLINE
  8
4
 62
     5
 66
     1
 10
0.0
 20
0.0
 30
0.0
 70
     1
  0
VERTEX
  8
4
 10
297.350
 20
686.033
 30
0.0
  0
VERTEX
  8
4
 10
410.548
 20
686.033
 30
0.0
  0
VERTEX
  8
4
 10
410.548
 20
533.350
 30
0.0
  0
VERTEX
  8
4
 10
297.350
 20
533.350
 30
0.0
  0
SEQEND
  8
4
  0
POLYLINE
  8
4
 62
     5
 66
     1
 10
0.0
 20
0.0
 30
0.0
 70
     1
  0
VERTEX
  8
4
 10
281.350
 20
517.350
 30
0.0
  0
VERTEX
  8
4
 10
426.548
 20
517.350
 30
0.0
  0
VERTEX
  8
4
 10
426.548
 20
507.350
 30
0.0
  0
VERTEX
  8
4
 10
281.350
 20
507.350
 30
0.0
  0
SEQEND
  8
4
  0
CIRCLE
  8
4
  62
     5
 10
353.949
 20
609.692
 30
0.0
 40
1.000
  0
POLYLINE
  8
4
 62
     5
 66
     1
 10
0.0
 20
0.0
 30
0.0
 70
     1
  0
VERTEX
  8
4
 10
428.548
 20
702.033
 30
0.0
  0
VERTEX
  8
4
 10
560.980
 20
702.033
 30
0.0
  0
VERTEX
  8
4
 10
560.980
 20
535.325
 30
0.0
  0
VERTEX
  8
4
 10
428.548
 20
535.325
 30
0.0
  0
SEQEND
  8
4
  0
POLYLINE
  8
4
 62
     5
 66
     1
 10
0.0
 20
0.0
 30
0.0
 70
     1
  0
VERTEX
  8
4
 10
442.548
 20
688.033
 30
0.0
  0
VERTEX
  8
4
 10
546.980
 20
688.033
 30
0.0
  0
VERTEX
  8
4
 10
546.980
 20
549.325
 30
0.0
  0
VERTEX
  8
4
 10
442.548
 20
549.325
 30
0.0
  0
SEQEND
  8
4
  0
POLYLINE
  8
4
 62
     5
 66
     1
 10
0.0
 20
0.0
 30
0.0
 70
     1
  0
VERTEX
  8
4
 10
428.548
 20
535.325
 30
0.0
  0
VERTEX
  8
4
 10
560.980
 20
535.325
 30
0.0
  0
VERTEX
  8
4
 10
560.980
 20
525.325
 30
0.0
  0
VERTEX
  8
4
 10
428.548
 20
525.325
 30
0.0
  0
SEQEND
  8
4
  0
CIRCLE
  8
4
  62
     5
 10
494.764
 20
618.679
 30
0.0
 40
1.000
  0
POLYLINE
  8
4
 62
     5
 66
     1
 10
0.0
 20
0.0
 30
0.0
 70
     1
  0
VERTEX
  8
4
 10
562.980
 20
702.033
 30
0.0
  0
VERTEX
  8
4
 10
687.324
 20
702.033
 30
0.0
  0
VERTEX
  8
4
 10
687.324
 20
548.021
 30
0.0
  0
VERTEX
  8
4
 10
562.980
 20
548.021
 30
0.0
  0
SEQEND
  8
4
  0
POLYLINE
  8
4
 62
     5
 66
     1
 10
0.0
 20
0.0
 30
0.0
 70
     1
  0
VERTEX
  8
4
 10
576.980
 20
688.033
 30
0.0
  0
VERTEX
  8
4
 10
673.324
 20
688.033
 30
0.0
  0
VERTEX
  8
4
 10
673.324
 20
562.021
 30
0.0
  0
VERTEX
  8
4
 10
576.980
 20
562.021
 30
0.0
  0
SEQEND
  8
4
  0
POLYLINE
  8
4
 62
     5
 66
     1
 10
0.0
 20
0.0
 30
0.0
 70
     1
  0
VERTEX
  8
4
 10
562.980
 20
548.021
 30
0.0
  0
VERTEX
  8
4
 10
687.324
 20
548.021
 30
0.0
  0
VERTEX
  8
4
 10
687.324
 20
539.021
 30
0.0
  0
VERTEX
  8
4
 10
562.980
 20
539.021
 30
0.0
  0
SEQEND
  8
4
  0
CIRCLE
  8
4
  62
     5
 10
625.152
 20
625.027
 30
0.0
 40
1.000
  0
POLYLINE
  8
4
 62
     5
 66
     1
 10
0.0
 20
0.0
 30
0.0
 70
     1
  0
VERTEX
  8
4
 10
689.324
 20
702.033
 30
0.0
  0
VERTEX
  8
4
 10
802.208
 20
702.033
 30
0.0
  0
VERTEX
  8
4
 10
802.208
 20
563.555
 30
0.0
  0
VERTEX
  8
4
 10
689.324
 20
563.555
 30
0.0
  0
SEQEND
  8
4
  0
POLYLINE
  8
4
 62
     5
 66
     1
 10
0.0
 20
0.0
 30
0.0
 70
     1
  0
VERTEX
  8
4
 10
701.324
 20
690.033
 30
0.0
  0
VERTEX
  8
4
 10
790.208
 20
690.033
 30
0.0
  0
VERTEX
  8
4
 10
790.208
 20
575.555
 30
0.0
  0
VERTEX
  8
4
 10
701.324
 20
575.555
 30
0.0
  0
SEQEND
  8
4
  0
POLYLINE
  8
4
 62
     5
 66
     1
 10
0.0
 20
0.0
 30
0.0
 70
     1
  0
VERTEX
  8
4
 10
689.324
 20
563.555
 30
0.0
  0
VERTEX
  8
4
 10
802.208
 20
563.555
 30
0.0
  0
VERTEX
  8
4
 10
802.208
 20
554.555
 30
0.0
  0
VERTEX
  8
4
 10
689.324
 20
554.555
 30
0.0
  0
SEQEND
  8
4
  0
CIRCLE
  8
4
  62
     5
 10
745.766
 20
632.794
 30
0.0
 40
1.000
  0
POLYLINE
  8
4
 62
     5
 66
     1
 10
0.0
 20
0.0
 30
0.0
 70
     1
  0
VERTEX
  8
4
 10
804.208
 20
702.033
 30
0.0
  0
VERTEX
  8
4
 10
910.208
 20
702.033
 30
0.0
  0
VERTEX
  8
4
 10
910.208
 20
574.033
 30
0.0
  0
VERTEX
  8
4
 10
804.208
 20
574.033
 30
0.0
  0
SEQEND
  8
4
  0
POLYLINE
  8
4
 62
     5
 66
     1
 10
0.0
 20
0.0
 30
0.0
 70
     1
  0
VERTEX
  8
4
 10
816.208
 20
690.033
 30
0.0
  0
VERTEX
  8
4
 10
898.208
 20
690.033
 30
0.0
  0
VERTEX
  8
4
 10
898.208
 20
586.033
 30
0.0
  0
VERTEX
  8
4
 10
816.208
 20
586.033
 30
0.0
  0
SEQEND
  8
4
  0
POLYLINE
  8
4
 62
     5
 66
     1
 10
0.0
 20
0.0
 30
0.0
 70
     1
  0
VERTEX
  8
4
 10
804.208
 20
574.033
 30
0.0
  0
VERTEX
  8
4
 10
910.208
 20
574.033
 30
0.0
  0
VERTEX
  8
4
 10
910.208
 20
566.033
 30
0.0
  0
VERTEX
  8
4
 10
804.208
 20
566.033
 30
0.0
  0
SEQEND
  8
4
  0
CIRCLE
  8
6
  62
     6
 10
857.208
 20
638.033
 30
0.0
 40
24.000
  0
CIRCLE
  8
7
  62
     6
 10
857.208
 20
660.033
 30
0.0
 40
37.000
  0
CIRCLE
  8
8
  62
     6
 10
857.208
 20
660.033
 30
0.0
 40
21.000
  0
CIRCLE
  8
9
  62
     6
 10
857.208
 20
660.033
 30
0.0
 40
21.000
  0
CIRCLE
  8
7
  62
     6
 10
857.208
 20
616.033
 30
0.0
 40
37.000
  0
CIRCLE
  8
8
  62
     6
 10
857.208
 20
616.033
 30
0.0
 40
21.000
  0
CIRCLE
  8
9
  62
     6
 10
857.208
 20
616.033
 30
0.0
 40
21.000
  0
CIRCLE
  8
4
  62
     5
 10
857.208
 20
638.033
 30
0.0
 40
1.000
  0
POLYLINE
  8
4
 62
     5
 66
     1
 10
0.0
 20
0.0
 30
0.0
 70
     1
  0
VERTEX
  8
4
 10
912.208
 20
702.033
 30
0.0
  0
VERTEX
  8
4
 10
1007.206
 20
702.033
 30
0.0
  0
VERTEX
  8
4
 10
1007.206
 20
586.624
 30
0.0
  0
VERTEX
  8
4
 10
912.208
 20
586.624
 30
0.0
  0
SEQEND
  8
4
  0
POLYLINE
  8
4
 62
     5
 66
     1
 10
0.0
 20
0.0
 30
0.0
 70
     1
  0
VERTEX
  8
4
 10
922.208
 20
692.033
 30
0.0
  0
VERTEX
  8
4
 10
997.206
 20
692.033
 30
0.0
  0
VERTEX
  8
4
 10
997.206
 20
596.624
 30
0.0
  0
VERTEX
  8
4
 10
922.208
 20
596.624
 30
0.0
  0
SEQEND
  8
4
  0
POLYLINE
  8
4
 62
     5
 66
     1
 10
0.0
 20
0.0
 30
0.0
 70
     1
  0
VERTEX
  8
4
 10
912.208
 20
586.624
 30
0.0
  0
VERTEX
  8
4
 10
1007.206
 20
586.624
 30
0.0
  0
VERTEX
  8
4
 10
1007.206
 20
578.624
 30
0.0
  0
VERTEX
  8
4
 10
912.208
 20
578.624
 30
0.0
  0
SEQEND
  8
4
  0
CIRCLE
  8
6
  62
     6
 10
959.707
 20
644.329
 30
0.0
 40
24.000
  0
CIRCLE
  8
7
  62
     6
 10
959.707
 20
666.329
 30
0.0
 40
37.000
  0
CIRCLE
  8
8
  62
     6
 10
959.707
 20
666.329
 30
0.0
 40
21.000
  0
CIRCLE
  8
9
  62
     6
 10
959.707
 20
666.329
 30
0.0
 40
21.000
  0
CIRCLE
  8
7
  62
     6
 10
959.707
 20
622.329
 30
0.0
 40
37.000
  0
CIRCLE
  8
8
  62
     6
 10
959.707
 20
622.329
 30
0.0
 40
21.000
  0
CIRCLE
  8
9
  62
     6
 10
959.707
 20
622.329
 30
0.0
 40
21.000
  0
CIRCLE
  8
4
  62
     5
 10
959.707
 20
644.329
 30
0.0
 40
1.000
  0
POLYLINE
  8
4
 62
     5
 66
     1
 10
0.0
 20
0.0
 30
0.0
 70
     1
  0
VERTEX
  8
4
 10
1009.206
 20
702.033
 30
0.0
  0
VERTEX
  8
4
 10
1095.801
 20
702.033
 30
0.0
  0
VERTEX
  8
4
 10
1095.801
 20
596.504
 30
0.0
  0
VERTEX
  8
4
 10
1009.206
 20
596.504
 30
0.0
  0
SEQEND
  8
4
  0
POLYLINE
  8
4
 62
     5
 66
     1
 10
0.0
 20
0.0
 30
0.0
 70
     1
  0
VERTEX
  8
4
 10
1018.206
 20
693.033
 30
0.0
  0
VERTEX
  8
4
 10
1086.801
 20
693.033
 30
0.0
  0
VERTEX
  8
4
 10
1086.801
 20
605.504
 30
0.0
  0
VERTEX
  8
4
 10
1018.206
 20
605.504
 30
0.0
  0
SEQEND
  8
4
  0
POLYLINE
  8
4
 62
     5
 66
     1
 10
0.0
 20
0.0
 30
0.0
 70
     1
  0
VERTEX
  8
4
 10
1009.206
 20
596.504
 30
0.0
  0
VERTEX
  8
4
 10
1095.801
 20
596.504
 30
0.0
  0
VERTEX
  8
4
 10
1095.801
 20
587.504
 30
0.0
  0
VERTEX
  8
4
 10
1009.206
 20
587.504
 30
0.0
  0
SEQEND
  8
4
  0
CIRCLE
  8
6
  62
     6
 10
1052.503
 20
649.269
 30
0.0
 40
22.000
  0
CIRCLE
  8
7
  62
     6
 10
1052.503
 20
671.269
 30
0.0
 40
37.000
  0
CIRCLE
  8
8
  62
     6
 10
1052.503
 20
671.269
 30
0.0
 40
21.000
  0
CIRCLE
  8
9
  62
     6
 10
1052.503
 20
671.269
 30
0.0
 40
21.000
  0
CIRCLE
  8
7
  62
     6
 10
1052.503
 20
627.269
 30
0.0
 40
37.000
  0
CIRCLE
  8
8
  62
     6
 10
1052.503
 20
627.269
 30
0.0
 40
21.000
  0
CIRCLE
  8
9
  62
     6
 10
1052.503
 20
627.269
 30
0.0
 40
21.000
  0
CIRCLE
  8
4
  62
     5
 10
1052.503
 20
649.269
 30
0.0
 40
1.000
  0
POLYLINE
  8
4
 62
     5
 66
     1
 10
0.0
 20
0.0
 30
0.0
 70
     1
  0
VERTEX
  8
4
 10
1097.801
 20
702.033
 30
0.0
  0
VERTEX
  8
4
 10
1178.538
 20
702.033
 30
0.0
  0
VERTEX
  8
4
 10
1178.538
 20
603.734
 30
0.0
  0
VERTEX
  8
4
 10
1097.801
 20
603.734
 30
0.0
  0
SEQEND
  8
4
  0
POLYLINE
  8
4
 62
     5
 66
     1
 10
0.0
 20
0.0
 30
0.0
 70
     1
  0
VERTEX
  8
4
 10
1106.801
 20
693.033
 30
0.0
  0
VERTEX
  8
4
 10
1169.538
 20
693.033
 30
0.0
  0
VERTEX
  8
4
 10
1169.538
 20
612.734
 30
0.0
  0
VERTEX
  8
4
 10
1106.801
 20
612.734
 30
0.0
  0
SEQEND
  8
4
  0
POLYLINE
  8
4
 62
     5
 66
     1
 10
0.0
 20
0.0
 30
0.0
 70
     1
  0
VERTEX
  8
4
 10
1097.801
 20
603.734
 30
0.0
  0
VERTEX
  8
4
 10
1178.538
 20
603.734
 30
0.0
  0
VERTEX
  8
4
 10
1178.538
 20
596.734
 30
0.0
  0
VERTEX
  8
4
 10
1097.801
 20
596.734
 30
0.0
  0
SEQEND
  8
4
  0
CIRCLE
  8
6
  62
     6
 10
1138.169
 20
652.884
 30
0.0
 40
22.000
  0
CIRCLE
  8
7
  62
     6
 10
1138.169
 20
674.884
 30
0.0
 40
37.000
  0
CIRCLE
  8
8
  62
     6
 10
1138.169
 20
674.884
 30
0.0
 40
21.000
  0
CIRCLE
  8
9
  62
     6
 10
1138.169
 20
674.884
 30
0.0
 40
21.000
  0
CIRCLE
  8
7
  62
     6
 10
1138.169
 20
630.884
 30
0.0
 40
37.000
  0
CIRCLE
  8
8
  62
     6
 10
1138.169
 20
630.884
 30
0.0
 40
21.000
  0
CIRCLE
  8
9
  62
     6
 10
1138.169
 20
630.884
 30
0.0
 40
21.000
  0
CIRCLE
  8
4
  62
     5
 10
1138.169
 20
652.884
 30
0.0
 40
1.000
  0
POLYLINE
  8
4
 62
     5
 66
     1
 10
0.0
 20
0.0
 30
0.0
 70
     1
  0
VERTEX
  8
4
 10
1180.538
 20
702.033
 30
0.0
  0
VERTEX
  8
4
 10
1253.919
 20
702.033
 30
0.0
  0
VERTEX
  8
4
 10
1253.919
 20
612.367
 30
0.0
  0
VERTEX
  8
4
 10
1180.538
 20
612.367
 30
0.0
  0
SEQEND
  8
4
  0
POLYLINE
  8
4
 62
     5
 66
     1
 10
0.0
 20
0.0
 30
0.0
 70
     1
  0
VERTEX
  8
4
 10
1188.538
 20
694.033
 30
0.0
  0
VERTEX
  8
4
 10
1245.919
 20
694.033
 30
0.0
  0
VERTEX
  8
4
 10
1245.919
 20
620.367
 30
0.0
  0
VERTEX
  8
4
 10
1188.538
 20
620.367
 30
0.0
  0
SEQEND
  8
4
  0
POLYLINE
  8
4
 62
     5
 66
     1
 10
0.0
 20
0.0
 30
0.0
 70
     1
  0
VERTEX
  8
4
 10
1180.538
 20
612.367
 30
0.0
  0
VERTEX
  8
4
 10
1253.919
 20
612.367
 30
0.0
  0
VERTEX
  8
4
 10
1253.919
 20
606.367
 30
0.0
  0
VERTEX
  8
4
 10
1180.538
 20
606.367
 30
0.0
  0
SEQEND
  8
4
  0
CIRCLE
  8
6
  62
     6
 10
1217.228
 20
657.200
 30
0.0
 40
20.000
  0
CIRCLE
  8
7
  62
     6
 10
1217.228
 20
657.200
 30
0.0
 40
37.000
  0
CIRCLE
  8
8
  62
     6
 10
1217.228
 20
657.200
 30
0.0
 40
21.000
  0
CIRCLE
  8
9
  62
     6
 10
1217.228
 20
657.200
 30
0.0
 40
21.000
  0
CIRCLE
  8
4
  62
     5
 10
1217.228
 20
657.200
 30
0.0
 40
1.000
  0
POLYLINE
  8
4
 62
     5
 66
     1
 10
0.0
 20
0.0
 30
0.0
 70
     1
  0
VERTEX
  8
4
 10
1255.919
 20
702.033
 30
0.0
  0
VERTEX
  8
4
 10
1324.400
 20
702.033
 30
0.0
  0
VERTEX
  8
4
 10
1324.400
 20
618.451
 30
0.0
  0
VERTEX
  8
4
 10
1255.919
 20
618.451
 30
0.0
  0
SEQEND
  8
4
  0
POLYLINE
  8
4
 62
     5
 66
     1
 10
0.0
 20
0.0
 30
0.0
 70
     1
  0
VERTEX
  8
4
 10
1263.919
 20
694.033
 30
0.0
  0
VERTEX
  8
4
 10
1316.400
 20
694.033
 30
0.0
  0
VERTEX
  8
4
 10
1316.400
 20
626.451
 30
0.0
  0
VERTEX
  8
4
 10
1263.919
 20
626.451
 30
0.0
  0
SEQEND
  8
4
  0
POLYLINE
  8
4
 62
     5
 66
     1
 10
0.0
 20
0.0
 30
0.0
 70
     1
  0
VERTEX
  8
4
 10
1255.919
 20
618.451
 30
0.0
  0
VERTEX
  8
4
 10
1324.400
 20
618.451
 30
0.0
  0
VERTEX
  8
4
 10
1324.400
 20
613.451
 30
0.0
  0
VERTEX
  8
4
 10
1255.919
 20
613.451
 30
0.0
  0
SEQEND
  8
4
  0
CIRCLE
  8
6
  62
     6
 10
1290.159
 20
660.242
 30
0.0
 40
20.000
  0
CIRCLE
  8
7
  62
     6
 10
1290.159
 20
660.242
 30
0.0
 40
37.000
  0
CIRCLE
  8
8
  62
     6
 10
1290.159
 20
660.242
 30
0.0
 40
21.000
  0
CIRCLE
  8
9
  62
     6
 10
1290.159
 20
660.242
 30
0.0
 40
21.000
  0
CIRCLE
  8
4
  62
     5
 10
1290.159
 20
660.242
 30
0.0
 40
1.000
  0
POLYLINE
  8
4
 62
     5
 66
     1
 10
0.0
 20
0.0
 30
0.0
 70
     1
  0
VERTEX
  8
4
 10
1326.400
 20
702.033
 30
0.0
  0
VERTEX
  8
4
 10
1388.400
 20
702.033
 30
0.0
  0
VERTEX
  8
4
 10
1388.400
 20
626.033
 30
0.0
  0
VERTEX
  8
4
 10
1326.400
 20
626.033
 30
0.0
  0
SEQEND
  8
4
  0
POLYLINE
  8
4
 62
     5
 66
     1
 10
0.0
 20
0.0
 30
0.0
 70
     1
  0
VERTEX
  8
4
 10
1333.400
 20
695.033
 30
0.0
  0
VERTEX
  8
4
 10
1381.400
 20
695.033
 30
0.0
  0
VERTEX
  8
4
 10
1381.400
 20
633.033
 30
0.0
  0
VERTEX
  8
4
 10
1333.400
 20
633.033
 30
0.0
  0
SEQEND
  8
4
  0
POLYLINE
  8
4
 62
     5
 66
     1
 10
0.0
 20
0.0
 30
0.0
 70
     1
  0
VERTEX
  8
4
 10
1326.400
 20
626.033
 30
0.0
  0
VERTEX
  8
4
 10
1388.400
 20
626.033
 30
0.0
  0
VERTEX
  8
4
 10
1388.400
 20
620.033
 30
0.0
  0
VERTEX
  8
4
 10
1326.400
 20
620.033
 30
0.0
  0
SEQEND
  8
4
  0
CIRCLE
  8
6
  62
     6
 10
1357.400
 20
664.033
 30
0.0
 40
17.000
  0
CIRCLE
  8
7
  62
     6
 10
1357.400
 20
664.033
 30
0.0
 40
30.000
  0
CIRCLE
  8
8
  62
     6
 10
1357.400
 20
664.033
 30
0.0
 40
17.000
  0
CIRCLE
  8
9
  62
     6
 10
1357.400
 20
664.033
 30
0.0
 40
17.000
  0
CIRCLE
  8
4
  62
     5
 10
1357.400
 20
664.033
 30
0.0
 40
1.000
  0
POLYLINE
  8
4
 62
     5
 66
     1
 10
0.0
 20
0.0
 30
0.0
 70
     1
  0
VERTEX
  8
4
 10
1390.400
 20
702.033
 30
0.0
  0
VERTEX
  8
4
 10
1448.783
 20
702.033
 30
0.0
  0
VERTEX
  8
4
 10
1448.783
 20
630.401
 30
0.0
  0
VERTEX
  8
4
 10
1390.400
 20
630.401
 30
0.0
  0
SEQEND
  8
4
  0
POLYLINE
  8
4
 62
     5
 66
     1
 10
0.0
 20
0.0
 30
0.0
 70
     1
  0
VERTEX
  8
4
 10
1397.400
 20
695.033
 30
0.0
  0
VERTEX
  8
4
 10
1441.783
 20
695.033
 30
0.0
  0
VERTEX
  8
4
 10
1441.783
 20
637.401
 30
0.0
  0
VERTEX
  8
4
 10
1397.400
 20
637.401
 30
0.0
  0
SEQEND
  8
4
  0
POLYLINE
  8
4
 62
     5
 66
     1
 10
0.0
 20
0.0
 30
0.0
 70
     1
  0
VERTEX
  8
4
 10
1390.400
 20
630.401
 30
0.0
  0
VERTEX
  8
4
 10
1448.783
 20
630.401
 30
0.0
  0
VERTEX
  8
4
 10
1448.783
 20
624.401
 30
0.0
  0
VERTEX
  8
4
 10
1390.400
 20
624.401
 30
0.0
  0
SEQEND
  8
4
  0
CIRCLE
  8
6
  62
     6
 10
1419.592
 20
666.217
 30
0.0
 40
17.000
  0
CIRCLE
  8
7
  62
     6
 10
1419.592
 20
666.217
 30
0.0
 40
30.000
  0
CIRCLE
  8
8
  62
     6
 10
1419.592
 20
666.217
 30
0.0
 40
17.000
  0
CIRCLE
  8
9
  62
     6
 10
1419.592
 20
666.217
 30
0.0
 40
17.000
  0
CIRCLE
  8
4
  62
     5
 10
1419.592
 20
666.217
 30
0.0
 40
1.000
  0
POLYLINE
  8
4
 62
     5
 66
     1
 10
0.0
 20
0.0
 30
0.0
 70
     1
  0
VERTEX
  8
4
 10
1450.783
 20
702.033
 30
0.0
  0
VERTEX
  8
4
 10
1505.823
 20
702.033
 30
0.0
  0
VERTEX
  8
4
 10
1505.823
 20
634.460
 30
0.0
  0
VERTEX
  8
4
 10
1450.783
 20
634.460
 30
0.0
  0
SEQEND
  8
4
  0
POLYLINE
  8
4
 62
     5
 66
     1
 10
0.0
 20
0.0
 30
0.0
 70
     1
  0
VERTEX
  8
4
 10
1457.783
 20
695.033
 30
0.0
  0
VERTEX
  8
4
 10
1498.823
 20
695.033
 30
0.0
  0
VERTEX
  8
4
 10
1498.823
 20
641.460
 30
0.0
  0
VERTEX
  8
4
 10
1457.783
 20
641.460
 30
0.0
  0
SEQEND
  8
4
  0
POLYLINE
  8
4
 62
     5
 66
     1
 10
0.0
 20
0.0
 30
0.0
 70
     1
  0
VERTEX
  8
4
 10
1450.783
 20
634.460
 30
0.0
  0
VERTEX
  8
4
 10
1505.823
 20
634.460
 30
0.0
  0
VERTEX
  8
4
 10
1505.823
 20
629.460
 30
0.0
  0
VERTEX
  8
4
 10
1450.783
 20
629.460
 30
0.0
  0
SEQEND
  8
4
  0
CIRCLE
  8
6
  62
     6
 10
1478.303
 20
668.247
 30
0.0
 40
14.000
  0
CIRCLE
  8
7
  62
     6
 10
1478.303
 20
668.247
 30
0.0
 40
30.000
  0
CIRCLE
  8
8
  62
     6
 10
1478.303
 20
668.247
 30
0.0
 40
17.000
  0
CIRCLE
  8
9
  62
     6
 10
1478.303
 20
668.247
 30
0.0
 40
17.000
  0
CIRCLE
  8
4
  62
     5
 10
1478.303
 20
668.247
 30
0.0
 40
1.000
  0
POLYLINE
  8
4
 62
     5
 66
     1
 10
0.0
 20
0.0
 30
0.0
 70
     1
  0
VERTEX
  8
4
 10
1507.823
 20
702.033
 30
0.0
  0
VERTEX
  8
4
 10
1557.770
 20
702.033
 30
0.0
  0
VERTEX
  8
4
 10
1557.770
 20
640.234
 30
0.0
  0
VERTEX
  8
4
 10
1507.823
 20
640.234
 30
0.0
  0
SEQEND
  8
4
  0
POLYLINE
  8
4
 62
     5
 66
     1
 10
0.0
 20
0.0
 30
0.0
 70
     1
  0
VERTEX
  8
4
 10
1513.823
 20
696.033
 30
0.0
  0
VERTEX
  8
4
 10
1551.770
 20
696.033
 30
0.0
  0
VERTEX
  8
4
 10
1551.770
 20
646.234
 30
0.0
  0
VERTEX
  8
4
 10
1513.823
 20
646.234
 30
0.0
  0
SEQEND
  8
4
  0
POLYLINE
  8
4
 62
     5
 66
     1
 10
0.0
 20
0.0
 30
0.0
 70
     1
  0
VERTEX
  8
4
 10
1507.823
 20
640.234
 30
0.0
  0
VERTEX
  8
4
 10
1557.770
 20
640.234
 30
0.0
  0
VERTEX
  8
4
 10
1557.770
 20
635.234
 30
0.0
  0
VERTEX
  8
4
 10
1507.823
 20
635.234
 30
0.0
  0
SEQEND
  8
4
  0
CIRCLE
  8
6
  62
     6
 10
1532.796
 20
671.134
 30
0.0
 40
14.000
  0
CIRCLE
  8
7
  62
     6
 10
1532.796
 20
671.134
 30
0.0
 40
30.000
  0
CIRCLE
  8
8
  62
     6
 10
1532.796
 20
671.134
 30
0.0
 40
17.000
  0
CIRCLE
  8
9
  62
     6
 10
1532.796
 20
671.134
 30
0.0
 40
17.000
  0
CIRCLE
  8
4
  62
     5
 10
1532.796
 20
671.134
 30
0.0
 40
1.000
  0
POLYLINE
  8
4
 62
     5
 66
     1
 10
0.0
 20
0.0
 30
0.0
 70
     1
  0
VERTEX
  8
4
 10
1559.770
 20
702.033
 30
0.0
  0
VERTEX
  8
4
 10
1606.858
 20
702.033
 30
0.0
  0
VERTEX
  8
4
 10
1606.858
 20
643.742
 30
0.0
  0
VERTEX
  8
4
 10
1559.770
 20
643.742
 30
0.0
  0
SEQEND
  8
4
  0
POLYLINE
  8
4
 62
     5
 66
     1
 10
0.0
 20
0.0
 30
0.0
 70
     1
  0
VERTEX
  8
4
 10
1565.770
 20
696.033
 30
0.0
  0
VERTEX
  8
4
 10
1600.858
 20
696.033
 30
0.0
  0
VERTEX
  8
4
 10
1600.858
 20
649.742
 30
0.0
  0
VERTEX
  8
4
 10
1565.770
 20
649.742
 30
0.0
  0
SEQEND
  8
4
  0
POLYLINE
  8
4
 62
     5
 66
     1
 10
0.0
 20
0.0
 30
0.0
 70
     1
  0
VERTEX
  8
4
 10
1559.770
 20
643.742
 30
0.0
  0
VERTEX
  8
4
 10
1606.858
 20
643.742
 30
0.0
  0
VERTEX
  8
4
 10
1606.858
 20
638.742
 30
0.0
  0
VERTEX
  8
4
 10
1559.770
 20
638.742
 30
0.0
  0
SEQEND
  8
4
  0
CIRCLE
  8
6
  62
     6
 10
1583.314
 20
672.888
 30
0.0
 40
13.000
  0
CIRCLE
  8
7
  62
     6
 10
1583.314
 20
672.888
 30
0.0
 40
30.000
  0
CIRCLE
  8
8
  62
     6
 10
1583.314
 20
672.888
 30
0.0
 40
17.000
  0
CIRCLE
  8
9
  62
     6
 10
1583.314
 20
672.888
 30
0.0
 40
17.000
  0
CIRCLE
  8
4
  62
     5
 10
1583.314
 20
672.888
 30
0.0
 40
1.000
  0
POLYLINE
  8
4
 62
     5
 66
     1
 10
0.0
 20
0.0
 30
0.0
 70
     1
  0
VERTEX
  8
4
 10
1608.858
 20
702.033
 30
0.0
  0
VERTEX
  8
4
 10
1653.303
 20
702.033
 30
0.0
  0
VERTEX
  8
4
 10
1653.303
 20
647.002
 30
0.0
  0
VERTEX
  8
4
 10
1608.858
 20
647.002
 30
0.0
  0
SEQEND
  8
4
  0
POLYLINE
  8
4
 62
     5
 66
     1
 10
0.0
 20
0.0
 30
0.0
 70
     1
  0
VERTEX
  8
4
 10
1614.858
 20
696.033
 30
0.0
  0
VERTEX
  8
4
 10
1647.303
 20
696.033
 30
0.0
  0
VERTEX
  8
4
 10
1647.303
 20
653.002
 30
0.0
  0
VERTEX
  8
4
 10
1614.858
 20
653.002
 30
0.0
  0
SEQEND
  8
4
  0
POLYLINE
  8
4
 62
     5
 66
     1
 10
0.0
 20
0.0
 30
0.0
 70
     1
  0
VERTEX
  8
4
 10
1608.858
 20
647.002
 30
0.0
  0
VERTEX
  8
4
 10
1653.303
 20
647.002
 30
0.0
  0
VERTEX
  8
4
 10
1653.303
 20
643.002
 30
0.0
  0
VERTEX
  8
4
 10
1608.858
 20
643.002
 30
0.0
  0
SEQEND
  8
4
  0
CIRCLE
  8
6
  62
     6
 10
1631.081
 20
674.518
 30
0.0
 40
13.000
  0
CIRCLE
  8
7
  62
     6
 10
1631.081
 20
674.518
 30
0.0
 40
30.000
  0
CIRCLE
  8
8
  62
     6
 10
1631.081
 20
674.518
 30
0.0
 40
17.000
  0
CIRCLE
  8
9
  62
     6
 10
1631.081
 20
674.518
 30
0.0
 40
17.000
  0
CIRCLE
  8
4
  62
     5
 10
1631.081
 20
674.518
 30
0.0
 40
1.000
  0
POLYLINE
  8
4
 62
     5
 66
     1
 10
0.0
 20
0.0
 30
0.0
 70
     1
  0
VERTEX
  8
4
 10
1655.303
 20
702.033
 30
0.0
  0
VERTEX
  8
4
 10
1697.303
 20
702.033
 30
0.0
  0
VERTEX
  8
4
 10
1697.303
 20
650.033
 30
0.0
  0
VERTEX
  8
4
 10
1655.303
 20
650.033
 30
0.0
  0
SEQEND
  8
4
  0
POLYLINE
  8
4
 62
     5
 66
     1
 10
0.0
 20
0.0
 30
0.0
 70
     1
  0
VERTEX
  8
4
 10
1661.303
 20
696.033
 30
0.0
  0
VERTEX
  8
4
 10
1691.303
 20
696.033
 30
0.0
  0
VERTEX
  8
4
 10
1691.303
 20
656.033
 30
0.0
  0
VERTEX
  8
4
 10
1661.303
 20
656.033
 30
0.0
  0
SEQEND
  8
4
  0
POLYLINE
  8
4
 62
     5
 66
     1
 10
0.0
 20
0.0
 30
0.0
 70
     1
  0
VERTEX
  8
4
 10
1655.303
 20
650.033
 30
0.0
  0
VERTEX
  8
4
 10
1697.303
 20
650.033
 30
0.0
  0
VERTEX
  8
4
 10
1697.303
 20
646.033
 30
0.0
  0
VERTEX
  8
4
 10
1655.303
 20
646.033
 30
0.0
  0
SEQEND
  8
4
  0
CIRCLE
  8
6
  62
     6
 10
1676.303
 20
676.033
 30
0.0
 40
11.000
  0
CIRCLE
  8
7
  62
     6
 10
1676.303
 20
676.033
 30
0.0
 40
26.000
  0
CIRCLE
  8
8
  62
     6
 10
1676.303
 20
676.033
 30
0.0
 40
12.000
  0
CIRCLE
  8
9
  62
     6
 10
1676.303
 20
676.033
 30
0.0
 40
12.000
  0
CIRCLE
  8
4
  62
     5
 10
1676.303
 20
676.033
 30
0.0
 40
1.000
  0
POLYLINE
  8
4
 62
     5
 66
     1
 10
0.0
 20
0.0
 30
0.0
 70
     1
  0
VERTEX
  8
4
 10
1699.303
 20
702.033
 30
0.0
  0
VERTEX
  8
4
 10
1739.104
 20
702.033
 30
0.0
  0
VERTEX
  8
4
 10
1739.104
 20
653.047
 30
0.0
  0
VERTEX
  8
4
 10
1699.303
 20
653.047
 30
0.0
  0
SEQEND
  8
4
  0
POLYLINE
  8
4
 62
     5
 66
     1
 10
0.0
 20
0.0
 30
0.0
 70
     1
  0
VERTEX
  8
4
 10
1705.303
 20
696.033
 30
0.0
  0
VERTEX
  8
4
 10
1733.104
 20
696.033
 30
0.0
  0
VERTEX
  8
4
 10
1733.104
 20
659.047
 30
0.0
  0
VERTEX
  8
4
 10
1705.303
 20
659.047
 30
0.0
  0
SEQEND
  8
4
  0
POLYLINE
  8
4
 62
     5
 66
     1
 10
0.0
 20
0.0
 30
0.0
 70
     1
  0
VERTEX
  8
4
 10
1699.303
 20
653.047
 30
0.0
  0
VERTEX
  8
4
 10
1739.104
 20
653.047
 30
0.0
  0
VERTEX
  8
4
 10
1739.104
 20
649.047
 30
0.0
  0
VERTEX
  8
4
 10
1699.303
 20
649.047
 30
0.0
  0
SEQEND
  8
4
  0
CIRCLE
  8
6
  62
     6
 10
1719.203
 20
677.540
 30
0.0
 40
11.000
  0
CIRCLE
  8
7
  62
     6
 10
1719.203
 20
677.540
 30
0.0
 40
26.000
  0
CIRCLE
  8
8
  62
     6
 10
1719.203
 20
677.540
 30
0.0
 40
12.000
  0
CIRCLE
  8
9
  62
     6
 10
1719.203
 20
677.540
 30
0.0
 40
12.000
  0
CIRCLE
  8
4
  62
     5
 10
1719.203
 20
677.540
 30
0.0
 40
1.000
  0
POLYLINE
  8
4
 62
     5
 66
     1
 10
0.0
 20
0.0
 30
0.0
 70
     1
  0
VERTEX
  8
4
 10
1741.104
 20
702.033
 30
0.0
  0
VERTEX
  8
4
 10
1778.867
 20
702.033
 30
0.0
  0
VERTEX
  8
4
 10
1778.867
 20
655.834
 30
0.0
  0
VERTEX
  8
4
 10
1741.104
 20
655.834
 30
0.0
  0
SEQEND
  8
4
  0
POLYLINE
  8
4
 62
     5
 66
     1
 10
0.0
 20
0.0
 30
0.0
 70
     1
  0
VERTEX
  8
4
 10
1747.104
 20
696.033
 30
0.0
  0
VERTEX
  8
4
 10
1772.867
 20
696.033
 30
0.0
  0
VERTEX
  8
4
 10
1772.867
 20
661.834
 30
0.0
  0
VERTEX
  8
4
 10
1747.104
 20
661.834
 30
0.0
  0
SEQEND
  8
4
  0
POLYLINE
  8
4
 62
     5
 66
     1
 10
0.0
 20
0.0
 30
0.0
 70
     1
  0
VERTEX
  8
4
 10
1741.104
 20
655.834
 30
0.0
  0
VERTEX
  8
4
 10
1778.867
 20
655.834
 30
0.0
  0
VERTEX
  8
4
 10
1778.867
 20
652.834
 30
0.0
  0
VERTEX
  8
4
 10
1741.104
 20
652.834
 30
0.0
  0
SEQEND
  8
4
  0
CIRCLE
  8
6
  62
     6
 10
1759.985
 20
678.934
 30
0.0
 40
10.000
  0
CIRCLE
  8
7
  62
     6
 10
1759.985
 20
678.934
 30
0.0
 40
26.000
  0
CIRCLE
  8
8
  62
     6
 10
1759.985
 20
678.934
 30
0.0
 40
12.000
  0
CIRCLE
  8
9
  62
     6
 10
1759.985
 20
678.934
 30
0.0
 40
12.000
  0
CIRCLE
  8
4
  62
     5
 10
1759.985
 20
678.934
 30
0.0
 40
1.000
  0
POLYLINE
  8
4
 62
     5
 66
     1
 10
0.0
 20
0.0
 30
0.0
 70
     1
  0
VERTEX
  8
4
 10
1780.867
 20
702.033
 30
0.0
  0
VERTEX
  8
4
 10
1814.742
 20
702.033
 30
0.0
  0
VERTEX
  8
4
 10
1814.742
 20
660.411
 30
0.0
  0
VERTEX
  8
4
 10
1780.867
 20
660.411
 30
0.0
  0
SEQEND
  8
4
  0
POLYLINE
  8
4
 62
     5
 66
     1
 10
0.0
 20
0.0
 30
0.0
 70
     1
  0
VERTEX
  8
4
 10
1785.867
 20
697.033
 30
0.0
  0
VERTEX
  8
4
 10
1809.742
 20
697.033
 30
0.0
  0
VERTEX
  8
4
 10
1809.742
 20
665.411
 30
0.0
  0
VERTEX
  8
4
 10
1785.867
 20
665.411
 30
0.0
  0
SEQEND
  8
4
  0
POLYLINE
  8
4
 62
     5
 66
     1
 10
0.0
 20
0.0
 30
0.0
 70
     1
  0
VERTEX
  8
4
 10
1780.867
 20
660.411
 30
0.0
  0
VERTEX
  8
4
 10
1814.742
 20
660.411
 30
0.0
  0
VERTEX
  8
4
 10
1814.742
 20
656.411
 30
0.0
  0
VERTEX
  8
4
 10
1780.867
 20
656.411
 30
0.0
  0
SEQEND
  8
4
  0
CIRCLE
  8
6
  62
     6
 10
1797.804
 20
681.222
 30
0.0
 40
10.000
  0
CIRCLE
  8
7
  62
     6
 10
1797.804
 20
681.222
 30
0.0
 40
26.000
  0
CIRCLE
  8
8
  62
     6
 10
1797.804
 20
681.222
 30
0.0
 40
12.000
  0
CIRCLE
  8
9
  62
     6
 10
1797.804
 20
681.222
 30
0.0
 40
12.000
  0
CIRCLE
  8
4
  62
     5
 10
1797.804
 20
681.222
 30
0.0
 40
1.000
  0
POLYLINE
  8
4
 62
     5
 66
     1
 10
0.0
 20
0.0
 30
0.0
 70
     1
  0
VERTEX
  8
4
 10
1816.742
 20
702.033
 30
0.0
  0
VERTEX
  8
4
 10
1848.866
 20
702.033
 30
0.0
  0
VERTEX
  8
4
 10
1848.866
 20
662.793
 30
0.0
  0
VERTEX
  8
4
 10
1816.742
 20
662.793
 30
0.0
  0
SEQEND
  8
4
  0
POLYLINE
  8
4
 62
     5
 66
     1
 10
0.0
 20
0.0
 30
0.0
 70
     1
  0
VERTEX
  8
4
 10
1821.742
 20
697.033
 30
0.0
  0
VERTEX
  8
4
 10
1843.866
 20
697.033
 30
0.0
  0
VERTEX
  8
4
 10
1843.866
 20
667.793
 30
0.0
  0
VERTEX
  8
4
 10
1821.742
 20
667.793
 30
0.0
  0
SEQEND
  8
4
  0
POLYLINE
  8
4
 62
     5
 66
     1
 10
0.0
 20
0.0
 30
0.0
 70
     1
  0
VERTEX
  8
4
 10
1816.742
 20
662.793
 30
0.0
  0
VERTEX
  8
4
 10
1848.866
 20
662.793
 30
0.0
  0
VERTEX
  8
4
 10
1848.866
 20
658.793
 30
0.0
  0
VERTEX
  8
4
 10
1816.742
 20
658.793
 30
0.0
  0
SEQEND
  8
4
  0
CIRCLE
  8
6
  62
     6
 10
1832.804
 20
682.413
 30
0.0
 40
10.000
  0
CIRCLE
  8
7
  62
     6
 10
1832.804
 20
682.413
 30
0.0
 40
26.000
  0
CIRCLE
  8
8
  62
     6
 10
1832.804
 20
682.413
 30
0.0
 40
12.000
  0
CIRCLE
  8
9
  62
     6
 10
1832.804
 20
682.413
 30
0.0
 40
12.000
  0
CIRCLE
  8
4
  62
     5
 10
1832.804
 20
682.413
 30
0.0
 40
1.000
  0
POLYLINE
  8
4
 62
     5
 66
     1
 10
0.0
 20
0.0
 30
0.0
 70
     1
  0
VERTEX
  8
4
 10
1850.866
 20
702.033
 30
0.0
  0
VERTEX
  8
4
 10
1881.369
 20
702.033
 30
0.0
  0
VERTEX
  8
4
 10
1881.369
 20
664.996
 30
0.0
  0
VERTEX
  8
4
 10
1850.866
 20
664.996
 30
0.0
  0
SEQEND
  8
4
  0
POLYLINE
  8
4
 62
     5
 66
     1
 10
0.0
 20
0.0
 30
0.0
 70
     1
  0
VERTEX
  8
4
 10
1855.866
 20
697.033
 30
0.0
  0
VERTEX
  8
4
 10
1876.369
 20
697.033
 30
0.0
  0
VERTEX
  8
4
 10
1876.369
 20
669.996
 30
0.0
  0
VERTEX
  8
4
 10
1855.866
 20
669.996
 30
0.0
  0
SEQEND
  8
4
  0
POLYLINE
  8
4
 62
     5
 66
     1
 10
0.0
 20
0.0
 30
0.0
 70
     1
  0
VERTEX
  8
4
 10
1850.866
 20
664.996
 30
0.0
  0
VERTEX
  8
4
 10
1881.369
 20
664.996
 30
0.0
  0
VERTEX
  8
4
 10
1881.369
 20
661.996
 30
0.0
  0
VERTEX
  8
4
 10
1850.866
 20
661.996
 30
0.0
  0
SEQEND
  8
4
  0
CIRCLE
  8
6
  62
     6
 10
1866.118
 20
683.515
 30
0.0
 40
10.000
  0
CIRCLE
  8
7
  62
     6
 10
1866.118
 20
683.515
 30
0.0
 40
26.000
  0
CIRCLE
  8
8
  62
     6
 10
1866.118
 20
683.515
 30
0.0
 40
12.000
  0
CIRCLE
  8
9
  62
     6
 10
1866.118
 20
683.515
 30
0.0
 40
12.000
  0
CIRCLE
  8
4
  62
     5
 10
1866.118
 20
683.515
 30
0.0
 40
1.000
  0
POLYLINE
  8
4
 62
     5
 66
     1
 10
0.0
 20
0.0
 30
0.0
 70
     1
  0
VERTEX
  8
4
 10
1889.780
 20
702.033
 30
0.0
  0
VERTEX
  8
4
 10
1918.780
 20
702.033
 30
0.0
  0
VERTEX
  8
4
 10
1918.780
 20
667.033
 30
0.0
  0
VERTEX
  8
4
 10
1889.780
 20
667.033
 30
0.0
  0
SEQEND
  8
4
  0
POLYLINE
  8
4
 62
     5
 66
     1
 10
0.0
 20
0.0
 30
0.0
 70
     1
  0
VERTEX
  8
4
 10
1894.780
 20
697.033
 30
0.0
  0
VERTEX
  8
4
 10
1913.780
 20
697.033
 30
0.0
  0
VERTEX
  8
4
 10
1913.780
 20
672.033
 30
0.0
  0
VERTEX
  8
4
 10
1894.780
 20
672.033
 30
0.0
  0
SEQEND
  8
4
  0
POLYLINE
  8
4
 62
     5
 66
     1
 10
0.0
 20
0.0
 30
0.0
 70
     1
  0
VERTEX
  8
4
 10
1889.780
 20
667.033
 30
0.0
  0
VERTEX
  8
4
 10
1918.780
 20
667.033
 30
0.0
  0
VERTEX
  8
4
 10
1918.780
 20
664.033
 30
0.0
  0
VERTEX
  8
4
 10
1889.780
 20
664.033
 30
0.0
  0
SEQEND
  8
4
  0
CIRCLE
  8
6
  62
     6
 10
1904.280
 20
684.533
 30
0.0
 40
8.000
  0
CIRCLE
  8
7
  62
     6
 10
1904.280
 20
684.533
 30
0.0
 40
22.000
  0
CIRCLE
  8
8
  62
     6
 10
1904.280
 20
684.533
 30
0.0
 40
10.000
  0
CIRCLE
  8
9
  62
     6
 10
1904.280
 20
684.533
 30
0.0
 40
10.000
  0
LINE
  8
4
  62
     5
 10
1903.219
 20
685.594
 30
0.0
 11
1905.341
 21
683.473
 31
0.0
  0
LINE
  8
4
  62
     5
 10
1903.219
 20
683.473
 30
0.0
 11
1905.341
 21
685.594
 31
0.0
  0
POLYLINE
  8
4
 62
     5
 66
     1
 10
0.0
 20
0.0
 30
0.0
 70
     1
  0
VERTEX
  8
4
 10
1930.362
 20
702.033
 30
0.0
  0
VERTEX
  8
4
 10
1958.198
 20
702.033
 30
0.0
  0
VERTEX
  8
4
 10
1958.198
 20
668.365
 30
0.0
  0
VERTEX
  8
4
 10
1930.362
 20
668.365
 30
0.0
  0
SEQEND
  8
4
  0
POLYLINE
  8
4
 62
     5
 66
     1
 10
0.0
 20
0.0
 30
0.0
 70
     1
  0
VERTEX
  8
4
 10
1935.362
 20
697.033
 30
0.0
  0
VERTEX
  8
4
 10
1953.198
 20
697.033
 30
0.0
  0
VERTEX
  8
4
 10
1953.198
 20
673.365
 30
0.0
  0
VERTEX
  8
4
 10
1935.362
 20
673.365
 30
0.0
  0
SEQEND
  8
4
  0
POLYLINE
  8
4
 62
     5
 66
     1
 10
0.0
 20
0.0
 30
0.0
 70
     1
  0
VERTEX
  8
4
 10
1930.362
 20
668.365
 30
0.0
  0
VERTEX
  8
4
 10
1958.198
 20
668.365
 30
0.0
  0
VERTEX
  8
4
 10
1958.198
 20
665.365
 30
0.0
  0
VERTEX
  8
4
 10
1930.362
 20
665.365
 30
0.0
  0
SEQEND
  8
4
  0
CIRCLE
  8
6
  62
     6
 10
1944.280
 20
685.199
 30
0.0
 40
8.000
  0
CIRCLE
  8
7
  62
     6
 10
1944.280
 20
685.199
 30
0.0
 40
22.000
  0
CIRCLE
  8
8
  62
     6
 10
1944.280
 20
685.199
 30
0.0
 40
10.000
  0
CIRCLE
  8
9
  62
     6
 10
1944.280
 20
685.199
 30
0.0
 40
10.000
  0
LINE
  8
4
  62
     5
 10
1943.219
 20
686.260
 30
0.0
 11
1945.341
 21
684.139
 31
0.0
  0
LINE
  8
4
  62
     5
 10
1943.219
 20
684.139
 30
0.0
 11
1945.341
 21
686.260
 31
0.0
  0
POLYLINE
  8
4
 62
     5
 66
     1
 10
0.0
 20
0.0
 30
0.0
 70
     1
  0
VERTEX
  8
4
 10
1970.909
 20
702.033
 30
0.0
  0
VERTEX
  8
4
 10
1997.651
 20
702.033
 30
0.0
  0
VERTEX
  8
4
 10
1997.651
 20
669.626
 30
0.0
  0
VERTEX
  8
4
 10
1970.909
 20
669.626
 30
0.0
  0
SEQEND
  8
4
  0
POLYLINE
  8
4
 62
     5
 66
     1
 10
0.0
 20
0.0
 30
0.0
 70
     1
  0
VERTEX
  8
4
 10
1975.909
 20
697.033
 30
0.0
  0
VERTEX
  8
4
 10
1992.651
 20
697.033
 30
0.0
  0
VERTEX
  8
4
 10
1992.651
 20
674.626
 30
0.0
  0
VERTEX
  8
4
 10
1975.909
 20
674.626
 30
0.0
  0
SEQEND
  8
4
  0
POLYLINE
  8
4
 62
     5
 66
     1
 10
0.0
 20
0.0
 30
0.0
 70
     1
  0
VERTEX
  8
4
 10
1970.909
 20
669.626
 30
0.0
  0
VERTEX
  8
4
 10
1997.651
 20
669.626
 30
0.0
  0
VERTEX
  8
4
 10
1997.651
 20
666.626
 30
0.0
  0
VERTEX
  8
4
 10
1970.909
 20
666.626
 30
0.0
  0
SEQEND
  8
4
  0
CIRCLE
  8
6
  62
     6
 10
1984.280
 20
685.830
 30
0.0
 40
8.000
  0
CIRCLE
  8
7
  62
     6
 10
1984.280
 20
685.830
 30
0.0
 40
22.000
  0
CIRCLE
  8
8
  62
     6
 10
1984.280
 20
685.830
 30
0.0
 40
10.000
  0
CIRCLE
  8
9
  62
     6
 10
1984.280
 20
685.830
 30
0.0
 40
10.000
  0
LINE
  8
4
  62
     5
 10
1983.219
 20
686.891
 30
0.0
 11
1985.341
 21
684.769
 31
0.0
  0
LINE
  8
4
  62
     5
 10
1983.219
 20
684.769
 30
0.0
 11
1985.341
 21
686.891
 31
0.0
  0
POLYLINE
  8
4
 62
     5
 66
     1
 10
0.0
 20
0.0
 30
0.0
 70
     1
  0
VERTEX
  8
4
 10
2011.422
 20
702.033
 30
0.0
  0
VERTEX
  8
4
 10
2037.138
 20
702.033
 30
0.0
  0
VERTEX
  8
4
 10
2037.138
 20
670.820
 30
0.0
  0
VERTEX
  8
4
 10
2011.422
 20
670.820
 30
0.0
  0
SEQEND
  8
4
  0
POLYLINE
  8
4
 62
     5
 66
     1
 10
0.0
 20
0.0
 30
0.0
 70
     1
  0
VERTEX
  8
4
 10
2016.422
 20
697.033
 30
0.0
  0
VERTEX
  8
4
 10
2032.138
 20
697.033
 30
0.0
  0
VERTEX
  8
4
 10
2032.138
 20
675.820
 30
0.0
  0
VERTEX
  8
4
 10
2016.422
 20
675.820
 30
0.0
  0
SEQEND
  8
4
  0
POLYLINE
  8
4
 62
     5
 66
     1
 10
0.0
 20
0.0
 30
0.0
 70
     1
  0
VERTEX
  8
4
 10
2011.422
 20
670.820
 30
0.0
  0
VERTEX
  8
4
 10
2037.138
 20
670.820
 30
0.0
  0
VERTEX
  8
4
 10
2037.138
 20
667.820
 30
0.0
  0
VERTEX
  8
4
 10
2011.422
 20
667.820
 30
0.0
  0
SEQEND
  8
4
  0
CIRCLE
  8
6
  62
     6
 10
2024.280
 20
686.427
 30
0.0
 40
8.000
  0
CIRCLE
  8
7
  62
     6
 10
2024.280
 20
686.427
 30
0.0
 40
22.000
  0
CIRCLE
  8
8
  62
     6
 10
2024.280
 20
686.427
 30
0.0
 40
10.000
  0
CIRCLE
  8
9
  62
     6
 10
2024.280
 20
686.427
 30
0.0
 40
10.000
  0
LINE
  8
4
  62
     5
 10
2023.219
 20
687.487
 30
0.0
 11
2025.341
 21
685.366
 31
0.0
  0
LINE
  8
4
  62
     5
 10
2023.219
 20
685.366
 30
0.0
 11
2025.341
 21
687.487
 31
0.0
  0
LINE
  8
5
  62
     8
 10
100.000
 20
800.000
 30
0.0
 11
2100.000
 21
800.000
 31
0.0
  0
TEXT
  8
1
  62
     7
 10
2110.000
 20
790.000
 30
0.0
 40
20.000
  1
Gedeckt 8
  7
STANDARD
  0
LINE
  8
5
  62
     8
 10
100.000
 20
816.000
 30
0.0
 11
2100.000
 21
816.000
 31
0.0
  0
LINE
  8
5
  62
     8
 10
100.000
 20
784.000
 30
0.0
 11
2100.000
 21
784.000
 31
0.0
  0
POLYLINE
  8
4
 62
     5
 66
     1
 10
0.0
 20
0.0
 30
0.0
 70
     1
  0
VERTEX
  8
4
 10
143.000
 20
871.000
 30
0.0
  0
VERTEX
  8
4
 10
257.000
 20
871.000
 30
0.0
  0
VERTEX
  8
4
 10
257.000
 20
729.000
 30
0.0
  0
VERTEX
  8
4
 10
143.000
 20
729.000
 30
0.0
  0
SEQEND
  8
4
  0
POLYLINE
  8
4
 62
     5
 66
     1
 10
0.0
 20
0.0
 30
0.0
 70
     1
  0
VERTEX
  8
4
 10
155.000
 20
859.000
 30
0.0
  0
VERTEX
  8
4
 10
245.000
 20
859.000
 30
0.0
  0
VERTEX
  8
4
 10
245.000
 20
741.000
 30
0.0
  0
VERTEX
  8
4
 10
155.000
 20
741.000
 30
0.0
  0
SEQEND
  8
4
  0
POLYLINE
  8
4
 62
     5
 66
     1
 10
0.0
 20
0.0
 30
0.0
 70
     1
  0
VERTEX
  8
4
 10
143.000
 20
729.000
 30
0.0
  0
VERTEX
  8
4
 10
257.000
 20
729.000
 30
0.0
  0
VERTEX
  8
4
 10
257.000
 20
719.000
 30
0.0
  0
VERTEX
  8
4
 10
143.000
 20
719.000
 30
0.0
  0
SEQEND
  8
4
  0
LINE
  8
4
  62
     5
 10
198.939
 20
801.061
 30
0.0
 11
201.061
 21
798.939
 31
0.0
  0
LINE
  8
4
  62
     5
 10
198.939
 20
798.939
 30
0.0
 11
201.061
 21
801.061
 31
0.0
  0
POLYLINE
  8
4
 62
     5
 66
     1
 10
0.0
 20
0.0
 30
0.0
 70
     1
  0
VERTEX
  8
4
 10
309.163
 20
871.000
 30
0.0
  0
VERTEX
  8
4
 10
415.561
 20
871.000
 30
0.0
  0
VERTEX
  8
4
 10
415.561
 20
738.580
 30
0.0
  0
VERTEX
  8
4
 10
309.163
 20
738.580
 30
0.0
  0
SEQEND
  8
4
  0
POLYLINE
  8
4
 62
     5
 66
     1
 10
0.0
 20
0.0
 30
0.0
 70
     1
  0
VERTEX
  8
4
 10
321.163
 20
859.000
 30
0.0
  0
VERTEX
  8
4
 10
403.561
 20
859.000
 30
0.0
  0
VERTEX
  8
4
 10
403.561
 20
750.580
 30
0.0
  0
VERTEX
  8
4
 10
321.163
 20
750.580
 30
0.0
  0
SEQEND
  8
4
  0
POLYLINE
  8
4
 62
     5
 66
     1
 10
0.0
 20
0.0
 30
0.0
 70
     1
  0
VERTEX
  8
4
 10
309.163
 20
738.580
 30
0.0
  0
VERTEX
  8
4
 10
415.561
 20
738.580
 30
0.0
  0
VERTEX
  8
4
 10
415.561
 20
730.580
 30
0.0
  0
VERTEX
  8
4
 10
309.163
 20
730.580
 30
0.0
  0
SEQEND
  8
4
  0
LINE
  8
4
  62
     5
 10
361.302
 20
805.850
 30
0.0
 11
363.423
 21
803.729
 31
0.0
  0
LINE
  8
4
  62
     5
 10
361.302
 20
803.729
 30
0.0
 11
363.423
 21
805.850
 31
0.0
  0
POLYLINE
  8
4
 62
     5
 66
     1
 10
0.0
 20
0.0
 30
0.0
 70
     1
  0
VERTEX
  8
4
 10
463.812
 20
871.000
 30
0.0
  0
VERTEX
  8
4
 10
563.249
 20
871.000
 30
0.0
  0
VERTEX
  8
4
 10
563.249
 20
747.381
 30
0.0
  0
VERTEX
  8
4
 10
463.812
 20
747.381
 30
0.0
  0
SEQEND
  8
4
  0
POLYLINE
  8
4
 62
     5
 66
     1
 10
0.0
 20
0.0
 30
0.0
 70
     1
  0
VERTEX
  8
4
 10
475.812
 20
859.000
 30
0.0
  0
VERTEX
  8
4
 10
551.249
 20
859.000
 30
0.0
  0
VERTEX
  8
4
 10
551.249
 20
759.381
 30
0.0
  0
VERTEX
  8
4
 10
475.812
 20
759.381
 30
0.0
  0
SEQEND
  8
4
  0
POLYLINE
  8
4
 62
     5
 66
     1
 10
0.0
 20
0.0
 30
0.0
 70
     1
  0
VERTEX
  8
4
 10
463.812
 20
747.381
 30
0.0
  0
VERTEX
  8
4
 10
563.249
 20
747.381
 30
0.0
  0
VERTEX
  8
4
 10
563.249
 20
740.381
 30
0.0
  0
VERTEX
  8
4
 10
463.812
 20
740.381
 30
0.0
  0
SEQEND
  8
4
  0
LINE
  8
4
  62
     5
 10
512.470
 20
810.251
 30
0.0
 11
514.591
 21
808.130
 31
0.0
  0
LINE
  8
4
  62
     5
 10
512.470
 20
808.130
 30
0.0
 11
514.591
 21
810.251
 31
0.0
  0
POLYLINE
  8
4
 62
     5
 66
     1
 10
0.0
 20
0.0
 30
0.0
 70
     1
  0
VERTEX
  8
4
 10
609.805
 20
871.000
 30
0.0
  0
VERTEX
  8
4
 10
698.870
 20
871.000
 30
0.0
  0
VERTEX
  8
4
 10
698.870
 20
759.469
 30
0.0
  0
VERTEX
  8
4
 10
609.805
 20
759.469
 30
0.0
  0
SEQEND
  8
4
  0
POLYLINE
  8
4
 62
     5
 66
     1
 10
0.0
 20
0.0
 30
0.0
 70
     1
  0
VERTEX
  8
4
 10
619.805
 20
861.000
 30
0.0
  0
VERTEX
  8
4
 10
688.870
 20
861.000
 30
0.0
  0
VERTEX
  8
4
 10
688.870
 20
769.469
 30
0.0
  0
VERTEX
  8
4
 10
619.805
 20
769.469
 30
0.0
  0
SEQEND
  8
4
  0
POLYLINE
  8
4
 62
     5
 66
     1
 10
0.0
 20
0.0
 30
0.0
 70
     1
  0
VERTEX
  8
4
 10
609.805
 20
759.469
 30
0.0
  0
VERTEX
  8
4
 10
698.870
 20
759.469
 30
0.0
  0
VERTEX
  8
4
 10
698.870
 20
751.469
 30
0.0
  0
VERTEX
  8
4
 10
609.805
 20
751.469
 30
0.0
  0
SEQEND
  8
4
  0
LINE
  8
4
  62
     5
 10
653.277
 20
816.295
 30
0.0
 11
655.398
 21
814.174
 31
0.0
  0
LINE
  8
4
  62
     5
 10
653.277
 20
814.174
 30
0.0
 11
655.398
 21
816.295
 31
0.0
  0
POLYLINE
  8
4
 62
     5
 66
     1
 10
0.0
 20
0.0
 30
0.0
 70
     1
  0
VERTEX
  8
4
 10
743.937
 20
871.000
 30
0.0
  0
VERTEX
  8
4
 10
827.168
 20
871.000
 30
0.0
  0
VERTEX
  8
4
 10
827.168
 20
766.899
 30
0.0
  0
VERTEX
  8
4
 10
743.937
 20
766.899
 30
0.0
  0
SEQEND
  8
4
  0
POLYLINE
  8
4
 62
     5
 66
     1
 10
0.0
 20
0.0
 30
0.0
 70
     1
  0
VERTEX
  8
4
 10
753.937
 20
861.000
 30
0.0
  0
VERTEX
  8
4
 10
817.168
 20
861.000
 30
0.0
  0
VERTEX
  8
4
 10
817.168
 20
776.899
 30
0.0
  0
VERTEX
  8
4
 10
753.937
 20
776.899
 30
0.0
  0
SEQEND
  8
4
  0
POLYLINE
  8
4
 62
     5
 66
     1
 10
0.0
 20
0.0
 30
0.0
 70
     1
  0
VERTEX
  8
4
 10
743.937
 20
766.899
 30
0.0
  0
VERTEX
  8
4
 10
827.168
 20
766.899
 30
0.0
  0
VERTEX
  8
4
 10
827.168
 20
760.899
 30
0.0
  0
VERTEX
  8
4
 10
743.937
 20
760.899
 30
0.0
  0
SEQEND
  8
4
  0
LINE
  8
4
  62
     5
 10
784.492
 20
820.010
 30
0.0
 11
786.613
 21
817.889
 31
0.0
  0
LINE
  8
4
  62
     5
 10
784.492
 20
817.889
 30
0.0
 11
786.613
 21
820.010
 31
0.0
  0
POLYLINE
  8
4
 62
     5
 66
     1
 10
0.0
 20
0.0
 30
0.0
 70
     1
  0
VERTEX
  8
4
 10
869.943
 20
871.000
 30
0.0
  0
VERTEX
  8
4
 10
945.833
 20
871.000
 30
0.0
  0
VERTEX
  8
4
 10
945.833
 20
775.727
 30
0.0
  0
VERTEX
  8
4
 10
869.943
 20
775.727
 30
0.0
  0
SEQEND
  8
4
  0
POLYLINE
  8
4
 62
     5
 66
     1
 10
0.0
 20
0.0
 30
0.0
 70
     1
  0
VERTEX
  8
4
 10
878.943
 20
862.000
 30
0.0
  0
VERTEX
  8
4
 10
936.833
 20
862.000
 30
0.0
  0
VERTEX
  8
4
 10
936.833
 20
784.727
 30
0.0
  0
VERTEX
  8
4
 10
878.943
 20
784.727
 30
0.0
  0
SEQEND
  8
4
  0
POLYLINE
  8
4
 62
     5
 66
     1
 10
0.0
 20
0.0
 30
0.0
 70
     1
  0
VERTEX
  8
4
 10
869.943
 20
775.727
 30
0.0
  0
VERTEX
  8
4
 10
945.833
 20
775.727
 30
0.0
  0
VERTEX
  8
4
 10
945.833
 20
768.727
 30
0.0
  0
VERTEX
  8
4
 10
869.943
 20
768.727
 30
0.0
  0
SEQEND
  8
4
  0
LINE
  8
4
  62
     5
 10
906.827
 20
824.424
 30
0.0
 11
908.948
 21
822.303
 31
0.0
  0
LINE
  8
4
  62
     5
 10
906.827
 20
822.303
 30
0.0
 11
908.948
 21
824.424
 31
0.0
  0
LINE
  8
5
  62
     8
 10
100.000
 20
800.000
 30
0.0
 11
2100.000
 21
800.000
 31
0.0
  0
TEXT
  8
1
  62
     7
 10
2110.000
 20
790.000
 30
0.0
 40
20.000
  1
Gedeckt 8
  7
STANDARD
  0
LINE
  8
5
  62
     8
 10
100.000
 20
816.000
 30
0.0
 11
2100.000
 21
816.000
 31
0.0
  0
LINE
  8
5
  62
     8
 10
100.000
 20
784.000
 30
0.0
 11
2100.000
 21
784.000
 31
0.0
  0
CIRCLE
  8
3
  62
     5
 10
1018.998
 20
784.000
 30
0.0
 40
23.500
  0
CIRCLE
  8
6
  62
     6
 10
1018.998
 20
784.000
 30
0.0
 40
24.000
  0
CIRCLE
  8
7
  62
     6
 10
1018.998
 20
806.000
 30
0.0
 40
37.000
  0
CIRCLE
  8
8
  62
     6
 10
1018.998
 20
806.000
 30
0.0
 40
21.000
  0
CIRCLE
  8
9
  62
     6
 10
1018.998
 20
806.000
 30
0.0
 40
21.000
  0
CIRCLE
  8
7
  62
     6
 10
1018.998
 20
762.000
 30
0.0
 40
37.000
  0
CIRCLE
  8
8
  62
     6
 10
1018.998
 20
762.000
 30
0.0
 40
21.000
  0
CIRCLE
  8
9
  62
     6
 10
1018.998
 20
762.000
 30
0.0
 40
21.000
  0
LINE
  8
3
  62
     5
 10
1017.937
 20
785.061
 30
0.0
 11
1020.059
 21
782.939
 31
0.0
  0
LINE
  8
3
  62
     5
 10
1017.937
 20
782.939
 30
0.0
 11
1020.059
 21
785.061
 31
0.0
  0
CIRCLE
  8
3
  62
     5
 10
1110.778
 20
816.000
 30
0.0
 40
21.683
  0
CIRCLE
  8
6
  62
     6
 10
1110.778
 20
816.000
 30
0.0
 40
24.000
  0
CIRCLE
  8
7
  62
     6
 10
1110.778
 20
838.000
 30
0.0
 40
37.000
  0
CIRCLE
  8
8
  62
     6
 10
1110.778
 20
838.000
 30
0.0
 40
21.000
  0
CIRCLE
  8
9
  62
     6
 10
1110.778
 20
838.000
 30
0.0
 40
21.000
  0
CIRCLE
  8
7
  62
     6
 10
1110.778
 20
794.000
 30
0.0
 40
37.000
  0
CIRCLE
  8
8
  62
     6
 10
1110.778
 20
794.000
 30
0.0
 40
21.000
  0
CIRCLE
  8
9
  62
     6
 10
1110.778
 20
794.000
 30
0.0
 40
21.000
  0
LINE
  8
3
  62
     5
 10
1109.717
 20
817.061
 30
0.0
 11
1111.839
 21
814.939
 31
0.0
  0
LINE
  8
3
  62
     5
 10
1109.717
 20
814.939
 30
0.0
 11
1111.839
 21
817.061
 31
0.0
  0
CIRCLE
  8
3
  62
     5
 10
1192.139
 20
784.000
 30
0.0
 40
20.006
  0
CIRCLE
  8
6
  62
     6
 10
1192.139
 20
784.000
 30
0.0
 40
22.000
  0
CIRCLE
  8
7
  62
     6
 10
1192.139
 20
806.000
 30
0.0
 40
37.000
  0
CIRCLE
  8
8
  62
     6
 10
1192.139
 20
806.000
 30
0.0
 40
21.000
  0
CIRCLE
  8
9
  62
     6
 10
1192.139
 20
806.000
 30
0.0
 40
21.000
  0
CIRCLE
  8
7
  62
     6
 10
1192.139
 20
762.000
 30
0.0
 40
37.000
  0
CIRCLE
  8
8
  62
     6
 10
1192.139
 20
762.000
 30
0.0
 40
21.000
  0
CIRCLE
  8
9
  62
     6
 10
1192.139
 20
762.000
 30
0.0
 40
21.000
  0
LINE
  8
3
  62
     5
 10
1191.079
 20
785.061
 30
0.0
 11
1193.200
 21
782.939
 31
0.0
  0
LINE
  8
3
  62
     5
 10
1191.079
 20
782.939
 30
0.0
 11
1193.200
 21
785.061
 31
0.0
  0
CIRCLE
  8
3
  62
     5
 10
1263.734
 20
816.000
 30
0.0
 40
18.459
  0
CIRCLE
  8
6
  62
     6
 10
1263.734
 20
816.000
 30
0.0
 40
22.000
  0
CIRCLE
  8
7
  62
     6
 10
1263.734
 20
838.000
 30
0.0
 40
37.000
  0
CIRCLE
  8
8
  62
     6
 10
1263.734
 20
838.000
 30
0.0
 40
21.000
  0
CIRCLE
  8
9
  62
     6
 10
1263.734
 20
838.000
 30
0.0
 40
21.000
  0
CIRCLE
  8
7
  62
     6
 10
1263.734
 20
794.000
 30
0.0
 40
37.000
  0
CIRCLE
  8
8
  62
     6
 10
1263.734
 20
794.000
 30
0.0
 40
21.000
  0
CIRCLE
  8
9
  62
     6
 10
1263.734
 20
794.000
 30
0.0
 40
21.000
  0
LINE
  8
3
  62
     5
 10
1262.674
 20
817.061
 30
0.0
 11
1264.795
 21
814.939
 31
0.0
  0
LINE
  8
3
  62
     5
 10
1262.674
 20
814.939
 30
0.0
 11
1264.795
 21
817.061
 31
0.0
  0
CIRCLE
  8
3
  62
     5
 10
1326.080
 20
784.000
 30
0.0
 40
17.032
  0
CIRCLE
  8
6
  62
     6
 10
1326.080
 20
784.000
 30
0.0
 40
20.000
  0
CIRCLE
  8
7
  62
     6
 10
1326.080
 20
784.000
 30
0.0
 40
37.000
  0
CIRCLE
  8
8
  62
     6
 10
1326.080
 20
784.000
 30
0.0
 40
21.000
  0
CIRCLE
  8
9
  62
     6
 10
1326.080
 20
784.000
 30
0.0
 40
21.000
  0
LINE
  8
3
  62
     5
 10
1325.019
 20
785.061
 30
0.0
 11
1327.140
 21
782.939
 31
0.0
  0
LINE
  8
3
  62
     5
 10
1325.019
 20
782.939
 30
0.0
 11
1327.140
 21
785.061
 31
0.0
  0
CIRCLE
  8
3
  62
     5
 10
1379.539
 20
816.000
 30
0.0
 40
15.715
  0
CIRCLE
  8
6
  62
     6
 10
1379.539
 20
816.000
 30
0.0
 40
20.000
  0
CIRCLE
  8
7
  62
     6
 10
1379.539
 20
816.000
 30
0.0
 40
37.000
  0
CIRCLE
  8
8
  62
     6
 10
1379.539
 20
816.000
 30
0.0
 40
21.000
  0
CIRCLE
  8
9
  62
     6
 10
1379.539
 20
816.000
 30
0.0
 40
21.000
  0
LINE
  8
3
  62
     5
 10
1378.478
 20
817.061
 30
0.0
 11
1380.600
 21
814.939
 31
0.0
  0
LINE
  8
3
  62
     5
 10
1378.478
 20
814.939
 30
0.0
 11
1380.600
 21
817.061
 31
0.0
  0
CIRCLE
  8
3
  62
     5
 10
1424.280
 20
784.000
 30
0.0
 40
14.500
  0
CIRCLE
  8
6
  62
     6
 10
1424.280
 20
784.000
 30
0.0
 40
17.000
  0
CIRCLE
  8
7
  62
     6
 10
1424.280
 20
784.000
 30
0.0
 40
30.000
  0
CIRCLE
  8
8
  62
     6
 10
1424.280
 20
784.000
 30
0.0
 40
17.000
  0
CIRCLE
  8
9
  62
     6
 10
1424.280
 20
784.000
 30
0.0
 40
17.000
  0
LINE
  8
3
  62
     5
 10
1423.219
 20
785.061
 30
0.0
 11
1425.341
 21
782.939
 31
0.0
  0
LINE
  8
3
  62
     5
 10
1423.219
 20
782.939
 30
0.0
 11
1425.341
 21
785.061
 31
0.0
  0
CIRCLE
  8
3
  62
     5
 10
1464.280
 20
816.000
 30
0.0
 40
13.392
  0
CIRCLE
  8
6
  62
     6
 10
1464.280
 20
816.000
 30
0.0
 40
17.000
  0
CIRCLE
  8
7
  62
     6
 10
1464.280
 20
816.000
 30
0.0
 40
30.000
  0
CIRCLE
  8
8
  62
     6
 10
1464.280
 20
816.000
 30
0.0
 40
17.000
  0
CIRCLE
  8
9
  62
     6
 10
1464.280
 20
816.000
 30
0.0
 40
17.000
  0
LINE
  8
3
  62
     5
 10
1463.219
 20
817.061
 30
0.0
 11
1465.341
 21
814.939
 31
0.0
  0
LINE
  8
3
  62
     5
 10
1463.219
 20
814.939
 30
0.0
 11
1465.341
 21
817.061
 31
0.0
  0
CIRCLE
  8
3
  62
     5
 10
1504.280
 20
784.000
 30
0.0
 40
12.369
  0
CIRCLE
  8
6
  62
     6
 10
1504.280
 20
784.000
 30
0.0
 40
14.000
  0
CIRCLE
  8
7
  62
     6
 10
1504.280
 20
784.000
 30
0.0
 40
30.000
  0
CIRCLE
  8
8
  62
     6
 10
1504.280
 20
784.000
 30
0.0
 40
17.000
  0
CIRCLE
  8
9
  62
     6
 10
1504.280
 20
784.000
 30
0.0
 40
17.000
  0
LINE
  8
3
  62
     5
 10
1503.219
 20
785.061
 30
0.0
 11
1505.341
 21
782.939
 31
0.0
  0
LINE
  8
3
  62
     5
 10
1503.219
 20
782.939
 30
0.0
 11
1505.341
 21
785.061
 31
0.0
  0
CIRCLE
  8
3
  62
     5
 10
1544.280
 20
816.000
 30
0.0
 40
11.424
  0
CIRCLE
  8
6
  62
     6
 10
1544.280
 20
816.000
 30
0.0
 40
14.000
  0
CIRCLE
  8
7
  62
     6
 10
1544.280
 20
816.000
 30
0.0
 40
30.000
  0
CIRCLE
  8
8
  62
     6
 10
1544.280
 20
816.000
 30
0.0
 40
17.000
  0
CIRCLE
  8
9
  62
     6
 10
1544.280
 20
816.000
 30
0.0
 40
17.000
  0
LINE
  8
3
  62
     5
 10
1543.219
 20
817.061
 30
0.0
 11
1545.341
 21
814.939
 31
0.0
  0
LINE
  8
3
  62
     5
 10
1543.219
 20
814.939
 30
0.0
 11
1545.341
 21
817.061
 31
0.0
  0
CIRCLE
  8
3
  62
     5
 10
1584.280
 20
784.000
 30
0.0
 40
10.551
  0
CIRCLE
  8
6
  62
     6
 10
1584.280
 20
784.000
 30
0.0
 40
13.000
  0
CIRCLE
  8
7
  62
     6
 10
1584.280
 20
784.000
 30
0.0
 40
30.000
  0
CIRCLE
  8
8
  62
     6
 10
1584.280
 20
784.000
 30
0.0
 40
17.000
  0
CIRCLE
  8
9
  62
     6
 10
1584.280
 20
784.000
 30
0.0
 40
17.000
  0
LINE
  8
3
  62
     5
 10
1583.219
 20
785.061
 30
0.0
 11
1585.341
 21
782.939
 31
0.0
  0
LINE
  8
3
  62
     5
 10
1583.219
 20
782.939
 30
0.0
 11
1585.341
 21
785.061
 31
0.0
  0
CIRCLE
  8
3
  62
     5
 10
1624.280
 20
816.000
 30
0.0
 40
9.745
  0
CIRCLE
  8
6
  62
     6
 10
1624.280
 20
816.000
 30
0.0
 40
13.000
  0
CIRCLE
  8
7
  62
     6
 10
1624.280
 20
816.000
 30
0.0
 40
30.000
  0
CIRCLE
  8
8
  62
     6
 10
1624.280
 20
816.000
 30
0.0
 40
17.000
  0
CIRCLE
  8
9
  62
     6
 10
1624.280
 20
816.000
 30
0.0
 40
17.000
  0
LINE
  8
3
  62
     5
 10
1623.219
 20
817.061
 30
0.0
 11
1625.341
 21
814.939
 31
0.0
  0
LINE
  8
3
  62
     5
 10
1623.219
 20
814.939
 30
0.0
 11
1625.341
 21
817.061
 31
0.0
  0
CIRCLE
  8
3
  62
     5
 10
1664.280
 20
784.000
 30
0.0
 40
9.000
  0
CIRCLE
  8
6
  62
     6
 10
1664.280
 20
784.000
 30
0.0
 40
11.000
  0
CIRCLE
  8
7
  62
     6
 10
1664.280
 20
784.000
 30
0.0
 40
26.000
  0
CIRCLE
  8
8
  62
     6
 10
1664.280
 20
784.000
 30
0.0
 40
12.000
  0
CIRCLE
  8
9
  62
     6
 10
1664.280
 20
784.000
 30
0.0
 40
12.000
  0
LINE
  8
3
  62
     5
 10
1663.219
 20
785.061
 30
0.0
 11
1665.341
 21
782.939
 31
0.0
  0
LINE
  8
3
  62
     5
 10
1663.219
 20
782.939
 30
0.0
 11
1665.341
 21
785.061
 31
0.0
  0
CIRCLE
  8
3
  62
     5
 10
1704.280
 20
816.000
 30
0.0
 40
8.412
  0
CIRCLE
  8
6
  62
     6
 10
1704.280
 20
816.000
 30
0.0
 40
11.000
  0
CIRCLE
  8
7
  62
     6
 10
1704.280
 20
816.000
 30
0.0
 40
26.000
  0
CIRCLE
  8
8
  62
     6
 10
1704.280
 20
816.000
 30
0.0
 40
12.000
  0
CIRCLE
  8
9
  62
     6
 10
1704.280
 20
816.000
 30
0.0
 40
12.000
  0
LINE
  8
3
  62
     5
 10
1703.219
 20
817.061
 30
0.0
 11
1705.341
 21
814.939
 31
0.0
  0
LINE
  8
3
  62
     5
 10
1703.219
 20
814.939
 30
0.0
 11
1705.341
 21
817.061
 31
0.0
  0
CIRCLE
  8
3
  62
     5
 10
1744.280
 20
784.000
 30
0.0
 40
7.862
  0
CIRCLE
  8
6
  62
     6
 10
1744.280
 20
784.000
 30
0.0
 40
10.000
  0
CIRCLE
  8
7
  62
     6
 10
1744.280
 20
784.000
 30
0.0
 40
26.000
  0
CIRCLE
  8
8
  62
     6
 10
1744.280
 20
784.000
 30
0.0
 40
12.000
  0
CIRCLE
  8
9
  62
     6
 10
1744.280
 20
784.000
 30
0.0
 40
12.000
  0
LINE
  8
3
  62
     5
 10
1743.219
 20
785.061
 30
0.0
 11
1745.341
 21
782.939
 31
0.0
  0
LINE
  8
3
  62
     5
 10
1743.219
 20
782.939
 30
0.0
 11
1745.341
 21
785.061
 31
0.0
  0
CIRCLE
  8
3
  62
     5
 10
1784.280
 20
816.000
 30
0.0
 40
7.348
  0
CIRCLE
  8
6
  62
     6
 10
1784.280
 20
816.000
 30
0.0
 40
10.000
  0
CIRCLE
  8
7
  62
     6
 10
1784.280
 20
816.000
 30
0.0
 40
26.000
  0
CIRCLE
  8
8
  62
     6
 10
1784.280
 20
816.000
 30
0.0
 40
12.000
  0
CIRCLE
  8
9
  62
     6
 10
1784.280
 20
816.000
 30
0.0
 40
12.000
  0
LINE
  8
3
  62
     5
 10
1783.219
 20
817.061
 30
0.0
 11
1785.341
 21
814.939
 31
0.0
  0
LINE
  8
3
  62
     5
 10
1783.219
 20
814.939
 30
0.0
 11
1785.341
 21
817.061
 31
0.0
  0
CIRCLE
  8
3
  62
     5
 10
1824.280
 20
784.000
 30
0.0
 40
6.868
  0
CIRCLE
  8
6
  62
     6
 10
1824.280
 20
784.000
 30
0.0
 40
10.000
  0
CIRCLE
  8
7
  62
     6
 10
1824.280
 20
784.000
 30
0.0
 40
26.000
  0
CIRCLE
  8
8
  62
     6
 10
1824.280
 20
784.000
 30
0.0
 40
12.000
  0
CIRCLE
  8
9
  62
     6
 10
1824.280
 20
784.000
 30
0.0
 40
12.000
  0
LINE
  8
3
  62
     5
 10
1823.219
 20
785.061
 30
0.0
 11
1825.341
 21
782.939
 31
0.0
  0
LINE
  8
3
  62
     5
 10
1823.219
 20
782.939
 30
0.0
 11
1825.341
 21
785.061
 31
0.0
  0
CIRCLE
  8
3
  62
     5
 10
1864.280
 20
816.000
 30
0.0
 40
6.419
  0
CIRCLE
  8
6
  62
     6
 10
1864.280
 20
816.000
 30
0.0
 40
10.000
  0
CIRCLE
  8
7
  62
     6
 10
1864.280
 20
816.000
 30
0.0
 40
26.000
  0
CIRCLE
  8
8
  62
     6
 10
1864.280
 20
816.000
 30
0.0
 40
12.000
  0
CIRCLE
  8
9
  62
     6
 10
1864.280
 20
816.000
 30
0.0
 40
12.000
  0
LINE
  8
3
  62
     5
 10
1863.219
 20
817.061
 30
0.0
 11
1865.341
 21
814.939
 31
0.0
  0
LINE
  8
3
  62
     5
 10
1863.219
 20
814.939
 30
0.0
 11
1865.341
 21
817.061
 31
0.0
  0
CIRCLE
  8
3
  62
     5
 10
1904.280
 20
784.000
 30
0.0
 40
6.000
  0
CIRCLE
  8
6
  62
     6
 10
1904.280
 20
784.000
 30
0.0
 40
8.000
  0
CIRCLE
  8
7
  62
     6
 10
1904.280
 20
784.000
 30
0.0
 40
22.000
  0
CIRCLE
  8
8
  62
     6
 10
1904.280
 20
784.000
 30
0.0
 40
10.000
  0
CIRCLE
  8
9
  62
     6
 10
1904.280
 20
784.000
 30
0.0
 40
10.000
  0
LINE
  8
3
  62
     5
 10
1903.219
 20
785.061
 30
0.0
 11
1905.341
 21
782.939
 31
0.0
  0
LINE
  8
3
  62
     5
 10
1903.219
 20
782.939
 30
0.0
 11
1905.341
 21
785.061
 31
0.0
  0
CIRCLE
  8
3
  62
     5
 10
1944.280
 20
816.000
 30
0.0
 40
0.000
  0
CIRCLE
  8
6
  62
     6
 10
1944.280
 20
816.000
 30
0.0
 40
8.000
  0
CIRCLE
  8
7
  62
     6
 10
1944.280
 20
816.000
 30
0.0
 40
22.000
  0
CIRCLE
  8
8
  62
     6
 10
1944.280
 20
816.000
 30
0.0
 40
10.000
  0
CIRCLE
  8
9
  62
     6
 10
1944.280
 20
816.000
 30
0.0
 40
10.000
  0
LINE
  8
3
  62
     5
 10
1943.219
 20
817.061
 30
0.0
 11
1945.341
 21
814.939
 31
0.0
  0
LINE
  8
3
  62
     5
 10
1943.219
 20
814.939
 30
0.0
 11
1945.341
 21
817.061
 31
0.0
  0
CIRCLE
  8
3
  62
     5
 10
1984.280
 20
784.000
 30
0.0
 40
0.000
  0
CIRCLE
  8
6
  62
     6
 10
1984.280
 20
784.000
 30
0.0
 40
8.000
  0
CIRCLE
  8
7
  62
     6
 10
1984.280
 20
784.000
 30
0.0
 40
22.000
  0
CIRCLE
  8
8
  62
     6
 10
1984.280
 20
784.000
 30
0.0
 40
10.000
  0
CIRCLE
  8
9
  62
     6
 10
1984.280
 20
784.000
 30
0.0
 40
10.000
  0
LINE
  8
3
  62
     5
 10
1983.219
 20
785.061
 30
0.0
 11
1985.341
 21
782.939
 31
0.0
  0
LINE
  8
3
  62
     5
 10
1983.219
 20
782.939
 30
0.0
 11
1985.341
 21
785.061
 31
0.0
  0
CIRCLE
  8
3
  62
     5
 10
2024.280
 20
816.000
 30
0.0
 40
0.000
  0
CIRCLE
  8
6
  62
     6
 10
2024.280
 20
816.000
 30
0.0
 40
8.000
  0
CIRCLE
  8
7
  62
     6
 10
2024.280
 20
816.000
 30
0.0
 40
22.000
  0
CIRCLE
  8
8
  62
     6
 10
2024.280
 20
816.000
 30
0.0
 40
10.000
  0
CIRCLE
  8
9
  62
     6
 10
2024.280
 20
816.000
 30
0.0
 40
10.000
  0
LINE
  8
3
  62
     5
 10
2023.219
 20
817.061
 30
0.0
 11
2025.341
 21
814.939
 31
0.0
  0
LINE
  8
3
  62
     5
 10
2023.219
 20
814.939
 30
0.0
 11
2025.341
 21
817.061
 31
0.0
  0
LINE
  8
5
  62
     8
 10
100.000
 20
1000.000
 30
0.0
 11
2100.000
 21
1000.000
 31
0.0
  0
TEXT
  8
1
  62
     7
 10
2110.000
 20
990.000
 30
0.0
 40
20.000
  1
Mixmai
  7
STANDARD
  0
CIRCLE
  8
3
  62
     5
 10
210.250
 20
934.000
 30
0.0
 40
24.000
  0
CIRCLE
  8
3
  62
     5
 10
210.250
 20
934.000
 30
0.0
 40
1.000
  0
CIRCLE
  8
3
  62
     5
 10
189.750
 20
981.666
 30
0.0
 40
17.888
  0
CIRCLE
  8
3
  62
     5
 10
189.750
 20
981.666
 30
0.0
 40
1.000
  0
CIRCLE
  8
3
  62
     5
 10
210.250
 20
1018.767
 30
0.0
 40
14.500
  0
CIRCLE
  8
3
  62
     5
 10
210.250
 20
1018.767
 30
0.0
 40
1.000
  0
CIRCLE
  8
3
  62
     5
 10
189.750
 20
1047.281
 30
0.0
 40
10.619
  0
CIRCLE
  8
3
  62
     5
 10
189.750
 20
1047.281
 30
0.0
 40
1.000
  0
CIRCLE
  8
3
  62
     5
 10
210.250
 20
1067.961
 30
0.0
 40
8.500
  0
CIRCLE
  8
3
  62
     5
 10
210.250
 20
1067.961
 30
0.0
 40
1.000
  0
CIRCLE
  8
3
  62
     5
 10
189.750
 20
1082.433
 30
0.0
 40
6.594
  0
CIRCLE
  8
3
  62
     5
 10
189.750
 20
1082.433
 30
0.0
 40
1.000
  0
CIRCLE
  8
3
  62
     5
 10
370.862
 20
934.000
 30
0.0
 40
22.067
  0
CIRCLE
  8
3
  62
     5
 10
370.862
 20
934.000
 30
0.0
 40
1.000
  0
CIRCLE
  8
3
  62
     5
 10
353.862
 20
979.437
 30
0.0
 40
16.447
  0
CIRCLE
  8
3
  62
     5
 10
353.862
 20
979.437
 30
0.0
 40
1.000
  0
CIRCLE
  8
3
  62
     5
 10
370.862
 20
1015.326
 30
0.0
 40
13.265
  0
CIRCLE
  8
3
  62
     5
 10
370.862
 20
1015.326
 30
0.0
 40
1.000
  0
CIRCLE
  8
3
  62
     5
 10
353.862
 20
1043.586
 30
0.0
 40
9.714
  0
CIRCLE
  8
3
  62
     5
 10
353.862
 20
1043.586
 30
0.0
 40
1.000
  0
CIRCLE
  8
3
  62
     5
 10
370.862
 20
1065.354
 30
0.0
 40
7.905
  0
CIRCLE
  8
3
  62
     5
 10
370.862
 20
1065.354
 30
0.0
 40
1.000
  0
CIRCLE
  8
3
  62
     5
 10
353.862
 20
1082.348
 30
0.0
 40
6.132
  0
CIRCLE
  8
3
  62
     5
 10
353.862
 20
1082.348
 30
0.0
 40
1.000
  0
CIRCLE
  8
3
  62
     5
 10
519.781
 20
934.000
 30
0.0
 40
20.289
  0
CIRCLE
  8
3
  62
     5
 10
519.781
 20
934.000
 30
0.0
 40
1.000
  0
CIRCLE
  8
3
  62
     5
 10
507.281
 20
977.657
 30
0.0
 40
15.122
  0
CIRCLE
  8
3
  62
     5
 10
507.281
 20
977.657
 30
0.0
 40
1.000
  0
CIRCLE
  8
3
  62
     5
 10
519.781
 20
1012.754
 30
0.0
 40
12.135
  0
CIRCLE
  8
3
  62
     5
 10
519.781
 20
1012.754
 30
0.0
 40
1.000
  0
CIRCLE
  8
3
  62
     5
 10
507.281
 20
1041.147
 30
0.0
 40
8.887
  0
CIRCLE
  8
3
  62
     5
 10
507.281
 20
1041.147
 30
0.0
 40
1.000
  0
CIRCLE
  8
3
  62
     5
 10
519.781
 20
1064.217
 30
0.0
 40
7.352
  0
CIRCLE
  8
3
  62
     5
 10
519.781
 20
1064.217
 30
0.0
 40
1.000
  0
CIRCLE
  8
3
  62
     5
 10
507.281
 20
1083.589
 30
0.0
 40
5.703
  0
CIRCLE
  8
3
  62
     5
 10
507.281
 20
1083.589
 30
0.0
 40
1.000
  0
CIRCLE
  8
3
  62
     5
 10
657.588
 20
934.000
 30
0.0
 40
18.655
  0
CIRCLE
  8
3
  62
     5
 10
657.588
 20
934.000
 30
0.0
 40
1.000
  0
CIRCLE
  8
3
  62
     5
 10
651.088
 20
976.024
 30
0.0
 40
13.869
  0
CIRCLE
  8
3
  62
     5
 10
651.088
 20
976.024
 30
0.0
 40
1.000
  0
CIRCLE
  8
3
  62
     5
 10
657.588
 20
1010.385
 30
0.0
 40
11.102
  0
CIRCLE
  8
3
  62
     5
 10
657.588
 20
1010.385
 30
0.0
 40
1.000
  0
CIRCLE
  8
3
  62
     5
 10
651.088
 20
1038.954
 30
0.0
 40
8.197
  0
CIRCLE
  8
3
  62
     5
 10
651.088
 20
1038.954
 30
0.0
 40
1.000
  0
CIRCLE
  8
3
  62
     5
 10
657.588
 20
1063.130
 30
0.0
 40
6.837
  0
CIRCLE
  8
3
  62
     5
 10
657.588
 20
1063.130
 30
0.0
 40
1.000
  0
CIRCLE
  8
3
  62
     5
 10
651.088
 20
1084.320
 30
0.0
 40
5.327
  0
CIRCLE
  8
3
  62
     5
 10
651.088
 20
1084.320
 30
0.0
 40
1.000
  0
CIRCLE
  8
3
  62
     5
 10
785.553
 20
934.000
 30
0.0
 40
17.152
  0
CIRCLE
  8
3
  62
     5
 10
785.553
 20
934.000
 30
0.0
 40
1.000
  0
CIRCLE
  8
3
  62
     5
 10
785.553
 20
973.840
 30
0.0
 40
12.688
  0
CIRCLE
  8
3
  62
     5
 10
785.553
 20
973.840
 30
0.0
 40
1.000
  0
CIRCLE
  8
3
  62
     5
 10
785.553
 20
1006.684
 30
0.0
 40
10.156
  0
CIRCLE
  8
3
  62
     5
 10
785.553
 20
1006.684
 30
0.0
 40
1.000
  0
CIRCLE
  8
3
  62
     5
 10
785.553
 20
1034.463
 30
0.0
 40
7.624
  0
CIRCLE
  8
3
  62
     5
 10
785.553
 20
1034.463
 30
0.0
 40
1.000
  0
CIRCLE
  8
3
  62
     5
 10
785.553
 20
1058.446
 30
0.0
 40
6.359
  0
CIRCLE
  8
3
  62
     5
 10
785.553
 20
1058.446
 30
0.0
 40
1.000
  0
CIRCLE
  8
3
  62
     5
 10
785.553
 20
1079.803
 30
0.0
 40
4.998
  0
CIRCLE
  8
3
  62
     5
 10
785.553
 20
1079.803
 30
0.0
 40
1.000
  0
CIRCLE
  8
3
  62
     5
 10
907.888
 20
934.000
 30
0.0
 40
15.770
  0
CIRCLE
  8
3
  62
     5
 10
907.888
 20
934.000
 30
0.0
 40
1.000
  0
CIRCLE
  8
3
  62
     5
 10
907.888
 20
971.377
 30
0.0
 40
11.607
  0
CIRCLE
  8
3
  62
     5
 10
907.888
 20
971.377
 30
0.0
 40
1.000
  0
CIRCLE
  8
3
  62
     5
 10
907.888
 20
1002.276
 30
0.0
 40
9.291
  0
CIRCLE
  8
3
  62
     5
 10
907.888
 20
1002.276
 30
0.0
 40
1.000
  0
CIRCLE
  8
3
  62
     5
 10
907.888
 20
1028.657
 30
0.0
 40
7.090
  0
CIRCLE
  8
3
  62
     5
 10
907.888
 20
1028.657
 30
0.0
 40
1.000
  0
CIRCLE
  8
3
  62
     5
 10
907.888
 20
1051.661
 30
0.0
 40
5.914
  0
CIRCLE
  8
3
  62
     5
 10
907.888
 20
1051.661
 30
0.0
 40
1.000
  0
CIRCLE
  8
3
  62
     5
 10
907.888
 20
1072.264
 30
0.0
 40
4.689
  0
CIRCLE
  8
3
  62
     5
 10
907.888
 20
1072.264
 30
0.0
 40
1.000
  0
CIRCLE
  8
3
  62
     5
 10
1022.248
 20
934.000
 30
0.0
 40
17.888
  0
TEXT
  8
1
  62
     7
 10
1043.135
 20
934.000
 30
0.0
 40
5.000
  1
223
  7
STANDARD
  0
CIRCLE
  8
3
  62
     5
 10
1022.248
 20
934.000
 30
0.0
 40
1.000
  0
TEXT
  8
1
  62
     7
 10
1022.248
 20
910.112
 30
0.0
 40
5.000
  1
c0
  7
STANDARD
  0
CIRCLE
  8
3
  62
     5
 10
1015.748
 20
975.886
 30
0.0
 40
14.500
  0
TEXT
  8
1
  62
     7
 10
1043.135
 20
975.886
 30
0.0
 40
5.000
  1
2
  7
STANDARD
  0
CIRCLE
  8
3
  62
     5
 10
1015.748
 20
975.886
 30
0.0
 40
1.000
  0
CIRCLE
  8
3
  62
     5
 10
1022.248
 20
1010.398
 30
0.0
 40
10.619
  0
TEXT
  8
1
  62
     7
 10
1043.135
 20
1010.398
 30
0.0
 40
5.000
  1
113
  7
STANDARD
  0
CIRCLE
  8
3
  62
     5
 10
1022.248
 20
1010.398
 30
0.0
 40
1.000
  0
CIRCLE
  8
3
  62
     5
 10
1015.748
 20
1038.782
 30
0.0
 40
8.500
  0
TEXT
  8
1
  62
     7
 10
1043.135
 20
1038.782
 30
0.0
 40
5.000
  1
1
  7
STANDARD
  0
CIRCLE
  8
3
  62
     5
 10
1015.748
 20
1038.782
 30
0.0
 40
1.000
  0
CIRCLE
  8
3
  62
     5
 10
1022.248
 20
1063.019
 30
0.0
 40
6.594
  0
TEXT
  8
1
  62
     7
 10
1043.135
 20
1063.019
 30
0.0
 40
5.000
  1
23
  7
STANDARD
  0
CIRCLE
  8
3
  62
     5
 10
1022.248
 20
1063.019
 30
0.0
 40
1.000
  0
CIRCLE
  8
3
  62
     5
 10
1015.748
 20
1084.135
 30
0.0
 40
5.500
  0
TEXT
  8
1
  62
     7
 10
1043.135
 20
1084.135
 30
0.0
 40
5.000
  1
12
  7
STANDARD
  0
CIRCLE
  8
3
  62
     5
 10
1015.748
 20
1084.135
 30
0.0
 40
1.000
  0
CIRCLE
  8
3
  62
     5
 10
1110.778
 20
934.000
 30
0.0
 40
16.447
  0
CIRCLE
  8
3
  62
     5
 10
1110.778
 20
934.000
 30
0.0
 40
1.000
  0
CIRCLE
  8
3
  62
     5
 10
1110.778
 20
973.712
 30
0.0
 40
13.265
  0
CIRCLE
  8
3
  62
     5
 10
1110.778
 20
973.712
 30
0.0
 40
1.000
  0
CIRCLE
  8
3
  62
     5
 10
1110.778
 20
1006.691
 30
0.0
 40
9.714
  0
CIRCLE
  8
3
  62
     5
 10
1110.778
 20
1006.691
 30
0.0
 40
1.000
  0
CIRCLE
  8
3
  62
     5
 10
1110.778
 20
1034.310
 30
0.0
 40
7.905
  0
CIRCLE
  8
3
  62
     5
 10
1110.778
 20
1034.310
 30
0.0
 40
1.000
  0
CIRCLE
  8
3
  62
     5
 10
1110.778
 20
1058.348
 30
0.0
 40
6.132
  0
CIRCLE
  8
3
  62
     5
 10
1110.778
 20
1058.348
 30
0.0
 40
1.000
  0
CIRCLE
  8
3
  62
     5
 10
1110.778
 20
1079.640
 30
0.0
 40
5.160
  0
CIRCLE
  8
3
  62
     5
 10
1110.778
 20
1079.640
 30
0.0
 40
1.000
  0
CIRCLE
  8
3
  62
     5
 10
1192.139
 20
934.000
 30
0.0
 40
15.122
  0
CIRCLE
  8
3
  62
     5
 10
1192.139
 20
934.000
 30
0.0
 40
1.000
  0
CIRCLE
  8
3
  62
     5
 10
1192.139
 20
971.257
 30
0.0
 40
12.135
  0
CIRCLE
  8
3
  62
     5
 10
1192.139
 20
971.257
 30
0.0
 40
1.000
  0
CIRCLE
  8
3
  62
     5
 10
1192.139
 20
1002.279
 30
0.0
 40
8.887
  0
CIRCLE
  8
3
  62
     5
 10
1192.139
 20
1002.279
 30
0.0
 40
1.000
  0
CIRCLE
  8
3
  62
     5
 10
1192.139
 20
1028.518
 30
0.0
 40
7.352
  0
CIRCLE
  8
3
  62
     5
 10
1192.139
 20
1028.518
 30
0.0
 40
1.000
  0
CIRCLE
  8
3
  62
     5
 10
1192.139
 20
1051.573
 30
0.0
 40
5.703
  0
CIRCLE
  8
3
  62
     5
 10
1192.139
 20
1051.573
 30
0.0
 40
1.000
  0
CIRCLE
  8
3
  62
     5
 10
1192.139
 20
1072.117
 30
0.0
 40
4.841
  0
CIRCLE
  8
3
  62
     5
 10
1192.139
 20
1072.117
 30
0.0
 40
1.000
  0
CIRCLE
  8
3
  62
     5
 10
1263.734
 20
934.000
 30
0.0
 40
17.888
  0
TEXT
  8
1
  62
     7
 10
1284.622
 20
934.000
 30
0.0
 40
5.000
  1
4
  7
STANDARD
  0
CIRCLE
  8
3
  62
     5
 10
1263.734
 20
934.000
 30
0.0
 40
1.000
  0
TEXT
  8
1
  62
     7
 10
1263.734
 20
910.112
 30
0.0
 40
5.000
  1
Ab g0
  7
STANDARD
  0
CIRCLE
  8
3
  62
     5
 10
1263.734
 20
975.153
 30
0.0
 40
13.265
  0
TEXT
  8
1
  62
     7
 10
1284.622
 20
975.153
 30
0.0
 40
5.000
  1
223
  7
STANDARD
  0
CIRCLE
  8
3
  62
     5
 10
1263.734
 20
975.153
 30
0.0
 40
1.000
  0
CIRCLE
  8
3
  62
     5
 10
1263.734
 20
1009.036
 30
0.0
 40
10.619
  0
TEXT
  8
1
  62
     7
 10
1284.622
 20
1009.036
 30
0.0
 40
5.000
  1
2
  7
STANDARD
  0
CIRCLE
  8
3
  62
     5
 10
1263.734
 20
1009.036
 30
0.0
 40
1.000
  0
CIRCLE
  8
3
  62
     5
 10
1263.734
 20
1037.560
 30
0.0
 40
7.905
  0
TEXT
  8
1
  62
     7
 10
1284.622
 20
1037.560
 30
0.0
 40
5.000
  1
113
  7
STANDARD
  0
CIRCLE
  8
3
  62
     5
 10
1263.734
 20
1037.560
 30
0.0
 40
1.000
  0
CIRCLE
  8
3
  62
     5
 10
1263.734
 20
1062.059
 30
0.0
 40
6.594
  0
TEXT
  8
1
  62
     7
 10
1284.622
 20
1062.059
 30
0.0
 40
5.000
  1
1
  7
STANDARD
  0
CIRCLE
  8
3
  62
     5
 10
1263.734
 20
1062.059
 30
0.0
 40
1.000
  0
CIRCLE
  8
3
  62
     5
 10
1263.734
 20
1083.813
 30
0.0
 40
5.160
  0
TEXT
  8
1
  62
     7
 10
1284.622
 20
1083.813
 30
0.0
 40
5.000
  1
23
  7
STANDARD
  0
CIRCLE
  8
3
  62
     5
 10
1263.734
 20
1083.813
 30
0.0
 40
1.000
  0
CIRCLE
  8
3
  62
     5
 10
1326.080
 20
934.000
 30
0.0
 40
17.152
  0
CIRCLE
  8
3
  62
     5
 10
1326.080
 20
934.000
 30
0.0
 40
1.000
  0
CIRCLE
  8
3
  62
     5
 10
1326.080
 20
973.840
 30
0.0
 40
12.688
  0
CIRCLE
  8
3
  62
     5
 10
1326.080
 20
973.840
 30
0.0
 40
1.000
  0
CIRCLE
  8
3
  62
     5
 10
1326.080
 20
1006.684
 30
0.0
 40
10.156
  0
CIRCLE
  8
3
  62
     5
 10
1326.080
 20
1006.684
 30
0.0
 40
1.000
  0
CIRCLE
  8
3
  62
     5
 10
1326.080
 20
1034.463
 30
0.0
 40
7.624
  0
CIRCLE
  8
3
  62
     5
 10
1326.080
 20
1034.463
 30
0.0
 40
1.000
  0
CIRCLE
  8
3
  62
     5
 10
1326.080
 20
1058.446
 30
0.0
 40
6.359
  0
CIRCLE
  8
3
  62
     5
 10
1326.080
 20
1058.446
 30
0.0
 40
1.000
  0
CIRCLE
  8
3
  62
     5
 10
1326.080
 20
1079.803
 30
0.0
 40
4.998
  0
CIRCLE
  8
3
  62
     5
 10
1326.080
 20
1079.803
 30
0.0
 40
1.000
  0
CIRCLE
  8
3
  62
     5
 10
1379.539
 20
934.000
 30
0.0
 40
15.770
  0
CIRCLE
  8
3
  62
     5
 10
1379.539
 20
934.000
 30
0.0
 40
1.000
  0
CIRCLE
  8
3
  62
     5
 10
1379.539
 20
971.377
 30
0.0
 40
11.607
  0
CIRCLE
  8
3
  62
     5
 10
1379.539
 20
971.377
 30
0.0
 40
1.000
  0
CIRCLE
  8
3
  62
     5
 10
1379.539
 20
1002.276
 30
0.0
 40
9.291
  0
CIRCLE
  8
3
  62
     5
 10
1379.539
 20
1002.276
 30
0.0
 40
1.000
  0
CIRCLE
  8
3
  62
     5
 10
1379.539
 20
1028.657
 30
0.0
 40
7.090
  0
CIRCLE
  8
3
  62
     5
 10
1379.539
 20
1028.657
 30
0.0
 40
1.000
  0
CIRCLE
  8
3
  62
     5
 10
1379.539
 20
1051.661
 30
0.0
 40
5.914
  0
CIRCLE
  8
3
  62
     5
 10
1379.539
 20
1051.661
 30
0.0
 40
1.000
  0
CIRCLE
  8
3
  62
     5
 10
1379.539
 20
1072.264
 30
0.0
 40
4.689
  0
CIRCLE
  8
3
  62
     5
 10
1379.539
 20
1072.264
 30
0.0
 40
1.000
  0
CIRCLE
  8
3
  62
     5
 10
1424.280
 20
934.000
 30
0.0
 40
14.500
  0
CIRCLE
  8
3
  62
     5
 10
1424.280
 20
934.000
 30
0.0
 40
1.000
  0
CIRCLE
  8
3
  62
     5
 10
1424.280
 20
969.119
 30
0.0
 40
10.619
  0
CIRCLE
  8
3
  62
     5
 10
1424.280
 20
969.119
 30
0.0
 40
1.000
  0
CIRCLE
  8
3
  62
     5
 10
1424.280
 20
998.237
 30
0.0
 40
8.500
  0
CIRCLE
  8
3
  62
     5
 10
1424.280
 20
998.237
 30
0.0
 40
1.000
  0
CIRCLE
  8
3
  62
     5
 10
1424.280
 20
1023.331
 30
0.0
 40
6.594
  0
CIRCLE
  8
3
  62
     5
 10
1424.280
 20
1023.331
 30
0.0
 40
1.000
  0
CIRCLE
  8
3
  62
     5
 10
1424.280
 20
1045.425
 30
0.0
 40
5.500
  0
CIRCLE
  8
3
  62
     5
 10
1424.280
 20
1045.425
 30
0.0
 40
1.000
  0
CIRCLE
  8
3
  62
     5
 10
1424.280
 20
1065.323
 30
0.0
 40
4.399
  0
CIRCLE
  8
3
  62
     5
 10
1424.280
 20
1065.323
 30
0.0
 40
1.000
  0
CIRCLE
  8
3
  62
     5
 10
1464.280
 20
934.000
 30
0.0
 40
13.265
  0
CIRCLE
  8
3
  62
     5
 10
1464.280
 20
934.000
 30
0.0
 40
1.000
  0
CIRCLE
  8
3
  62
     5
 10
1464.280
 20
966.979
 30
0.0
 40
9.714
  0
CIRCLE
  8
3
  62
     5
 10
1464.280
 20
966.979
 30
0.0
 40
1.000
  0
CIRCLE
  8
3
  62
     5
 10
1464.280
 20
994.599
 30
0.0
 40
7.905
  0
CIRCLE
  8
3
  62
     5
 10
1464.280
 20
994.599
 30
0.0
 40
1.000
  0
CIRCLE
  8
3
  62
     5
 10
1464.280
 20
1018.636
 30
0.0
 40
6.132
  0
CIRCLE
  8
3
  62
     5
 10
1464.280
 20
1018.636
 30
0.0
 40
1.000
  0
CIRCLE
  8
3
  62
     5
 10
1464.280
 20
1039.928
 30
0.0
 40
5.160
  0
CIRCLE
  8
3
  62
     5
 10
1464.280
 20
1039.928
 30
0.0
 40
1.000
  0
CIRCLE
  8
3
  62
     5
 10
1464.280
 20
1059.215
 30
0.0
 40
4.127
  0
CIRCLE
  8
3
  62
     5
 10
1464.280
 20
1059.215
 30
0.0
 40
1.000
  0
CIRCLE
  8
3
  62
     5
 10
1504.280
 20
934.000
 30
0.0
 40
12.135
  0
CIRCLE
  8
3
  62
     5
 10
1504.280
 20
934.000
 30
0.0
 40
1.000
  0
CIRCLE
  8
3
  62
     5
 10
1504.280
 20
965.022
 30
0.0
 40
8.887
  0
CIRCLE
  8
3
  62
     5
 10
1504.280
 20
965.022
 30
0.0
 40
1.000
  0
CIRCLE
  8
3
  62
     5
 10
1504.280
 20
991.261
 30
0.0
 40
7.352
  0
CIRCLE
  8
3
  62
     5
 10
1504.280
 20
991.261
 30
0.0
 40
1.000
  0
CIRCLE
  8
3
  62
     5
 10
1504.280
 20
1014.316
 30
0.0
 40
5.703
  0
CIRCLE
  8
3
  62
     5
 10
1504.280
 20
1014.316
 30
0.0
 40
1.000
  0
CIRCLE
  8
3
  62
     5
 10
1504.280
 20
1034.860
 30
0.0
 40
4.841
  0
CIRCLE
  8
3
  62
     5
 10
1504.280
 20
1034.860
 30
0.0
 40
1.000
  0
CIRCLE
  8
3
  62
     5
 10
1504.280
 20
1053.572
 30
0.0
 40
3.872
  0
CIRCLE
  8
3
  62
     5
 10
1504.280
 20
1053.572
 30
0.0
 40
1.000
  0
CIRCLE
  8
3
  62
     5
 10
1548.280
 20
934.000
 30
0.0
 40
17.888
  0
TEXT
  8
1
  62
     7
 10
1569.167
 20
934.000
 30
0.0
 40
5.000
  1
8
  7
STANDARD
  0
CIRCLE
  8
3
  62
     5
 10
1548.280
 20
934.000
 30
0.0
 40
1.000
  0
TEXT
  8
1
  62
     7
 10
1548.280
 20
910.112
 30
0.0
 40
5.000
  1
Ab g1
  7
STANDARD
  0
CIRCLE
  8
3
  62
     5
 10
1540.280
 20
971.666
 30
0.0
 40
10.619
  0
TEXT
  8
1
  62
     7
 10
1569.167
 20
971.666
 30
0.0
 40
5.000
  1
4
  7
STANDARD
  0
CIRCLE
  8
3
  62
     5
 10
1540.280
 20
971.666
 30
0.0
 40
1.000
  0
CIRCLE
  8
3
  62
     5
 10
1548.280
 20
999.045
 30
0.0
 40
7.905
  0
TEXT
  8
1
  62
     7
 10
1569.167
 20
999.045
 30
0.0
 40
5.000
  1
223
  7
STANDARD
  0
CIRCLE
  8
3
  62
     5
 10
1548.280
 20
999.045
 30
0.0
 40
1.000
  0
CIRCLE
  8
3
  62
     5
 10
1540.280
 20
1023.584
 30
0.0
 40
7.905
  0
TEXT
  8
1
  62
     7
 10
1569.167
 20
1023.584
 30
0.0
 40
5.000
  1
223
  7
STANDARD
  0
CIRCLE
  8
3
  62
     5
 10
1540.280
 20
1023.584
 30
0.0
 40
1.000
  0
CIRCLE
  8
3
  62
     5
 10
1548.280
 20
1046.740
 30
0.0
 40
6.594
  0
TEXT
  8
1
  62
     7
 10
1569.167
 20
1046.740
 30
0.0
 40
5.000
  1
2
  7
STANDARD
  0
CIRCLE
  8
3
  62
     5
 10
1548.280
 20
1046.740
 30
0.0
 40
1.000
  0
CIRCLE
  8
3
  62
     5
 10
1540.280
 20
1066.969
 30
0.0
 40
5.160
  0
TEXT
  8
1
  62
     7
 10
1569.167
 20
1066.969
 30
0.0
 40
5.000
  1
113
  7
STANDARD
  0
CIRCLE
  8
3
  62
     5
 10
1540.280
 20
1066.969
 30
0.0
 40
1.000
  0
TEXT
  8
1
  62
     7
 10
1569.167
 20
1084.817
 30
0.0
 40
5.000
  1
1
  7
STANDARD
  0
CIRCLE
  8
3
  62
     5
 10
1548.280
 20
1084.817
 30
0.0
 40
1.000
  0
CIRCLE
  8
3
  62
     5
 10
1586.030
 20
934.000
 30
0.0
 40
17.152
  0
CIRCLE
  8
3
  62
     5
 10
1586.030
 20
934.000
 30
0.0
 40
1.000
  0
CIRCLE
  8
3
  62
     5
 10
1582.530
 20
971.144
 30
0.0
 40
10.156
  0
CIRCLE
  8
3
  62
     5
 10
1582.530
 20
971.144
 30
0.0
 40
1.000
  0
CIRCLE
  8
3
  62
     5
 10
1586.030
 20
998.702
 30
0.0
 40
7.624
  0
CIRCLE
  8
3
  62
     5
 10
1586.030
 20
998.702
 30
0.0
 40
1.000
  0
CIRCLE
  8
3
  62
     5
 10
1582.530
 20
1023.705
 30
0.0
 40
7.624
  0
CIRCLE
  8
3
  62
     5
 10
1582.530
 20
1023.705
 30
0.0
 40
1.000
  0
CIRCLE
  8
3
  62
     5
 10
1586.030
 20
1047.431
 30
0.0
 40
6.359
  0
CIRCLE
  8
3
  62
     5
 10
1586.030
 20
1047.431
 30
0.0
 40
1.000
  0
CIRCLE
  8
3
  62
     5
 10
1582.530
 20
1068.499
 30
0.0
 40
4.998
  0
CIRCLE
  8
3
  62
     5
 10
1582.530
 20
1068.499
 30
0.0
 40
1.000
  0
CIRCLE
  8
3
  62
     5
 10
1586.030
 20
1085.399
 30
0.0
 40
4.261
  0
CIRCLE
  8
3
  62
     5
 10
1586.030
 20
1085.399
 30
0.0
 40
1.000
  0
CIRCLE
  8
3
  62
     5
 10
1624.280
 20
934.000
 30
0.0
 40
15.770
  0
CIRCLE
  8
3
  62
     5
 10
1624.280
 20
934.000
 30
0.0
 40
1.000
  0
CIRCLE
  8
3
  62
     5
 10
1624.280
 20
969.062
 30
0.0
 40
9.291
  0
CIRCLE
  8
3
  62
     5
 10
1624.280
 20
969.062
 30
0.0
 40
1.000
  0
CIRCLE
  8
3
  62
     5
 10
1624.280
 20
995.443
 30
0.0
 40
7.090
  0
CIRCLE
  8
3
  62
     5
 10
1624.280
 20
995.443
 30
0.0
 40
1.000
  0
CIRCLE
  8
3
  62
     5
 10
1624.280
 20
1019.623
 30
0.0
 40
7.090
  0
CIRCLE
  8
3
  62
     5
 10
1624.280
 20
1019.623
 30
0.0
 40
1.000
  0
CIRCLE
  8
3
  62
     5
 10
1624.280
 20
1042.627
 30
0.0
 40
5.914
  0
CIRCLE
  8
3
  62
     5
 10
1624.280
 20
1042.627
 30
0.0
 40
1.000
  0
CIRCLE
  8
3
  62
     5
 10
1624.280
 20
1063.229
 30
0.0
 40
4.689
  0
CIRCLE
  8
3
  62
     5
 10
1624.280
 20
1063.229
 30
0.0
 40
1.000
  0
CIRCLE
  8
3
  62
     5
 10
1624.280
 20
1081.915
 30
0.0
 40
3.997
  0
CIRCLE
  8
3
  62
     5
 10
1624.280
 20
1081.915
 30
0.0
 40
1.000
  0
CIRCLE
  8
3
  62
     5
 10
1669.280
 20
934.000
 30
0.0
 40
14.500
  0
TEXT
  8
1
  62
     7
 10
1686.780
 20
934.000
 30
0.0
 40
5.000
  1
8
  7
STANDARD
  0
CIRCLE
  8
3
  62
     5
 10
1669.280
 20
934.000
 30
0.0
 40
1.000
  0
TEXT
  8
1
  62
     7
 10
1669.280
 20
913.500
 30
0.0
 40
5.000
  1
c2
  7
STANDARD
  0
CIRCLE
  8
3
  62
     5
 10
1659.280
 20
965.448
 30
0.0
 40
8.500
  0
TEXT
  8
1
  62
     7
 10
1686.780
 20
965.448
 30
0.0
 40
5.000
  1
4
  7
STANDARD
  0
CIRCLE
  8
3
  62
     5
 10
1659.280
 20
965.448
 30
0.0
 40
1.000
  0
CIRCLE
  8
3
  62
     5
 10
1669.280
 20
990.528
 30
0.0
 40
8.500
  0
TEXT
  8
1
  62
     7
 10
1686.780
 20
990.528
 30
0.0
 40
5.000
  1
4
  7
STANDARD
  0
CIRCLE
  8
3
  62
     5
 10
1669.280
 20
990.528
 30
0.0
 40
1.000
  0
CIRCLE
  8
3
  62
     5
 10
1659.280
 20
1013.543
 30
0.0
 40
6.594
  0
TEXT
  8
1
  62
     7
 10
1686.780
 20
1013.543
 30
0.0
 40
5.000
  1
223
  7
STANDARD
  0
CIRCLE
  8
3
  62
     5
 10
1659.280
 20
1013.543
 30
0.0
 40
1.000
  0
CIRCLE
  8
3
  62
     5
 10
1669.280
 20
1034.464
 30
0.0
 40
6.594
  0
TEXT
  8
1
  62
     7
 10
1686.780
 20
1034.464
 30
0.0
 40
5.000
  1
223
  7
STANDARD
  0
CIRCLE
  8
3
  62
     5
 10
1669.280
 20
1034.464
 30
0.0
 40
1.000
  0
CIRCLE
  8
3
  62
     5
 10
1659.280
 20
1054.165
 30
0.0
 40
5.500
  0
TEXT
  8
1
  62
     7
 10
1686.780
 20
1054.165
 30
0.0
 40
5.000
  1
2
  7
STANDARD
  0
CIRCLE
  8
3
  62
     5
 10
1659.280
 20
1054.165
 30
0.0
 40
1.000
  0
CIRCLE
  8
3
  62
     5
 10
1669.280
 20
1071.369
 30
0.0
 40
4.399
  0
TEXT
  8
1
  62
     7
 10
1686.780
 20
1071.369
 30
0.0
 40
5.000
  1
113
  7
STANDARD
  0
CIRCLE
  8
3
  62
     5
 10
1669.280
 20
1071.369
 30
0.0
 40
1.000
  0
CIRCLE
  8
3
  62
     5
 10
1659.280
 20
1084.865
 30
0.0
 40
4.399
  0
TEXT
  8
1
  62
     7
 10
1686.780
 20
1084.865
 30
0.0
 40
5.000
  1
113
  7
STANDARD
  0
CIRCLE
  8
3
  62
     5
 10
1659.280
 20
1084.865
 30
0.0
 40
1.000
  0
CIRCLE
  8
3
  62
     5
 10
1708.030
 20
934.000
 30
0.0
 40
13.265
  0
CIRCLE
  8
3
  62
     5
 10
1708.030
 20
934.000
 30
0.0
 40
1.000
  0
CIRCLE
  8
3
  62
     5
 10
1700.530
 20
964.254
 30
0.0
 40
7.905
  0
CIRCLE
  8
3
  62
     5
 10
1700.530
 20
964.254
 30
0.0
 40
1.000
  0
CIRCLE
  8
3
  62
     5
 10
1708.030
 20
988.951
 30
0.0
 40
7.905
  0
CIRCLE
  8
3
  62
     5
 10
1708.030
 20
988.951
 30
0.0
 40
1.000
  0
CIRCLE
  8
3
  62
     5
 10
1700.530
 20
1011.789
 30
0.0
 40
6.132
  0
CIRCLE
  8
3
  62
     5
 10
1700.530
 20
1011.789
 30
0.0
 40
1.000
  0
CIRCLE
  8
3
  62
     5
 10
1708.030
 20
1032.752
 30
0.0
 40
6.132
  0
CIRCLE
  8
3
  62
     5
 10
1708.030
 20
1032.752
 30
0.0
 40
1.000
  0
CIRCLE
  8
3
  62
     5
 10
1700.530
 20
1052.680
 30
0.0
 40
5.160
  0
CIRCLE
  8
3
  62
     5
 10
1700.530
 20
1052.680
 30
0.0
 40
1.000
  0
CIRCLE
  8
3
  62
     5
 10
1708.030
 20
1070.448
 30
0.0
 40
4.127
  0
CIRCLE
  8
3
  62
     5
 10
1708.030
 20
1070.448
 30
0.0
 40
1.000
  0
CIRCLE
  8
3
  62
     5
 10
1700.530
 20
1084.868
 30
0.0
 40
4.127
  0
CIRCLE
  8
3
  62
     5
 10
1700.530
 20
1084.868
 30
0.0
 40
1.000
  0
CIRCLE
  8
3
  62
     5
 10
1744.280
 20
934.000
 30
0.0
 40
12.135
  0
CIRCLE
  8
3
  62
     5
 10
1744.280
 20
934.000
 30
0.0
 40
1.000
  0
CIRCLE
  8
3
  62
     5
 10
1744.280
 20
963.487
 30
0.0
 40
7.352
  0
CIRCLE
  8
3
  62
     5
 10
1744.280
 20
963.487
 30
0.0
 40
1.000
  0
CIRCLE
  8
3
  62
     5
 10
1744.280
 20
988.191
 30
0.0
 40
7.352
  0
CIRCLE
  8
3
  62
     5
 10
1744.280
 20
988.191
 30
0.0
 40
1.000
  0
CIRCLE
  8
3
  62
     5
 10
1744.280
 20
1011.246
 30
0.0
 40
5.703
  0
CIRCLE
  8
3
  62
     5
 10
1744.280
 20
1011.246
 30
0.0
 40
1.000
  0
CIRCLE
  8
3
  62
     5
 10
1744.280
 20
1032.653
 30
0.0
 40
5.703
  0
CIRCLE
  8
3
  62
     5
 10
1744.280
 20
1032.653
 30
0.0
 40
1.000
  0
CIRCLE
  8
3
  62
     5
 10
1744.280
 20
1053.197
 30
0.0
 40
4.841
  0
CIRCLE
  8
3
  62
     5
 10
1744.280
 20
1053.197
 30
0.0
 40
1.000
  0
CIRCLE
  8
3
  62
     5
 10
1744.280
 20
1071.909
 30
0.0
 40
3.872
  0
CIRCLE
  8
3
  62
     5
 10
1744.280
 20
1071.909
 30
0.0
 40
1.000
  0
CIRCLE
  8
3
  62
     5
 10
1744.280
 20
1089.652
 30
0.0
 40
3.872
  0
CIRCLE
  8
3
  62
     5
 10
1744.280
 20
1089.652
 30
0.0
 40
1.000
  0
CIRCLE
  8
3
  62
     5
 10
1786.530
 20
934.000
 30
0.0
 40
10.619
  0
TEXT
  8
1
  62
     7
 10
1800.148
 20
934.000
 30
0.0
 40
5.000
  1
8
  7
STANDARD
  0
CIRCLE
  8
3
  62
     5
 10
1786.530
 20
934.000
 30
0.0
 40
1.000
  0
TEXT
  8
1
  62
     7
 10
1786.530
 20
917.381
 30
0.0
 40
5.000
  1
Ab g2
  7
STANDARD
  0
CIRCLE
  8
3
  62
     5
 10
1782.030
 20
962.166
 30
0.0
 40
7.905
  0
TEXT
  8
1
  62
     7
 10
1800.148
 20
962.166
 30
0.0
 40
5.000
  1
513
  7
STANDARD
  0
CIRCLE
  8
3
  62
     5
 10
1782.030
 20
962.166
 30
0.0
 40
1.000
  0
CIRCLE
  8
3
  62
     5
 10
1786.530
 20
986.249
 30
0.0
 40
6.594
  0
TEXT
  8
1
  62
     7
 10
1800.148
 20
986.249
 30
0.0
 40
5.000
  1
4
  7
STANDARD
  0
CIRCLE
  8
3
  62
     5
 10
1786.530
 20
986.249
 30
0.0
 40
1.000
  0
CIRCLE
  8
3
  62
     5
 10
1782.030
 20
1008.995
 30
0.0
 40
6.594
  0
TEXT
  8
1
  62
     7
 10
1800.148
 20
1008.995
 30
0.0
 40
5.000
  1
4
  7
STANDARD
  0
CIRCLE
  8
3
  62
     5
 10
1782.030
 20
1008.995
 30
0.0
 40
1.000
  0
CIRCLE
  8
3
  62
     5
 10
1786.530
 20
1030.279
 30
0.0
 40
5.160
  0
TEXT
  8
1
  62
     7
 10
1800.148
 20
1030.279
 30
0.0
 40
5.000
  1
223
  7
STANDARD
  0
CIRCLE
  8
3
  62
     5
 10
1786.530
 20
1030.279
 30
0.0
 40
1.000
  0
CIRCLE
  8
3
  62
     5
 10
1782.030
 20
1050.094
 30
0.0
 40
5.160
  0
TEXT
  8
1
  62
     7
 10
1800.148
 20
1050.094
 30
0.0
 40
5.000
  1
223
  7
STANDARD
  0
CIRCLE
  8
3
  62
     5
 10
1782.030
 20
1050.094
 30
0.0
 40
1.000
  0
CIRCLE
  8
3
  62
     5
 10
1786.530
 20
1069.128
 30
0.0
 40
4.399
  0
TEXT
  8
1
  62
     7
 10
1800.148
 20
1069.128
 30
0.0
 40
5.000
  1
2
  7
STANDARD
  0
CIRCLE
  8
3
  62
     5
 10
1786.530
 20
1069.128
 30
0.0
 40
1.000
  0
CIRCLE
  8
3
  62
     5
 10
1782.030
 20
1085.311
 30
0.0
 40
4.399
  0
TEXT
  8
1
  62
     7
 10
1800.148
 20
1085.311
 30
0.0
 40
5.000
  1
2
  7
STANDARD
  0
CIRCLE
  8
3
  62
     5
 10
1782.030
 20
1085.311
 30
0.0
 40
1.000
  0
CIRCLE
  8
3
  62
     5
 10
1824.280
 20
934.000
 30
0.0
 40
10.156
  0
CIRCLE
  8
3
  62
     5
 10
1824.280
 20
934.000
 30
0.0
 40
1.000
  0
CIRCLE
  8
3
  62
     5
 10
1824.280
 20
961.780
 30
0.0
 40
7.624
  0
CIRCLE
  8
3
  62
     5
 10
1824.280
 20
961.780
 30
0.0
 40
1.000
  0
CIRCLE
  8
3
  62
     5
 10
1824.280
 20
985.762
 30
0.0
 40
6.359
  0
CIRCLE
  8
3
  62
     5
 10
1824.280
 20
985.762
 30
0.0
 40
1.000
  0
CIRCLE
  8
3
  62
     5
 10
1824.280
 20
1008.480
 30
0.0
 40
6.359
  0
CIRCLE
  8
3
  62
     5
 10
1824.280
 20
1008.480
 30
0.0
 40
1.000
  0
CIRCLE
  8
3
  62
     5
 10
1824.280
 20
1029.837
 30
0.0
 40
4.998
  0
CIRCLE
  8
3
  62
     5
 10
1824.280
 20
1029.837
 30
0.0
 40
1.000
  0
CIRCLE
  8
3
  62
     5
 10
1824.280
 20
1049.832
 30
0.0
 40
4.998
  0
CIRCLE
  8
3
  62
     5
 10
1824.280
 20
1049.832
 30
0.0
 40
1.000
  0
CIRCLE
  8
3
  62
     5
 10
1824.280
 20
1069.091
 30
0.0
 40
4.261
  0
CIRCLE
  8
3
  62
     5
 10
1824.280
 20
1069.091
 30
0.0
 40
1.000
  0
CIRCLE
  8
3
  62
     5
 10
1824.280
 20
1087.612
 30
0.0
 40
4.261
  0
CIRCLE
  8
3
  62
     5
 10
1824.280
 20
1087.612
 30
0.0
 40
1.000
  0
CIRCLE
  8
3
  62
     5
 10
1864.280
 20
934.000
 30
0.0
 40
9.291
  0
CIRCLE
  8
3
  62
     5
 10
1864.280
 20
934.000
 30
0.0
 40
1.000
  0
CIRCLE
  8
3
  62
     5
 10
1864.280
 20
960.381
 30
0.0
 40
7.090
  0
CIRCLE
  8
3
  62
     5
 10
1864.280
 20
960.381
 30
0.0
 40
1.000
  0
CIRCLE
  8
3
  62
     5
 10
1864.280
 20
983.385
 30
0.0
 40
5.914
  0
CIRCLE
  8
3
  62
     5
 10
1864.280
 20
983.385
 30
0.0
 40
1.000
  0
CIRCLE
  8
3
  62
     5
 10
1864.280
 20
1005.213
 30
0.0
 40
5.914
  0
CIRCLE
  8
3
  62
     5
 10
1864.280
 20
1005.213
 30
0.0
 40
1.000
  0
CIRCLE
  8
3
  62
     5
 10
1864.280
 20
1025.816
 30
0.0
 40
4.689
  0
CIRCLE
  8
3
  62
     5
 10
1864.280
 20
1025.816
 30
0.0
 40
1.000
  0
CIRCLE
  8
3
  62
     5
 10
1864.280
 20
1045.193
 30
0.0
 40
4.689
  0
CIRCLE
  8
3
  62
     5
 10
1864.280
 20
1045.193
 30
0.0
 40
1.000
  0
CIRCLE
  8
3
  62
     5
 10
1864.280
 20
1063.879
 30
0.0
 40
3.997
  0
CIRCLE
  8
3
  62
     5
 10
1864.280
 20
1063.879
 30
0.0
 40
1.000
  0
CIRCLE
  8
3
  62
     5
 10
1864.280
 20
1081.873
 30
0.0
 40
3.997
  0
CIRCLE
  8
3
  62
     5
 10
1864.280
 20
1081.873
 30
0.0
 40
1.000
  0
CIRCLE
  8
3
  62
     5
 10
1904.280
 20
934.000
 30
0.0
 40
8.500
  0
CIRCLE
  8
3
  62
     5
 10
1904.280
 20
934.000
 30
0.0
 40
1.000
  0
CIRCLE
  8
3
  62
     5
 10
1904.280
 20
959.094
 30
0.0
 40
6.594
  0
CIRCLE
  8
3
  62
     5
 10
1904.280
 20
959.094
 30
0.0
 40
1.000
  0
CIRCLE
  8
3
  62
     5
 10
1904.280
 20
981.188
 30
0.0
 40
5.500
  0
CIRCLE
  8
3
  62
     5
 10
1904.280
 20
981.188
 30
0.0
 40
1.000
  0
CIRCLE
  8
3
  62
     5
 10
1904.280
 20
1002.188
 30
0.0
 40
5.500
  0
CIRCLE
  8
3
  62
     5
 10
1904.280
 20
1002.188
 30
0.0
 40
1.000
  0
CIRCLE
  8
3
  62
     5
 10
1904.280
 20
1022.086
 30
0.0
 40
4.399
  0
CIRCLE
  8
3
  62
     5
 10
1904.280
 20
1022.086
 30
0.0
 40
1.000
  0
CIRCLE
  8
3
  62
     5
 10
1904.280
 20
1040.884
 30
0.0
 40
4.399
  0
CIRCLE
  8
3
  62
     5
 10
1904.280
 20
1040.884
 30
0.0
 40
1.000
  0
CIRCLE
  8
3
  62
     5
 10
1904.280
 20
1059.033
 30
0.0
 40
3.750
  0
CIRCLE
  8
3
  62
     5
 10
1904.280
 20
1059.033
 30
0.0
 40
1.000
  0
CIRCLE
  8
3
  62
     5
 10
1904.280
 20
1076.533
 30
0.0
 40
3.750
  0
CIRCLE
  8
3
  62
     5
 10
1904.280
 20
1076.533
 30
0.0
 40
1.000
  0
CIRCLE
  8
3
  62
     5
 10
1944.280
 20
934.000
 30
0.0
 40
7.905
  0
CIRCLE
  8
3
  62
     5
 10
1944.280
 20
934.000
 30
0.0
 40
1.000
  0
CIRCLE
  8
3
  62
     5
 10
1944.280
 20
958.037
 30
0.0
 40
6.132
  0
CIRCLE
  8
3
  62
     5
 10
1944.280
 20
958.037
 30
0.0
 40
1.000
  0
CIRCLE
  8
3
  62
     5
 10
1944.280
 20
979.330
 30
0.0
 40
5.160
  0
CIRCLE
  8
3
  62
     5
 10
1944.280
 20
979.330
 30
0.0
 40
1.000
  0
CIRCLE
  8
3
  62
     5
 10
1944.280
 20
999.650
 30
0.0
 40
5.160
  0
CIRCLE
  8
3
  62
     5
 10
1944.280
 20
999.650
 30
0.0
 40
1.000
  0
CIRCLE
  8
3
  62
     5
 10
1944.280
 20
1018.936
 30
0.0
 40
4.127
  0
CIRCLE
  8
3
  62
     5
 10
1944.280
 20
1018.936
 30
0.0
 40
1.000
  0
CIRCLE
  8
3
  62
     5
 10
1944.280
 20
1037.190
 30
0.0
 40
4.127
  0
CIRCLE
  8
3
  62
     5
 10
1944.280
 20
1037.190
 30
0.0
 40
1.000
  0
CIRCLE
  8
3
  62
     5
 10
1944.280
 20
1054.822
 30
0.0
 40
3.505
  0
CIRCLE
  8
3
  62
     5
 10
1944.280
 20
1054.822
 30
0.0
 40
1.000
  0
CIRCLE
  8
3
  62
     5
 10
1944.280
 20
1071.832
 30
0.0
 40
3.505
  0
CIRCLE
  8
3
  62
     5
 10
1944.280
 20
1071.832
 30
0.0
 40
1.000
  0
CIRCLE
  8
3
  62
     5
 10
1984.280
 20
934.000
 30
0.0
 40
7.352
  0
CIRCLE
  8
3
  62
     5
 10
1984.280
 20
934.000
 30
0.0
 40
1.000
  0
CIRCLE
  8
3
  62
     5
 10
1984.280
 20
957.055
 30
0.0
 40
5.703
  0
CIRCLE
  8
3
  62
     5
 10
1984.280
 20
957.055
 30
0.0
 40
1.000
  0
CIRCLE
  8
3
  62
     5
 10
1984.280
 20
977.599
 30
0.0
 40
4.841
  0
CIRCLE
  8
3
  62
     5
 10
1984.280
 20
977.599
 30
0.0
 40
1.000
  0
CIRCLE
  8
3
  62
     5
 10
1984.280
 20
997.281
 30
0.0
 40
4.841
  0
CIRCLE
  8
3
  62
     5
 10
1984.280
 20
997.281
 30
0.0
 40
1.000
  0
CIRCLE
  8
3
  62
     5
 10
1984.280
 20
1015.993
 30
0.0
 40
3.872
  0
CIRCLE
  8
3
  62
     5
 10
1984.280
 20
1015.993
 30
0.0
 40
1.000
  0
CIRCLE
  8
3
  62
     5
 10
1984.280
 20
1033.736
 30
0.0
 40
3.872
  0
CIRCLE
  8
3
  62
     5
 10
1984.280
 20
1033.736
 30
0.0
 40
1.000
  0
CIRCLE
  8
3
  62
     5
 10
1984.280
 20
1050.884
 30
0.0
 40
3.276
  0
CIRCLE
  8
3
  62
     5
 10
1984.280
 20
1050.884
 30
0.0
 40
1.000
  0
CIRCLE
  8
3
  62
     5
 10
1984.280
 20
1067.436
 30
0.0
 40
3.276
  0
CIRCLE
  8
3
  62
     5
 10
1984.280
 20
1067.436
 30
0.0
 40
1.000
  0
CIRCLE
  8
3
  62
     5
 10
2025.780
 20
934.000
 30
0.0
 40
10.619
  0
TEXT
  8
1
  62
     7
 10
2039.398
 20
934.000
 30
0.0
 40
5.000
  1
16
  7
STANDARD
  0
CIRCLE
  8
3
  62
     5
 10
2025.780
 20
934.000
 30
0.0
 40
1.000
  0
TEXT
  8
1
  62
     7
 10
2025.780
 20
917.381
 30
0.0
 40
5.000
  1
Ab g3
  7
STANDARD
  0
CIRCLE
  8
3
  62
     5
 10
2022.780
 20
962.365
 30
0.0
 40
7.905
  0
TEXT
  8
1
  62
     7
 10
2039.398
 20
962.365
 30
0.0
 40
5.000
  1
1023
  7
STANDARD
  0
CIRCLE
  8
3
  62
     5
 10
2022.780
 20
962.365
 30
0.0
 40
1.000
  0
CIRCLE
  8
3
  62
     5
 10
2025.780
 20
986.680
 30
0.0
 40
6.594
  0
TEXT
  8
1
  62
     7
 10
2039.398
 20
986.680
 30
0.0
 40
5.000
  1
8
  7
STANDARD
  0
CIRCLE
  8
3
  62
     5
 10
2025.780
 20
986.680
 30
0.0
 40
1.000
  0
CIRCLE
  8
3
  62
     5
 10
2022.780
 20
1009.673
 30
0.0
 40
6.594
  0
TEXT
  8
1
  62
     7
 10
2039.398
 20
1009.673
 30
0.0
 40
5.000
  1
8
  7
STANDARD
  0
CIRCLE
  8
3
  62
     5
 10
2022.780
 20
1009.673
 30
0.0
 40
1.000
  0
CIRCLE
  8
3
  62
     5
 10
2025.780
 20
1031.219
 30
0.0
 40
5.160
  0
TEXT
  8
1
  62
     7
 10
2039.398
 20
1031.219
 30
0.0
 40
5.000
  1
513
  7
STANDARD
  0
CIRCLE
  8
3
  62
     5
 10
2025.780
 20
1031.219
 30
0.0
 40
1.000
  0
CIRCLE
  8
3
  62
     5
 10
2022.780
 20
1051.316
 30
0.0
 40
5.160
  0
TEXT
  8
1
  62
     7
 10
2039.398
 20
1051.316
 30
0.0
 40
5.000
  1
513
  7
STANDARD
  0
CIRCLE
  8
3
  62
     5
 10
2022.780
 20
1051.316
 30
0.0
 40
1.000
  0
CIRCLE
  8
3
  62
     5
 10
2025.780
 20
1070.643
 30
0.0
 40
4.399
  0
TEXT
  8
1
  62
     7
 10
2039.398
 20
1070.643
 30
0.0
 40
5.000
  1
4
  7
STANDARD
  0
CIRCLE
  8
3
  62
     5
 10
2025.780
 20
1070.643
 30
0.0
 40
1.000
  0
CIRCLE
  8
3
  62
     5
 10
2022.780
 20
1086.261
 30
0.0
 40
3.505
  0
TEXT
  8
1
  62
     7
 10
2039.398
 20
1086.261
 30
0.0
 40
5.000
  1
223
  7
STANDARD
  0
CIRCLE
  8
3
  62
     5
 10
2022.780
 20
1086.261
 30
0.0
 40
1.000
  0
LINE
  8
3
  62
     5
 10
198.939
 20
1001.061
 30
0.0
 11
201.061
 21
998.939
 31
0.0
  0
LINE
  8
3
  62
     5
 10
198.939
 20
998.939
 30
0.0
 11
201.061
 21
1001.061
 31
0.0
  0
LINE
  8
3
  62
     5
 10
361.302
 20
1001.061
 30
0.0
 11
363.423
 21
998.939
 31
0.0
  0
LINE
  8
3
  62
     5
 10
361.302
 20
998.939
 30
0.0
 11
363.423
 21
1001.061
 31
0.0
  0
LINE
  8
3
  62
     5
 10
512.470
 20
1001.061
 30
0.0
 11
514.591
 21
998.939
 31
0.0
  0
LINE
  8
3
  62
     5
 10
512.470
 20
998.939
 30
0.0
 11
514.591
 21
1001.061
 31
0.0
  0
LINE
  8
3
  62
     5
 10
653.277
 20
1001.061
 30
0.0
 11
655.398
 21
998.939
 31
0.0
  0
LINE
  8
3
  62
     5
 10
653.277
 20
998.939
 30
0.0
 11
655.398
 21
1001.061
 31
0.0
  0
LINE
  8
3
  62
     5
 10
784.492
 20
1001.061
 30
0.0
 11
786.613
 21
998.939
 31
0.0
  0
LINE
  8
3
  62
     5
 10
784.492
 20
998.939
 30
0.0
 11
786.613
 21
1001.061
 31
0.0
  0
LINE
  8
3
  62
     5
 10
906.827
 20
1001.061
 30
0.0
 11
908.948
 21
998.939
 31
0.0
  0
LINE
  8
3
  62
     5
 10
906.827
 20
998.939
 30
0.0
 11
908.948
 21
1001.061
 31
0.0
  0
LINE
  8
3
  62
     5
 10
1017.937
 20
1001.061
 30
0.0
 11
1020.059
 21
998.939
 31
0.0
  0
LINE
  8
3
  62
     5
 10
1017.937
 20
998.939
 30
0.0
 11
1020.059
 21
1001.061
 31
0.0
  0
LINE
  8
3
  62
     5
 10
1109.717
 20
1001.061
 30
0.0
 11
1111.839
 21
998.939
 31
0.0
  0
LINE
  8
3
  62
     5
 10
1109.717
 20
998.939
 30
0.0
 11
1111.839
 21
1001.061
 31
0.0
  0
LINE
  8
3
  62
     5
 10
1191.079
 20
1001.061
 30
0.0
 11
1193.200
 21
998.939
 31
0.0
  0
LINE
  8
3
  62
     5
 10
1191.079
 20
998.939
 30
0.0
 11
1193.200
 21
1001.061
 31
0.0
  0
LINE
  8
3
  62
     5
 10
1262.674
 20
1001.061
 30
0.0
 11
1264.795
 21
998.939
 31
0.0
  0
LINE
  8
3
  62
     5
 10
1262.674
 20
998.939
 30
0.0
 11
1264.795
 21
1001.061
 31
0.0
  0
LINE
  8
3
  62
     5
 10
1325.019
 20
1001.061
 30
0.0
 11
1327.140
 21
998.939
 31
0.0
  0
LINE
  8
3
  62
     5
 10
1325.019
 20
998.939
 30
0.0
 11
1327.140
 21
1001.061
 31
0.0
  0
LINE
  8
3
  62
     5
 10
1378.478
 20
1001.061
 30
0.0
 11
1380.600
 21
998.939
 31
0.0
  0
LINE
  8
3
  62
     5
 10
1378.478
 20
998.939
 30
0.0
 11
1380.600
 21
1001.061
 31
0.0
  0
LINE
  8
3
  62
     5
 10
1423.219
 20
1001.061
 30
0.0
 11
1425.341
 21
998.939
 31
0.0
  0
LINE
  8
3
  62
     5
 10
1423.219
 20
998.939
 30
0.0
 11
1425.341
 21
1001.061
 31
0.0
  0
LINE
  8
3
  62
     5
 10
1463.219
 20
1001.061
 30
0.0
 11
1465.341
 21
998.939
 31
0.0
  0
LINE
  8
3
  62
     5
 10
1463.219
 20
998.939
 30
0.0
 11
1465.341
 21
1001.061
 31
0.0
  0
LINE
  8
3
  62
     5
 10
1503.219
 20
1001.061
 30
0.0
 11
1505.341
 21
998.939
 31
0.0
  0
LINE
  8
3
  62
     5
 10
1503.219
 20
998.939
 30
0.0
 11
1505.341
 21
1001.061
 31
0.0
  0
LINE
  8
3
  62
     5
 10
1543.219
 20
1001.061
 30
0.0
 11
1545.341
 21
998.939
 31
0.0
  0
LINE
  8
3
  62
     5
 10
1543.219
 20
998.939
 30
0.0
 11
1545.341
 21
1001.061
 31
0.0
  0
LINE
  8
3
  62
     5
 10
1583.219
 20
1001.061
 30
0.0
 11
1585.341
 21
998.939
 31
0.0
  0
LINE
  8
3
  62
     5
 10
1583.219
 20
998.939
 30
0.0
 11
1585.341
 21
1001.061
 31
0.0
  0
LINE
  8
3
  62
     5
 10
1623.219
 20
1001.061
 30
0.0
 11
1625.341
 21
998.939
 31
0.0
  0
LINE
  8
3
  62
     5
 10
1623.219
 20
998.939
 30
0.0
 11
1625.341
 21
1001.061
 31
0.0
  0
LINE
  8
3
  62
     5
 10
1663.219
 20
1001.061
 30
0.0
 11
1665.341
 21
998.939
 31
0.0
  0
LINE
  8
3
  62
     5
 10
1663.219
 20
998.939
 30
0.0
 11
1665.341
 21
1001.061
 31
0.0
  0
LINE
  8
3
  62
     5
 10
1703.219
 20
1001.061
 30
0.0
 11
1705.341
 21
998.939
 31
0.0
  0
LINE
  8
3
  62
     5
 10
1703.219
 20
998.939
 30
0.0
 11
1705.341
 21
1001.061
 31
0.0
  0
LINE
  8
3
  62
     5
 10
1743.219
 20
1001.061
 30
0.0
 11
1745.341
 21
998.939
 31
0.0
  0
LINE
  8
3
  62
     5
 10
1743.219
 20
998.939
 30
0.0
 11
1745.341
 21
1001.061
 31
0.0
  0
LINE
  8
3
  62
     5
 10
1783.219
 20
1001.061
 30
0.0
 11
1785.341
 21
998.939
 31
0.0
  0
LINE
  8
3
  62
     5
 10
1783.219
 20
998.939
 30
0.0
 11
1785.341
 21
1001.061
 31
0.0
  0
LINE
  8
3
  62
     5
 10
1823.219
 20
1001.061
 30
0.0
 11
1825.341
 21
998.939
 31
0.0
  0
LINE
  8
3
  62
     5
 10
1823.219
 20
998.939
 30
0.0
 11
1825.341
 21
1001.061
 31
0.0
  0
LINE
  8
3
  62
     5
 10
1863.219
 20
1001.061
 30
0.0
 11
1865.341
 21
998.939
 31
0.0
  0
LINE
  8
3
  62
     5
 10
1863.219
 20
998.939
 30
0.0
 11
1865.341
 21
1001.061
 31
0.0
  0
LINE
  8
3
  62
     5
 10
1903.219
 20
1001.061
 30
0.0
 11
1905.341
 21
998.939
 31
0.0
  0
LINE
  8
3
  62
     5
 10
1903.219
 20
998.939
 30
0.0
 11
1905.341
 21
1001.061
 31
0.0
  0
LINE
  8
3
  62
     5
 10
1943.219
 20
1001.061
 30
0.0
 11
1945.341
 21
998.939
 31
0.0
  0
LINE
  8
3
  62
     5
 10
1943.219
 20
998.939
 30
0.0
 11
1945.341
 21
1001.061
 31
0.0
  0
LINE
  8
3
  62
     5
 10
1983.219
 20
1001.061
 30
0.0
 11
1985.341
 21
998.939
 31
0.0
  0
LINE
  8
3
  62
     5
 10
1983.219
 20
998.939
 30
0.0
 11
1985.341
 21
1001.061
 31
0.0
  0
LINE
  8
3
  62
     5
 10
2023.219
 20
1001.061
 30
0.0
 11
2025.341
 21
998.939
 31
0.0
  0
LINE
  8
3
  62
     5
 10
2023.219
 20
998.939
 30
0.0
 11
2025.341
 21
1001.061
 31
0.0
  0
TEXT
  8
1
  62
     7
 10
196.250
 20
90.000
 30
0.0
 40
5.000
  1
C/I
  7
STANDARD
  0
TEXT
  8
1
  62
     7
 10
358.612
 20
90.000
 30
0.0
 40
5.000
  1
D/I
  7
STANDARD
  0
TEXT
  8
1
  62
     7
 10
509.781
 20
90.000
 30
0.0
 40
5.000
  1
E/I
  7
STANDARD
  0
TEXT
  8
1
  62
     7
 10
649.338
 20
90.000
 30
0.0
 40
5.000
  1
Fs/I
  7
STANDARD
  0
TEXT
  8
1
  62
     7
 10
780.553
 20
90.000
 30
0.0
 40
5.000
  1
Gs/I
  7
STANDARD
  0
TEXT
  8
1
  62
     7
 10
904.138
 20
90.000
 30
0.0
 40
5.000
  1
B/I
  7
STANDARD
  0
TEXT
  8
1
  62
     7
 10
1013.998
 20
90.000
 30
0.0
 40
5.000
  1
c0/I
  7
STANDARD
  0
TEXT
  8
1
  62
     7
 10
1105.778
 20
90.000
 30
0.0
 40
5.000
  1
d0/I
  7
STANDARD
  0
TEXT
  8
1
  62
     7
 10
1187.139
 20
90.000
 30
0.0
 40
5.000
  1
e0/I
  7
STANDARD
  0
TEXT
  8
1
  62
     7
 10
1257.484
 20
90.000
 30
0.0
 40
5.000
  1
fs0/I
  7
STANDARD
  0
TEXT
  8
1
  62
     7
 10
1319.830
 20
90.000
 30
0.0
 40
5.000
  1
gs0/I
  7
STANDARD
  0
TEXT
  8
1
  62
     7
 10
1374.539
 20
90.000
 30
0.0
 40
5.000
  1
b0/I
  7
STANDARD
  0
TEXT
  8
1
  62
     7
 10
1419.280
 20
90.000
 30
0.0
 40
5.000
  1
c1/I
  7
STANDARD
  0
TEXT
  8
1
  62
     7
 10
1459.280
 20
90.000
 30
0.0
 40
5.000
  1
d1/I
  7
STANDARD
  0
TEXT
  8
1
  62
     7
 10
1499.280
 20
90.000
 30
0.0
 40
5.000
  1
e1/I
  7
STANDARD
  0
TEXT
  8
1
  62
     7
 10
1538.030
 20
90.000
 30
0.0
 40
5.000
  1
fs1/I
  7
STANDARD
  0
TEXT
  8
1
  62
     7
 10
1578.030
 20
90.000
 30
0.0
 40
5.000
  1
gs1/I
  7
STANDARD
  0
TEXT
  8
1
  62
     7
 10
1619.280
 20
90.000
 30
0.0
 40
5.000
  1
b1/I
  7
STANDARD
  0
TEXT
  8
1
  62
     7
 10
1659.280
 20
90.000
 30
0.0
 40
5.000
  1
c2/I
  7
STANDARD
  0
TEXT
  8
1
  62
     7
 10
1699.280
 20
90.000
 30
0.0
 40
5.000
  1
d2/I
  7
STANDARD
  0
TEXT
  8
1
  62
     7
 10
1739.280
 20
90.000
 30
0.0
 40
5.000
  1
e2/I
  7
STANDARD
  0
TEXT
  8
1
  62
     7
 10
1778.030
 20
90.000
 30
0.0
 40
5.000
  1
fs2/I
  7
STANDARD
  0
TEXT
  8
1
  62
     7
 10
1818.030
 20
90.000
 30
0.0
 40
5.000
  1
gs2/I
  7
STANDARD
  0
TEXT
  8
1
  62
     7
 10
1859.280
 20
90.000
 30
0.0
 40
5.000
  1
b2/I
  7
STANDARD
  0
TEXT
  8
1
  62
     7
 10
1899.280
 20
90.000
 30
0.0
 40
5.000
  1
c3/I
  7
STANDARD
  0
TEXT
  8
1
  62
     7
 10
1939.280
 20
90.000
 30
0.0
 40
5.000
  1
d3/I
  7
STANDARD
  0
TEXT
  8
1
  62
     7
 10
1979.280
 20
90.000
 30
0.0
 40
5.000
  1
e3/I
  7
STANDARD
  0
TEXT
  8
1
  62
     7
 10
2018.030
 20
90.000
 30
0.0
 40
5.000
  1
fs3/I
  7
STANDARD
  0
TEXT
  8
1
  62
     7
 10
276.181
 20
80.000
 30
0.0
 40
5.000
  1
C/II
  7
STANDARD
  0
TEXT
  8
1
  62
     7
 10
432.946
 20
80.000
 30
0.0
 40
5.000
  1
D/II
  7
STANDARD
  0
TEXT
  8
1
  62
     7
 10
578.934
 20
80.000
 30
0.0
 40
5.000
  1
E/II
  7
STANDARD
  0
TEXT
  8
1
  62
     7
 10
713.695
 20
80.000
 30
0.0
 40
5.000
  1
Fs/II
  7
STANDARD
  0
TEXT
  8
1
  62
     7
 10
840.470
 20
80.000
 30
0.0
 40
5.000
  1
Gs/II
  7
STANDARD
  0
TEXT
  8
1
  62
     7
 10
958.443
 20
80.000
 30
0.0
 40
5.000
  1
B/II
  7
STANDARD
  0
TEXT
  8
1
  62
     7
 10
1058.638
 20
80.000
 30
0.0
 40
5.000
  1
c0/II
  7
STANDARD
  0
TEXT
  8
1
  62
     7
 10
1145.209
 20
80.000
 30
0.0
 40
5.000
  1
d0/II
  7
STANDARD
  0
TEXT
  8
1
  62
     7
 10
1221.687
 20
80.000
 30
0.0
 40
5.000
  1
e0/II
  7
STANDARD
  0
TEXT
  8
1
  62
     7
 10
1287.407
 20
80.000
 30
0.0
 40
5.000
  1
fs0/II
  7
STANDARD
  0
TEXT
  8
1
  62
     7
 10
1345.309
 20
80.000
 30
0.0
 40
5.000
  1
gs0/II
  7
STANDARD
  0
TEXT
  8
1
  62
     7
 10
1395.659
 20
80.000
 30
0.0
 40
5.000
  1
b0/II
  7
STANDARD
  0
TEXT
  8
1
  62
     7
 10
1438.030
 20
80.000
 30
0.0
 40
5.000
  1
c1/II
  7
STANDARD
  0
TEXT
  8
1
  62
     7
 10
1478.030
 20
80.000
 30
0.0
 40
5.000
  1
d1/II
  7
STANDARD
  0
TEXT
  8
1
  62
     7
 10
1518.030
 20
80.000
 30
0.0
 40
5.000
  1
e1/II
  7
STANDARD
  0
TEXT
  8
1
  62
     7
 10
1556.780
 20
80.000
 30
0.0
 40
5.000
  1
fs1/II
  7
STANDARD
  0
TEXT
  8
1
  62
     7
 10
1596.780
 20
80.000
 30
0.0
 40
5.000
  1
gs1/II
  7
STANDARD
  0
TEXT
  8
1
  62
     7
 10
1638.030
 20
80.000
 30
0.0
 40
5.000
  1
b1/II
  7
STANDARD
  0
TEXT
  8
1
  62
     7
 10
1678.030
 20
80.000
 30
0.0
 40
5.000
  1
c2/II
  7
STANDARD
  0
TEXT
  8
1
  62
     7
 10
1718.030
 20
80.000
 30
0.0
 40
5.000
  1
d2/II
  7
STANDARD
  0
TEXT
  8
1
  62
     7
 10
1758.030
 20
80.000
 30
0.0
 40
5.000
  1
e2/II
  7
STANDARD
  0
TEXT
  8
1
  62
     7
 10
1796.780
 20
80.000
 30
0.0
 40
5.000
  1
fs2/II
  7
STANDARD
  0
TEXT
  8
1
  62
     7
 10
1836.780
 20
80.000
 30
0.0
 40
5.000
  1
gs2/II
  7
STANDARD
  0
TEXT
  8
1
  62
     7
 10
1878.030
 20
80.000
 30
0.0
 40
5.000
  1
b2/II
  7
STANDARD
  0
TEXT
  8
1
  62
     7
 10
1918.030
 20
80.000
 30
0.0
 40
5.000
  1
c3/II
  7
STANDARD
  0
TEXT
  8
1
  62
     7
 10
1958.030
 20
80.000
 30
0.0
 40
5.000
  1
d3/II
  7
STANDARD
  0
TEXT
  8
1
  62
     7
 10
1998.030
 20
80.000
 30
0.0
 40
5.000
  1
e3/II
  7
STANDARD
  0
TEXT
  8
1
  62
     7
 10
2036.780
 20
80.000
 30
0.0
 40
5.000
  1
fs3/II
  7
STANDARD
  0
ENDSEC
  0
EOF
